<svg width="561" height="401" viewBox="0 0 561 401" fill="none" xmlns="http://www.w3.org/2000/svg">
<g opacity="0.35">
<path opacity="0.35" d="M519.505 281.935C510.548 249.832 539.001 248.599 539.629 207.238C539.883 190.316 530.613 173.092 508.312 165.187C497.361 161.295 486.435 158.636 476.681 152.46C454.465 138.378 454.864 111.606 448.796 88.7736C435.5 38.6369 331.202 -1.22584 279.349 0.0674671C241.964 1.01025 224.716 19.0198 190.631 50.7602C167.303 72.5167 126.219 70.4981 138.185 126.606C148.858 176.573 123.681 172.863 100.716 191.307C77.7507 209.752 60.8894 231.666 70.0392 256.577C80.0714 284.075 18.3675 299.896 7.29583 335.468C-0.173909 359.642 39.0724 361.673 65.7725 361.673C92.4726 361.673 321.001 359.618 417.66 362.483C443.671 363.244 526.672 370.339 538.409 337.91C546.41 315.827 525.754 304.344 519.505 281.935Z" fill="#79B09D"/>
</g>
<path d="M549.166 271.939C529.827 316.891 492.635 353.574 448.022 373.47" stroke="#B3CBC2" stroke-width="1.39" stroke-miterlimit="10"/>
<path d="M543.498 283.893C550.292 278.196 554.813 270.248 556.238 261.496C556.576 259.381 556.649 256.952 555.222 255.344C554.846 254.883 554.312 254.578 553.724 254.486C553.247 254.503 552.781 254.629 552.362 254.856C551.943 255.082 551.581 255.402 551.306 255.791C547.958 259.562 546.786 264.784 546.218 269.788C545.65 274.792 544.538 278.491 543.498 283.893" fill="#B3CBC2"/>
<path d="M534.324 299.208C538.303 291.284 539.302 282.194 537.14 273.595C536.609 271.516 535.714 269.268 533.768 268.35C533.239 268.076 532.628 268.007 532.052 268.156C531.619 268.36 531.24 268.661 530.945 269.037C530.649 269.412 530.444 269.852 530.348 270.32C528.764 275.154 529.767 280.352 531.23 285.187C532.692 290.021 533.14 293.829 534.324 299.208" fill="#B3CBC2"/>
<path d="M520.835 318.027C525.743 310.643 527.844 301.746 526.758 292.947C526.48 290.819 525.875 288.474 524.05 287.326C523.56 286.987 522.962 286.84 522.37 286.915C521.917 287.068 521.504 287.323 521.165 287.661C520.825 287.998 520.568 288.409 520.412 288.861C518.26 293.418 518.611 298.748 519.469 303.728C520.327 308.708 520.303 312.539 520.835 318.027" fill="#B3CBC2"/>
<path d="M505.315 334.55C510.234 327.175 512.34 318.279 511.25 309.481C510.972 307.342 510.356 305.009 508.531 303.861C508.04 303.522 507.442 303.375 506.85 303.45C506.398 303.603 505.988 303.858 505.65 304.196C505.313 304.533 505.057 304.944 504.904 305.396C502.741 309.953 503.091 315.283 503.95 320.263C504.808 325.243 504.796 329.074 505.315 334.55" fill="#B3CBC2"/>
<path d="M482.085 353.599C487.727 346.768 490.729 338.138 490.546 329.28C490.546 327.128 490.123 324.735 488.43 323.406C487.977 323.017 487.396 322.811 486.799 322.825C486.334 322.931 485.899 323.141 485.528 323.441C485.157 323.741 484.86 324.121 484.659 324.554C482.036 328.869 481.831 334.223 482.169 339.24C482.508 344.256 482.097 348.099 482.049 353.599" fill="#B3CBC2"/>
<path d="M463.881 365.77C469.594 359.349 473.057 351.24 473.744 342.672C473.926 340.533 473.865 338.103 472.536 336.629C472.378 336.415 472.179 336.236 471.95 336.101C471.722 335.966 471.469 335.878 471.206 335.843C470.384 335.843 469.695 336.544 469.187 337.293C466.492 341.258 465.743 346.528 465.501 351.568C465.259 356.608 464.498 360.343 463.869 365.807" fill="#C3ECFE"/>
<path d="M529.731 305.94C538.888 307.361 548.254 305.567 556.238 300.864C558.208 299.715 560.239 298.156 560.65 296.029C560.799 295.439 560.713 294.815 560.408 294.288C560.084 293.927 559.677 293.648 559.223 293.476C558.769 293.303 558.28 293.242 557.797 293.297C552.564 293.225 547.536 295.799 543.051 298.7C538.567 301.601 534.844 303.196 529.756 305.952" fill="#B3CBC2"/>
<path d="M518.828 320.203C527.381 323.772 536.907 324.263 545.782 321.593C547.958 320.94 550.315 319.912 551.233 317.906C551.512 317.365 551.577 316.74 551.415 316.153C551.184 315.727 550.856 315.361 550.457 315.086C550.057 314.811 549.599 314.634 549.118 314.57C544.054 313.253 538.554 314.57 533.502 316.286C528.449 318.003 524.449 318.704 518.828 320.203Z" fill="#B3CBC2"/>
<path d="M502.535 336.834C510.205 342.035 519.438 344.422 528.667 343.591C530.94 343.385 533.442 342.842 534.711 341.053C535.09 340.583 535.28 339.988 535.243 339.385C535.11 338.442 534.191 337.801 533.297 337.366C528.607 335.058 522.962 335.239 517.656 335.928C512.35 336.617 508.313 336.484 502.499 336.834" fill="#B3CBC2"/>
<path d="M479.739 356.028C488.375 359.399 497.912 359.677 506.729 356.814C508.893 356.113 511.214 355.037 512.096 353.006C512.367 352.462 512.415 351.833 512.229 351.254C511.991 350.831 511.655 350.47 511.249 350.203C510.843 349.936 510.379 349.77 509.896 349.719C504.808 348.51 499.344 349.936 494.328 351.786C489.312 353.635 485.336 354.396 479.739 356.028Z" fill="#B3CBC2"/>
<path d="M461.318 367.027C467.505 373.931 475.895 378.476 485.057 379.888C487.305 380.226 489.892 380.311 491.56 378.885C492.046 378.526 492.375 377.993 492.479 377.398C492.452 376.913 492.311 376.441 492.067 376.021C491.824 375.601 491.484 375.245 491.076 374.981C487.076 371.608 481.552 370.424 476.246 369.819C470.94 369.215 467.048 368.115 461.318 367.039" fill="#C3ECFE"/>
<path d="M439.949 177.371C439.833 177.365 439.722 177.316 439.64 177.234C439.557 177.151 439.508 177.041 439.502 176.924L439.333 174.506C439.329 174.445 439.337 174.383 439.357 174.324C439.377 174.265 439.409 174.211 439.45 174.164C439.491 174.118 439.54 174.08 439.596 174.052C439.652 174.025 439.712 174.009 439.774 174.005C439.836 174.001 439.898 174.009 439.957 174.029C440.016 174.049 440.07 174.081 440.116 174.122C440.163 174.163 440.201 174.212 440.228 174.268C440.256 174.324 440.272 174.384 440.276 174.446L440.445 176.863C440.452 176.926 440.446 176.99 440.427 177.05C440.409 177.111 440.378 177.167 440.338 177.216C440.297 177.264 440.247 177.304 440.191 177.333C440.134 177.362 440.073 177.379 440.01 177.383L439.949 177.371Z" fill="#869892"/>
<path d="M450.755 286.625L444.397 287.072L437.326 184.623L440.505 184.405L443.684 184.176L450.755 286.625Z" fill="#B3CBC2"/>
<path d="M440.553 175.896L439.26 175.981L437.326 184.623L443.684 184.176L440.553 175.896Z" fill="#B3CBC2"/>
<path d="M129.653 201.388C140.955 263.14 184.045 318.184 241.204 344.014" stroke="#B3CBC2" stroke-width="1.39" stroke-miterlimit="10"/>
<path d="M132.517 214.309C127.165 207.241 124.527 198.487 125.084 189.639C125.229 187.488 125.7 185.119 127.501 183.874C127.97 183.501 128.56 183.316 129.157 183.354C129.617 183.48 130.041 183.71 130.397 184.027C130.754 184.343 131.032 184.738 131.212 185.179C133.629 189.603 133.629 194.945 133.061 199.961C132.493 204.977 132.747 208.809 132.566 214.309" fill="#B3CBC2"/>
<path d="M138.029 231.291C135.92 222.678 136.97 213.594 140.99 205.691C141.969 203.781 143.408 201.787 145.451 201.327C146.031 201.175 146.647 201.244 147.179 201.521C147.559 201.814 147.866 202.192 148.076 202.624C148.286 203.056 148.392 203.531 148.388 204.011C148.859 209.027 146.72 213.922 144.218 218.31C141.716 222.697 140.447 226.311 138.029 231.291Z" fill="#B3CBC2"/>
<path d="M146.998 252.661C143.854 244.37 143.785 235.228 146.805 226.891C147.554 224.873 148.678 222.733 150.709 222.056C151.265 221.843 151.881 221.843 152.437 222.056C152.843 222.304 153.187 222.643 153.441 223.045C153.694 223.448 153.851 223.904 153.9 224.377C154.987 229.309 153.464 234.434 151.482 239.087C149.5 243.74 148.69 247.487 146.962 252.721" fill="#B3CBC2"/>
<path d="M158.431 272.205C155.291 263.918 155.227 254.779 158.25 246.448C158.987 244.429 160.111 242.278 162.142 241.613C162.696 241.389 163.316 241.389 163.87 241.613C164.28 241.858 164.627 242.195 164.883 242.598C165.139 243.001 165.298 243.459 165.345 243.934C166.433 248.865 164.898 253.978 162.928 258.632C160.958 263.285 160.148 267.092 158.407 272.266" fill="#B3CBC2"/>
<path d="M176.84 295.956C172.85 288.041 171.837 278.955 173.988 270.356C174.508 268.265 175.402 266.017 177.348 265.098C177.88 264.822 178.496 264.753 179.076 264.905C179.507 265.107 179.884 265.406 180.178 265.78C180.472 266.153 180.674 266.591 180.769 267.056C182.364 271.891 181.373 277.101 179.923 281.935C178.472 286.77 178.025 290.578 176.84 295.956" fill="#C3ECFE"/>
<path d="M191.864 311.875C187.734 304.338 186.172 295.66 187.416 287.157C187.706 285.029 188.311 282.685 189.93 281.5C190.132 281.327 190.367 281.197 190.62 281.118C190.874 281.039 191.141 281.013 191.405 281.041C192.215 281.186 192.71 282.056 193.037 282.902C194.789 287.362 194.342 292.668 193.46 297.636C192.578 302.604 192.481 306.423 191.864 311.875Z" fill="#C3ECFE"/>
<path d="M141.015 238.881C131.77 238.22 123.039 234.376 116.309 228.003C114.653 226.444 113.022 224.462 113.094 222.25C113.093 221.647 113.317 221.065 113.723 220.618C114.12 220.338 114.578 220.157 115.06 220.09C115.541 220.023 116.032 220.071 116.491 220.231C121.603 221.319 125.93 224.957 129.665 228.777C133.4 232.596 136.664 235.002 141.015 238.869" fill="#B3CBC2"/>
<path d="M148.472 255.175C139.337 256.741 129.941 255.097 121.881 250.521C119.898 249.397 117.844 247.874 117.396 245.687C117.236 245.102 117.31 244.477 117.602 243.946C117.923 243.581 118.326 243.298 118.778 243.12C119.229 242.941 119.717 242.872 120.201 242.919C125.434 242.749 130.499 245.251 135.031 248.08C139.564 250.908 143.311 252.443 148.472 255.163" fill="#B3CBC2"/>
<path d="M160.644 275.046C152.011 278.415 142.476 278.684 133.666 275.807C131.503 275.106 129.182 274.018 128.299 271.988C128.033 271.442 127.981 270.817 128.154 270.235C128.395 269.811 128.734 269.451 129.141 269.184C129.549 268.917 130.015 268.751 130.499 268.7C135.588 267.491 141.051 268.93 146.067 270.791C151.083 272.652 155.048 273.414 160.644 275.046Z" fill="#B3CBC2"/>
<path d="M178.58 298.845C169.412 300.21 160.054 298.356 152.098 293.599C150.152 292.391 148.121 290.856 147.722 288.68C147.589 288.092 147.679 287.476 147.976 286.952C148.303 286.593 148.71 286.317 149.164 286.147C149.618 285.977 150.105 285.917 150.587 285.972C155.821 285.972 160.837 288.535 165.309 291.46C169.781 294.385 173.492 296.017 178.605 298.845" fill="#B3CBC2"/>
<path d="M194.089 313.676C186.521 319.026 177.334 321.589 168.09 320.928C165.817 320.771 163.255 320.275 161.961 318.51C161.573 318.044 161.375 317.448 161.405 316.842C161.514 315.9 162.421 315.247 163.303 314.8C167.957 312.382 173.601 312.479 178.919 313.071C184.238 313.663 188.275 313.458 194.089 313.688" fill="#C3ECFE"/>
<path d="M18.3682 287.604C81.0753 284.751 144.387 314.328 182.436 364.259" stroke="#B3CBC2" stroke-width="1.39" stroke-miterlimit="10"/>
<path d="M31.5431 287.495C23.455 283.863 14.331 283.258 5.83419 285.791C3.76732 286.419 1.5675 287.411 0.745582 289.417C0.489103 289.957 0.441737 290.573 0.612626 291.146C0.836668 291.567 1.15497 291.932 1.54278 292.211C1.9306 292.489 2.37749 292.675 2.84871 292.753C7.68349 294.119 12.9051 292.898 17.6673 291.23C22.4296 289.562 26.2249 288.946 31.5431 287.519" fill="#B3CBC2"/>
<path d="M49.3234 289.018C40.4584 288.894 31.8442 291.961 25.0528 297.66C23.409 299.038 21.7772 300.827 21.8014 302.979C21.7881 303.577 21.9896 304.16 22.3695 304.623C22.7447 304.919 23.1827 305.125 23.6499 305.225C24.1171 305.326 24.6011 305.318 25.0649 305.203C30.0568 304.538 34.3477 301.347 38.0584 297.951C41.769 294.554 44.96 292.487 49.3234 289.018Z" fill="#B3CBC2"/>
<path d="M72.1669 292.995C63.3812 291.783 54.4527 293.774 47.014 298.603C45.213 299.812 43.3879 301.347 43.1462 303.438C43.0541 304.027 43.1832 304.63 43.5088 305.13C43.8397 305.472 44.2458 305.732 44.6948 305.889C45.1439 306.047 45.6234 306.097 46.0954 306.037C51.1477 306.037 55.7649 303.353 59.8987 300.404C64.0324 297.455 67.453 295.811 72.1669 292.947" fill="#B3CBC2"/>
<path d="M93.7799 299.751C84.998 298.539 76.0732 300.53 68.639 305.36C66.8381 306.568 65.0129 308.103 64.7591 310.194C64.6706 310.785 64.8041 311.388 65.1338 311.887C65.4636 312.23 65.8696 312.491 66.3189 312.649C66.7683 312.806 67.2484 312.856 67.7204 312.793C72.7728 312.793 77.39 310.11 81.5116 307.161C85.6333 304.211 89.0781 302.568 93.7799 299.703" fill="#B3CBC2"/>
<path d="M121.108 312.346C112.497 310.241 103.418 311.296 95.5195 315.319C93.5977 316.298 91.6154 317.676 91.1561 319.779C91.007 320.356 91.0759 320.967 91.3495 321.496C91.6329 321.869 91.9983 322.172 92.4174 322.382C92.8366 322.591 93.2983 322.702 93.7669 322.704C98.7951 323.176 103.69 321.036 108.078 318.534C112.465 316.032 116.067 314.739 121.047 312.382" fill="#C3ECFE"/>
<path d="M139.951 323.418C131.678 321.081 122.869 321.505 114.859 324.626C112.852 325.388 110.701 326.5 109.903 328.349C109.782 328.585 109.71 328.842 109.691 329.106C109.673 329.369 109.708 329.634 109.794 329.884C110.108 330.646 111.075 330.936 111.97 331.093C116.72 331.794 121.784 330.162 126.474 328.18C131.164 326.198 134.814 325.255 139.999 323.442" fill="#B3CBC2"/>
<path d="M57.3964 290.227C54.6771 281.368 48.9757 273.724 41.2603 268.591C39.3627 267.322 37.0661 266.174 34.9268 266.754C34.3398 266.885 33.8227 267.23 33.4763 267.721C33.2931 268.172 33.2195 268.661 33.2615 269.146C33.3035 269.632 33.46 270.1 33.7181 270.513C35.93 275.251 40.4505 278.648 45.0073 281.391C49.5641 284.135 52.6462 286.806 57.3964 290.191" fill="#B3CBC2"/>
<path d="M74.9836 293.853C74.4607 284.598 70.7443 275.811 64.4679 268.99C62.9329 267.31 60.9869 265.654 58.7629 265.702C58.1589 265.679 57.5696 265.892 57.1191 266.295C56.8359 266.69 56.65 267.147 56.5765 267.628C56.503 268.109 56.544 268.6 56.696 269.063C57.7113 274.187 61.2891 278.575 65.0602 282.358C68.8313 286.141 71.1762 289.441 74.9836 293.853Z" fill="#B3CBC2"/>
<path d="M97.0416 301.262C98.3837 292.093 96.5041 282.742 91.7233 274.804C90.5146 272.846 88.9675 270.827 86.7918 270.429C86.2042 270.295 85.5878 270.385 85.0634 270.682C84.7045 271.011 84.4295 271.42 84.2613 271.876C84.093 272.333 84.0365 272.823 84.0965 273.305C84.0965 278.539 86.6831 283.543 89.6202 288.003C92.5573 292.463 94.2011 296.174 97.0416 301.299" fill="#B3CBC2"/>
<path d="M124.262 313.398C123.537 304.158 119.628 295.456 113.203 288.776C111.632 287.133 109.637 285.513 107.425 285.61C106.822 285.608 106.24 285.832 105.794 286.238C105.513 286.638 105.331 287.097 105.262 287.58C105.193 288.063 105.238 288.556 105.395 289.018C106.531 294.131 110.229 298.434 114.049 302.132C117.868 305.831 120.322 309.082 124.226 313.41" fill="#C3ECFE"/>
<path d="M142.199 325.17C145.708 316.596 146.136 307.07 143.407 298.216C142.743 296.029 141.703 293.696 139.685 292.789C139.145 292.507 138.516 292.447 137.932 292.62C137.506 292.853 137.141 293.183 136.867 293.585C136.594 293.986 136.42 294.447 136.361 294.929C135.079 299.993 136.361 305.481 138.186 310.521C140.011 315.561 140.664 319.562 142.199 325.17Z" fill="#B3CBC2"/>
<path d="M216.486 314.147C211.906 309.914 206.484 306.695 200.576 304.7C194.667 302.705 188.404 301.978 182.195 302.568C173.819 303.414 164.681 307.886 162.856 316.105C161.986 320.021 162.288 325.219 158.577 326.754C154.867 328.289 151.458 324.518 147.699 323.273C141.498 321.194 134.403 328.277 136.519 334.465C137.473 337.281 139.855 339.735 139.661 342.709C139.383 346.746 134.391 348.849 130.403 348.22C126.414 347.592 122.872 345.259 118.944 344.256C115.016 343.252 109.951 344.256 108.574 348.063C107.365 351.484 109.468 356.065 106.785 358.506C105.525 359.435 103.998 359.931 102.433 359.92C68.4691 363.135 31.1204 369.227 34.8794 375.271C35.9189 376.915 38.5055 376.395 40.524 376.359C112.792 375.222 178.448 374.147 250.704 376.359" fill="#B3CBC2"/>
<path d="M419.716 200.614L441.134 284.631L437.06 285.67L410.554 202.947" fill="#1DA492"/>
<path d="M411.195 179.172C411.557 180.574 417.71 204.724 417.71 204.724C417.864 205.341 417.77 205.994 417.446 206.541C417.122 207.089 416.596 207.487 415.981 207.649V207.649C415.363 207.803 414.708 207.707 414.16 207.381C413.613 207.055 413.216 206.525 413.056 205.908L412.331 203.032C412.331 203.032 408.898 195.779 399.446 198.741C399.446 198.741 410.723 197.327 411.11 197.351C411.497 197.375 410.796 177.818 411.195 179.172Z" fill="#C0EDFF"/>
<path d="M421.335 203.793L413.962 174.905C413.865 174.434 413.781 173.963 413.66 173.491C410.287 160.268 398.648 151.735 387.709 154.575C376.77 157.416 370.606 170.397 373.978 183.584C377.351 196.771 388.99 205.34 399.929 202.5L400.219 202.415C404.595 201.352 407.012 202.004 408.209 203.709C408.788 204.671 409.196 205.726 409.417 206.827C409.618 207.615 409.972 208.356 410.459 209.007C410.946 209.658 411.557 210.207 412.256 210.623C412.955 211.038 413.729 211.311 414.534 211.427C415.339 211.544 416.159 211.5 416.947 211.299C417.735 211.098 418.476 210.744 419.128 210.257C419.779 209.77 420.328 209.16 420.743 208.46C421.158 207.761 421.432 206.987 421.548 206.182C421.664 205.377 421.62 204.557 421.42 203.769L421.335 203.793ZM381.279 181.734C378.946 172.573 382.645 163.689 389.534 161.924C396.424 160.159 403.942 166.203 406.263 175.401C408.583 184.599 404.897 193.459 398.007 195.211C391.118 196.964 383.612 190.908 381.279 181.734Z" fill="#4A9F81"/>
<path d="M422.87 199.853L422.931 286.553H427.137L432.322 199.841" fill="#1DA492"/>
<path d="M425.855 176.96C425.855 178.398 425.855 203.322 425.855 203.322C425.855 203.963 426.11 204.578 426.564 205.031C427.017 205.484 427.632 205.739 428.273 205.739C428.914 205.739 429.529 205.484 429.982 205.031C430.436 204.578 430.69 203.963 430.69 203.322V200.348C430.69 200.348 432.201 192.431 442.112 192.999C442.112 192.999 430.835 194.426 430.461 194.547C430.086 194.667 425.855 175.522 425.855 176.96Z" fill="#C0EDFF"/>
<path d="M442.512 147.311C431.222 147.311 422.048 158.419 422.061 172.065C422.061 172.548 422.061 173.032 422.121 173.515V203.334C422.192 204.929 422.875 206.436 424.029 207.54C425.183 208.644 426.718 209.261 428.316 209.261C429.913 209.261 431.448 208.644 432.602 207.54C433.756 206.436 434.44 204.929 434.51 203.334C434.444 202.217 434.566 201.098 434.873 200.022C435.61 198.076 437.798 196.843 442.294 196.783H442.596C453.886 196.783 463.072 185.663 463.06 172.017C463.047 158.37 453.801 147.299 442.512 147.311ZM442.512 189.204C435.405 189.204 429.615 181.517 429.603 172.053C429.591 162.589 435.368 154.853 442.524 154.853C449.679 154.853 455.421 162.54 455.421 172.004C455.421 181.469 449.655 189.204 442.548 189.204H442.512Z" fill="#4A9F81"/>
<path d="M466.97 174.324L475.094 175.791C475.463 175.858 475.79 176.069 476.004 176.377C476.218 176.685 476.301 177.065 476.234 177.435L459.291 271.222L448.384 269.252L465.327 175.464C465.393 175.095 465.604 174.768 465.912 174.554C466.22 174.34 466.601 174.257 466.97 174.324Z" fill="#1DA492"/>
<path d="M467.028 174.342L475.152 175.81C475.521 175.876 475.849 176.087 476.063 176.395C476.277 176.703 476.359 177.084 476.293 177.453L474.664 186.469L463.757 184.498L465.385 175.482C465.452 175.113 465.663 174.786 465.971 174.572C466.279 174.358 466.659 174.276 467.028 174.342V174.342Z" fill="#3F8069"/>
<path d="M463.756 184.498L463.165 187.769L474.072 189.74L474.663 186.469L463.756 184.498Z" fill="#B9DACA"/>
<path d="M505.881 196.428L488.08 189.413L450.135 285.694L467.936 292.709L505.881 196.428Z" fill="#B9DACA"/>
<path d="M498.765 197.266L504.627 199.575" stroke="#869892" stroke-width="1.39" stroke-miterlimit="10"/>
<path d="M496.795 202.258L502.657 204.579" stroke="#869892" stroke-width="1.39" stroke-miterlimit="10"/>
<path d="M494.824 207.262L500.686 209.571" stroke="#869892" stroke-width="1.39" stroke-miterlimit="10"/>
<path d="M489.977 211.13L498.715 214.575" stroke="#869892" stroke-width="1.39" stroke-miterlimit="10"/>
<path d="M490.871 217.27L496.745 219.579" stroke="#869892" stroke-width="1.39" stroke-miterlimit="10"/>
<path d="M488.901 222.262L494.776 224.583" stroke="#869892" stroke-width="1.39" stroke-miterlimit="10"/>
<path d="M486.932 227.266L492.794 229.574" stroke="#869892" stroke-width="1.39" stroke-miterlimit="10"/>
<path d="M482.097 231.134L490.823 234.579" stroke="#869892" stroke-width="1.39" stroke-miterlimit="10"/>
<path d="M482.991 237.274L488.853 239.583" stroke="#869892" stroke-width="1.39" stroke-miterlimit="10"/>
<path d="M481.021 242.266L486.884 244.587" stroke="#869892" stroke-width="1.39" stroke-miterlimit="10"/>
<path d="M479.05 247.27L484.912 249.579" stroke="#CCF3FF" stroke-width="1.39" stroke-miterlimit="10"/>
<path d="M474.203 251.138L482.942 254.582" stroke="#CCF3FF" stroke-width="1.39" stroke-miterlimit="10"/>
<path d="M475.11 257.278L480.973 259.586" stroke="#CCF3FF" stroke-width="1.39" stroke-miterlimit="10"/>
<path d="M473.14 262.27L479.002 264.59" stroke="#CCF3FF" stroke-width="1.39" stroke-miterlimit="10"/>
<path d="M471.17 267.274L477.032 269.582" stroke="#CCF3FF" stroke-width="1.39" stroke-miterlimit="10"/>
<path d="M466.323 271.142L475.062 274.586" stroke="#CCF3FF" stroke-width="1.39" stroke-miterlimit="10"/>
<path d="M467.217 277.282L473.091 279.59" stroke="#CCF3FF" stroke-width="1.39" stroke-miterlimit="10"/>
<path d="M465.247 282.274L471.121 284.594" stroke="#CCF3FF" stroke-width="1.39" stroke-miterlimit="10"/>
<path d="M463.276 287.278L469.139 289.598" stroke="#CCF3FF" stroke-width="1.39" stroke-miterlimit="10"/>
<path d="M480.912 380.625H392.182L377.278 246.375C377.232 245.973 377.272 245.565 377.395 245.179C377.518 244.793 377.722 244.437 377.993 244.135C378.263 243.834 378.595 243.593 378.966 243.429C379.337 243.265 379.738 243.182 380.143 243.184H492.963C493.367 243.184 493.768 243.268 494.137 243.433C494.507 243.597 494.838 243.838 495.108 244.139C495.379 244.441 495.583 244.795 495.706 245.181C495.83 245.566 495.871 245.973 495.827 246.375L480.912 380.625Z" fill="#3D6053"/>
<path d="M369.639 386.475L529.984 388.663C531.785 388.663 537.442 386.935 527.7 380.649C519.444 375.331 493.361 380.118 493.361 380.118C493.361 380.118 499.404 377.7 499.404 374.546C499.404 371.391 496.987 368.635 494.134 367.293C491.195 366.148 488.022 365.733 484.888 366.085C478.493 366.45 472.201 367.858 466.262 370.255C466.885 369.863 467.422 369.347 467.839 368.74C468.256 368.133 468.544 367.447 468.686 366.725C468.829 366.002 468.822 365.258 468.666 364.538C468.51 363.818 468.209 363.138 467.781 362.539C467.352 361.94 466.806 361.435 466.175 361.054C465.545 360.674 464.843 360.427 464.113 360.328C463.384 360.228 462.641 360.279 461.932 360.477C461.223 360.676 460.561 361.017 459.989 361.48C464.001 356.052 470.19 332.012 451.153 321.411C427.293 308.116 409.175 319.066 405.319 327.056C403.349 319.211 394.356 313.277 388.398 311.802C374.872 308.442 366.073 309.385 353.442 315.332C348.982 317.423 342.999 324.542 340.026 328.47C335.384 334.634 334.659 342.829 334.405 350.541C334.212 356.343 334.184 362.136 334.321 367.922" fill="#B3CBC2"/>
<path d="M400.872 395.021C400.872 397.789 347.036 400.037 280.631 400.037C214.225 400.037 160.39 397.801 160.39 395.021C160.39 392.241 214.177 390.005 280.655 390.005C347.133 390.005 400.872 392.253 400.872 395.021Z" fill="#C7DADB"/>
<path d="M282.916 45.0308C279.71 45.0308 276.636 46.3042 274.369 48.571C272.103 50.8377 270.829 53.9121 270.829 57.1177V72.5769H295.003V57.1056C295 53.9021 293.725 50.8308 291.459 48.5667C289.192 46.3025 286.12 45.0308 282.916 45.0308V45.0308ZM282.916 64.0194C281.578 64.017 280.27 63.618 279.159 62.8728C278.047 62.1276 277.182 61.0696 276.671 59.8326C276.161 58.5956 276.028 57.235 276.291 55.9228C276.554 54.6106 277.199 53.4056 278.146 52.4602C279.093 51.5148 280.299 50.8714 281.612 50.6112C282.925 50.351 284.285 50.4857 285.521 50.9984C286.757 51.511 287.814 52.3786 288.557 53.4914C289.3 54.6043 289.697 55.9125 289.697 57.2507C289.697 58.1406 289.521 59.0217 289.18 59.8437C288.84 60.6657 288.34 61.4124 287.71 62.0411C287.08 62.6698 286.333 63.1682 285.51 63.5076C284.687 63.8471 283.806 64.021 282.916 64.0194Z" fill="#1DA492"/>
<g opacity="0.45">
<path opacity="0.45" d="M289.696 57.2507C289.693 55.4544 288.977 53.7328 287.706 52.4638C286.435 51.1948 284.712 50.482 282.915 50.482C282.575 50.4944 282.235 50.5307 281.9 50.5908C282.734 50.1043 283.692 49.8731 284.656 49.926C286.451 49.926 288.173 50.6392 289.442 51.9085C290.711 53.1779 291.425 54.8995 291.425 56.6947C291.425 60.0911 289.696 61.9284 287.073 62.5931C287.857 61.9333 288.495 61.1176 288.947 60.1979C289.398 59.2781 289.653 58.2744 289.696 57.2507V57.2507ZM274.539 71.0178V55.5586C274.48 53.5919 274.913 51.6417 275.799 49.8853C276.686 48.1289 277.998 46.6221 279.616 45.5022C277.094 46.2235 274.875 47.7457 273.294 49.8388C271.713 51.932 270.856 54.4826 270.853 57.1057V72.5649H295.026V71.0178H274.539Z" fill="#B03D44"/>
</g>
<path d="M382.572 73.375H178.677C172.175 73.375 166.904 78.6458 166.904 85.1477V383.188C166.904 389.69 172.175 394.961 178.677 394.961H382.572C389.074 394.961 394.345 389.69 394.345 383.188V85.1477C394.345 78.6458 389.074 73.375 382.572 73.375Z" fill="#355951"/>
<path d="M381.17 85.9937H180.092V382.354H381.17V85.9937Z" fill="#B9DACA"/>
<path d="M373.447 95.0466H187.828V373.3H373.447V95.0466Z" fill="#F4FFF5"/>
<path d="M353.781 78.705V90.792H207.529V78.705C207.529 76.461 208.421 74.309 210.007 72.7223C211.594 71.1355 213.746 70.2441 215.99 70.2441H345.321C347.565 70.2441 349.717 71.1355 351.303 72.7223C352.89 74.309 353.781 76.461 353.781 78.705Z" fill="#1DA492"/>
<path opacity="0.45" d="M353.781 87.7702V90.792H207.529V78.705C207.529 76.461 208.421 74.309 210.007 72.7223C211.594 71.1355 213.746 70.2441 215.99 70.2441H217.199C214.758 72.5355 213.32 75.6977 213.198 79.0434V87.7944L353.781 87.7702Z" fill="#1B5F56"/>
<path d="M239.294 124.624H269.451" stroke="#869892" stroke-width="3.12" stroke-linecap="round" stroke-linejoin="round"/>
<path d="M337.113 134.233H360.042" stroke="#869892" stroke-width="3.12" stroke-linecap="round" stroke-linejoin="round"/>
<path d="M239.294 134.233H327.178" stroke="#869892" stroke-width="3.12" stroke-linecap="round" stroke-linejoin="round"/>
<path d="M239.294 143.854H360.043" stroke="#869892" stroke-width="3.12" stroke-linecap="round" stroke-linejoin="round"/>
<path d="M321.654 153.463H360.042" stroke="#869892" stroke-width="3.12" stroke-linecap="round" stroke-linejoin="round"/>
<path d="M239.294 153.463H312.106" stroke="#869892" stroke-width="3.12" stroke-linecap="round" stroke-linejoin="round"/>
<path d="M279.35 124.624H360.042" stroke="#869892" stroke-width="3.12" stroke-linecap="round" stroke-linejoin="round"/>
<path d="M239.294 193.725H269.451" stroke="#869892" stroke-width="3.12" stroke-linecap="round" stroke-linejoin="round"/>
<path d="M337.113 203.334H360.042" stroke="#869892" stroke-width="3.12" stroke-linecap="round" stroke-linejoin="round"/>
<path d="M239.294 203.334H327.178" stroke="#869892" stroke-width="3.12" stroke-linecap="round" stroke-linejoin="round"/>
<path d="M239.294 212.955H360.043" stroke="#869892" stroke-width="3.12" stroke-linecap="round" stroke-linejoin="round"/>
<path d="M321.654 222.564H360.042" stroke="#869892" stroke-width="3.12" stroke-linecap="round" stroke-linejoin="round"/>
<path d="M239.294 222.564H312.106" stroke="#869892" stroke-width="3.12" stroke-linecap="round" stroke-linejoin="round"/>
<path d="M279.35 193.725H360.042" stroke="#869892" stroke-width="3.12" stroke-linecap="round" stroke-linejoin="round"/>
<path d="M239.294 260.408H269.451" stroke="#869892" stroke-width="3.12" stroke-linecap="round" stroke-linejoin="round"/>
<path d="M337.113 270.018H360.042" stroke="#869892" stroke-width="3.12" stroke-linecap="round" stroke-linejoin="round"/>
<path d="M239.294 270.018H327.178" stroke="#869892" stroke-width="3.12" stroke-linecap="round" stroke-linejoin="round"/>
<path d="M239.294 279.639H360.043" stroke="#869892" stroke-width="3.12" stroke-linecap="round" stroke-linejoin="round"/>
<path d="M321.654 289.248H360.042" stroke="#869892" stroke-width="3.12" stroke-linecap="round" stroke-linejoin="round"/>
<path d="M239.294 289.248H312.106" stroke="#869892" stroke-width="3.12" stroke-linecap="round" stroke-linejoin="round"/>
<path d="M279.35 260.408H360.042" stroke="#869892" stroke-width="3.12" stroke-linecap="round" stroke-linejoin="round"/>
<path d="M239.294 328.301H269.451" stroke="#869892" stroke-width="3.12" stroke-linecap="round" stroke-linejoin="round"/>
<path d="M337.113 337.91H360.042" stroke="#869892" stroke-width="3.12" stroke-linecap="round" stroke-linejoin="round"/>
<path d="M239.294 337.91H327.178" stroke="#869892" stroke-width="3.12" stroke-linecap="round" stroke-linejoin="round"/>
<path d="M239.294 347.531H360.043" stroke="#869892" stroke-width="3.12" stroke-linecap="round" stroke-linejoin="round"/>
<path d="M321.654 357.14H360.042" stroke="#869892" stroke-width="3.12" stroke-linecap="round" stroke-linejoin="round"/>
<path d="M239.294 357.14H312.106" stroke="#869892" stroke-width="3.12" stroke-linecap="round" stroke-linejoin="round"/>
<path d="M279.35 328.301H360.042" stroke="#869892" stroke-width="3.12" stroke-linecap="round" stroke-linejoin="round"/>
<path d="M226.578 121.723H204.012C202.61 121.723 201.474 122.859 201.474 124.261V146.827C201.474 148.229 202.61 149.366 204.012 149.366H226.578C227.98 149.366 229.116 148.229 229.116 146.827V124.261C229.116 122.859 227.98 121.723 226.578 121.723Z" stroke="#3F8069" stroke-width="1.16" stroke-miterlimit="10"/>
<path d="M226.578 190.606H204.012C202.61 190.606 201.474 191.743 201.474 193.144V215.711C201.474 217.113 202.61 218.249 204.012 218.249H226.578C227.98 218.249 229.116 217.113 229.116 215.711V193.144C229.116 191.743 227.98 190.606 226.578 190.606Z" stroke="#3F8069" stroke-width="1.16" stroke-miterlimit="10"/>
<path d="M226.578 259.478H204.012C202.61 259.478 201.474 260.614 201.474 262.016V284.582C201.474 285.984 202.61 287.121 204.012 287.121H226.578C227.98 287.121 229.116 285.984 229.116 284.582V262.016C229.116 260.614 227.98 259.478 226.578 259.478Z" stroke="#3F8069" stroke-width="1.16" stroke-miterlimit="10"/>
<path d="M226.578 328.349H204.012C202.61 328.349 201.474 329.486 201.474 330.887V353.454C201.474 354.856 202.61 355.992 204.012 355.992H226.578C227.98 355.992 229.116 354.856 229.116 353.454V330.887C229.116 329.486 227.98 328.349 226.578 328.349Z" stroke="#3F8069" stroke-width="1.16" stroke-miterlimit="10"/>
<path d="M204.882 130.679L215.301 143.261L235.341 111.63" stroke="#2AC28C" stroke-width="3.47" stroke-linecap="round" stroke-linejoin="round"/>
<path d="M204.882 198.982L215.301 211.565L235.341 179.933" stroke="#2AC28C" stroke-width="3.47" stroke-linecap="round" stroke-linejoin="round"/>
<path d="M158.251 395.504C158.251 396.858 143.034 397.922 124.263 397.922C105.492 397.922 90.2861 396.822 90.2861 395.504C90.2861 394.187 105.504 393.087 124.263 393.087C143.022 393.087 158.251 394.175 158.251 395.504Z" fill="#C7DADB"/>
<path d="M130.039 255.054C130.179 255.717 130.526 256.318 131.03 256.77C131.594 257.282 132.304 257.603 133.061 257.689C135.055 257.906 138.149 258.329 141.425 258.765C145.85 259.464 150.315 259.879 154.793 260.01C156.235 260.053 157.673 259.853 159.048 259.417H159.181C159.543 259.103 159.555 258.269 159.447 257.423C159.338 256.577 159.108 255.574 159.084 255.332C158.996 254.451 158.626 253.623 158.029 252.97C157.433 252.316 156.641 251.873 155.772 251.706C155.59 251.657 155.404 251.621 155.216 251.597C155.092 251.566 154.971 251.525 154.854 251.476C149.934 249.917 144.362 249.53 140.772 248.926C139.049 248.632 137.283 248.722 135.599 249.192C134.451 249.509 133.365 250.015 132.384 250.69C130.873 251.79 129.652 253.241 130.039 255.054Z" fill="white"/>
<path d="M154.153 257.411C154.273 257.746 154.444 258.06 154.661 258.342C154.751 258.456 154.848 258.565 154.951 258.668C155.455 259.071 156.038 259.365 156.663 259.529C157.287 259.693 157.939 259.725 158.577 259.623L159.024 259.466L159.181 259.393C162.324 258.064 168.996 253.18 173.565 249.724C176.284 247.633 178.254 246.098 178.254 246.098L177.855 245.481L176.236 243.064C176.236 243.064 166.095 247.898 161.308 249.53C159.383 250.108 157.517 250.869 155.736 251.803C155.557 251.906 155.383 252.018 155.217 252.141C154.627 252.868 154.223 253.728 154.038 254.645C153.852 255.563 153.892 256.512 154.153 257.411V257.411Z" fill="#35AAD3"/>
<path d="M141.425 258.801C145.851 259.488 150.316 259.891 154.793 260.009C156.234 260.053 157.673 259.853 159.048 259.417H159.181C162.323 258.088 168.995 253.204 173.564 249.748C172.899 250.146 164.269 255.163 159.446 257.459C158.572 257.909 157.657 258.277 156.715 258.559C156.125 258.669 155.526 258.726 154.926 258.728H154.66C152.471 258.697 150.325 258.112 148.423 257.028C146.521 255.943 144.924 254.395 143.782 252.528C143.15 251.499 142.438 250.521 141.654 249.603C141.654 249.603 141.522 254.933 141.425 258.801Z" fill="#2496B5"/>
<path d="M156.849 251.174C156.849 251.174 156.063 251.742 153.754 251.174C151.446 250.606 153.875 253.422 153.875 253.422L157.501 253.192L157.816 252.262L156.849 251.174Z" fill="white"/>
<path d="M120.141 277.608C121.128 280.127 121.342 282.883 120.758 285.525C119.549 290.783 120.915 291.133 120.915 291.133C125.024 293.708 129.396 295.835 133.957 297.479C138.211 298.797 141.825 298.579 141.729 293.853C141.729 293.563 141.729 293.297 141.729 293.031C141.523 282.491 143.723 281.959 144.267 270.163C144.823 258.076 144.702 250.908 140.822 248.95C136.604 246.823 130.79 245.324 122.559 247.306C116.37 248.769 114.328 250.412 114.388 254.993C114.454 256.886 114.677 258.77 115.053 260.626C116.249 266.425 117.952 272.107 120.141 277.608V277.608Z" fill="#B9DACA"/>
<path d="M120.141 277.608C121.127 280.127 121.342 282.883 120.757 285.525C119.548 290.783 120.914 291.133 120.914 291.133C125.023 293.708 129.395 295.835 133.956 297.479L139.492 296.959L141.716 295.219V293.853C141.716 293.563 141.716 293.297 141.716 293.031C138.928 293.242 136.125 293.17 133.352 292.814C130.547 292.46 127.796 291.771 125.157 290.759C124.459 290.496 123.875 289.996 123.508 289.346C123.141 288.697 123.015 287.939 123.15 287.205C123.596 284.779 123.85 282.322 123.912 279.856C123.62 276.767 122.959 273.723 121.942 270.791C121.287 268.623 121.037 266.353 121.204 264.095C121.367 261.551 121.367 259 121.204 256.456L116.817 254.039L114.399 254.957C114.466 256.85 114.688 258.734 115.064 260.59C116.255 266.4 117.953 272.095 120.141 277.608V277.608Z" fill="#8EAB9D"/>
<path d="M139.951 234.494C139.142 234.82 139.48 237.564 139.323 238.446C139.166 239.329 138.537 242.773 136.724 243.281C134.911 243.789 133.799 243.946 133.799 244.248C133.799 244.55 133.799 245.009 133.884 245.638C133.884 245.904 133.884 246.17 133.944 246.387C134.005 246.605 133.944 246.508 133.944 246.557C133.95 246.605 133.95 246.654 133.944 246.702C133.973 247.135 133.92 247.569 133.787 247.983L132.578 248.769C132.502 248.86 132.408 248.935 132.302 248.989C132.196 249.043 132.081 249.075 131.962 249.083L130.753 249.18C130.665 249.192 130.576 249.192 130.487 249.18L129.786 248.974C129.69 248.551 129.617 248.225 129.605 248.213C129.593 248.2 127.393 246.75 126.124 245.916C126.085 244.844 125.993 243.775 125.846 242.713C125.761 242.387 124.831 240.586 123.864 238.446C123.779 238.265 123.695 238.084 123.622 237.902C123.404 237.419 123.199 236.923 122.993 236.428C122.96 236.366 122.932 236.301 122.909 236.234C122.264 234.761 121.856 233.194 121.7 231.593C121.7 228.426 121.809 225.114 123.767 223.483C125.725 221.851 137.993 216.037 138.404 225.586C138.404 225.646 138.404 225.695 138.404 225.755C138.952 227.944 139.663 230.09 140.532 232.173C140.675 232.354 140.775 232.566 140.823 232.792C140.872 233.018 140.868 233.252 140.812 233.476C140.756 233.7 140.649 233.908 140.5 234.085C140.351 234.261 140.163 234.401 139.951 234.494V234.494Z" fill="#B4BDB8"/>
<path d="M133.812 247.995L133.691 248.587C133.651 248.79 133.54 248.971 133.379 249.1C133.217 249.228 133.015 249.295 132.809 249.288L130.705 249.204H130.5L129.799 248.998C129.702 248.575 129.63 248.249 129.618 248.237C129.606 248.225 127.406 246.774 126.137 245.94C126.098 244.869 126.005 243.799 125.859 242.737C125.774 242.411 124.843 240.61 123.876 238.47C123.792 238.289 123.707 238.108 123.635 237.927C123.417 237.443 123.212 236.948 123.006 236.452C122.976 236.317 122.976 236.176 123.006 236.041L123.091 235.098C123.106 234.899 123.191 234.712 123.33 234.568C123.469 234.425 123.654 234.334 123.852 234.313C124.892 234.192 126.753 233.986 126.85 233.998C127.325 234.728 127.73 235.501 128.058 236.307C128.058 236.404 127.539 237.999 127.394 238.434C127.387 238.507 127.387 238.579 127.394 238.652C127.394 239.135 127.309 241.069 127.394 242.943C127.408 243.577 127.588 244.197 127.917 244.74C128.246 245.283 128.711 245.73 129.267 246.037L129.424 246.122C130.837 246.856 132.304 247.482 133.812 247.995V247.995Z" fill="#8D9F97"/>
<path d="M140.446 235.364C143.081 237.782 140.229 242.943 139.383 243.68C138.537 244.417 132.493 246.255 129.024 242.919C128.394 242.318 127.889 241.6 127.538 240.803V240.803C126.948 239.291 126.672 237.675 126.728 236.053L125.737 236.295C125.637 237.961 125.694 239.632 125.906 241.287C125.905 241.455 125.855 241.618 125.762 241.758C125.669 241.897 125.538 242.007 125.383 242.072C125.229 242.138 125.059 242.157 124.894 242.127C124.729 242.097 124.577 242.019 124.455 241.903C122.884 240.368 120.503 236.996 119.693 230.227C118.484 219.82 128.879 219.107 131.224 219.349C133.015 219.578 134.834 219.455 136.579 218.986C142.441 215.602 141.897 221.634 141.063 223.906C140.785 224.679 140.156 225.658 140.023 226.009C140.015 226.877 140.063 227.746 140.168 228.608C140.155 228.824 140.091 229.033 139.981 229.22C139.872 229.407 139.721 229.565 139.54 229.683C139.54 229.683 138.948 227.737 138.875 227.459L138.464 225.997C138.445 225.938 138.414 225.884 138.372 225.838C138.33 225.792 138.279 225.756 138.222 225.731C137.986 225.646 137.743 225.578 137.497 225.526C136.475 225.382 135.446 225.297 134.415 225.272C134.229 225.262 134.043 225.289 133.868 225.351C133.693 225.413 133.531 225.509 133.393 225.634C133.255 225.759 133.143 225.909 133.063 226.077C132.983 226.245 132.938 226.428 132.928 226.613C132.783 229.865 131.115 230.457 130.354 230.554C130.248 230.564 130.15 230.611 130.075 230.686C130 230.761 129.953 230.859 129.943 230.965C129.435 234.929 130.958 237.153 131.611 237.262C132.264 237.371 134.355 235.606 134.355 235.606C134.355 235.606 137.848 232.971 140.446 235.364Z" fill="#3A4744"/>
<path d="M127.054 233.418C127.054 233.418 126.897 231.641 125.531 231.883C123.912 232.185 123.114 235.956 125.604 236.875C125.732 236.919 125.869 236.932 126.003 236.913C126.137 236.894 126.264 236.843 126.375 236.766C126.486 236.688 126.577 236.585 126.64 236.465C126.704 236.346 126.738 236.213 126.74 236.077C126.752 235.182 126.857 234.291 127.054 233.418V233.418Z" fill="#8D9F97"/>
<path d="M135.08 251.694C135.08 251.694 141.498 272.737 140.216 282.805L137.799 287.108L135.225 282.419C135.225 282.419 137.328 262.27 133.303 252.044L135.08 251.694Z" fill="#3F8069"/>
<path d="M135.528 249.905V250.183C135.469 250.705 135.331 251.214 135.117 251.694L133.388 252.044L131.865 250.92L133.606 248.902L133.872 248.974C134.495 249.131 135.069 249.443 135.54 249.881L135.528 249.905Z" fill="#3F8069"/>
<path d="M126.088 245.082C126.088 245.082 125.652 245.602 124.879 246.847C125.64 247.136 126.376 247.488 127.079 247.898C127.985 248.454 132.337 251.524 132.337 251.524L133.618 248.889C131.235 247.383 128.714 246.108 126.088 245.082Z" fill="#D1E5DC"/>
<path d="M133.568 248.902C134.414 249.189 135.125 249.779 135.563 250.558C135.956 249.432 135.994 248.212 135.671 247.064C135.315 246.278 134.671 245.659 133.871 245.336L133.568 248.902Z" fill="#D1E5DC"/>
<path d="M140.35 388.457C140.673 389.275 140.853 390.142 140.882 391.02C140.797 392.035 137.558 392.12 137.183 391.588C136.809 391.056 136.615 386.391 136.615 386.391" fill="#B4BDB8"/>
<path d="M136.325 392.482C136.364 393.419 136.465 394.352 136.627 395.275H140.362L140.544 394.646C141.217 394.994 141.952 395.208 142.707 395.275H145.862C148.158 395.275 149.488 394.984 149.488 394.573C149.73 392.881 146.974 392.954 146.249 392.954C144.194 392.954 141.958 391.987 141.414 390.947C141.063 390.186 141.22 389.993 140.785 390.138C140.65 390.182 140.524 390.253 140.416 390.346C140.309 390.44 140.22 390.554 140.157 390.681C139.984 391.043 139.702 391.34 139.35 391.531C138.999 391.722 138.596 391.797 138.199 391.745C137.742 391.676 137.32 391.464 136.99 391.141C136.761 391.275 136.576 391.474 136.457 391.712C136.339 391.951 136.293 392.218 136.325 392.482V392.482Z" fill="#313836"/>
<path d="M104.017 384.94C103.714 386.171 103.335 387.382 102.881 388.566C102.434 389.485 99.3998 388.349 99.2547 387.72C99.1097 387.092 100.657 382.68 100.657 382.68" fill="#B4BDB8"/>
<path d="M98.1431 388.264C97.7442 389.243 97.1641 391.153 97.1641 391.153L99.9924 392.845L100.548 392.422C100.939 393.033 101.443 393.563 102.035 393.981C102.915 394.501 103.857 394.907 104.839 395.19C107.426 395.782 109.432 395.492 109.674 395.19C110.532 393.703 107.112 392.893 106.435 392.628C105.666 392.31 104.997 391.793 104.495 391.13C103.994 390.467 103.679 389.682 103.582 388.856C103.582 388.01 103.751 387.889 103.304 387.865C103.159 387.856 103.014 387.876 102.877 387.924C102.74 387.971 102.614 388.046 102.506 388.143C102.216 388.416 101.846 388.589 101.45 388.636C101.055 388.684 100.654 388.605 100.307 388.409C99.8904 388.177 99.5599 387.817 99.3639 387.382C99.0955 387.39 98.8356 387.478 98.618 387.636C98.4003 387.793 98.2349 388.012 98.1431 388.264V388.264Z" fill="#313836"/>
<path d="M117.143 312.104C117.143 312.104 112.066 299.957 120.914 291.133C120.914 291.133 128.468 294.518 134.512 294.929C136.903 295.155 139.313 295.098 141.691 294.759C142.938 302.493 143.364 310.337 142.961 318.16L117.143 312.104Z" fill="#485953"/>
<path d="M136.18 389.63H136.627C138.282 389.679 139.937 389.565 141.57 389.291V388.385C141.389 374.473 143.081 351.737 143.408 344.558C143.446 344.099 143.446 343.638 143.408 343.18C142.864 337.922 137.364 338.611 135.14 343.446C134.585 344.636 134.151 345.879 133.847 347.156C133.431 348.884 133.153 350.642 133.013 352.414C131.901 364.429 135.249 380.661 136.18 389.63Z" fill="#485953"/>
<path d="M126.752 317.712C126.752 317.857 126.752 318.015 126.836 318.16C128.045 324.493 131.949 341.608 133.798 347.168C134.038 347.628 134.381 348.026 134.8 348.33C135.22 348.634 135.704 348.837 136.216 348.921C138.96 349.67 143.033 348.643 143.383 343.192C143.437 342.536 143.437 341.877 143.383 341.222C143.154 338.381 142.96 326.234 143.009 318.16C142.943 315.389 142.537 312.637 141.8 309.965C141.607 307.547 141.184 304.151 139.939 303.716C133.726 301.564 125.12 308.853 126.752 317.712Z" fill="#485953"/>
<path d="M132.965 352.426C131.901 364.429 135.249 380.661 136.18 389.63H136.627C136.627 389.63 135.854 375.428 134.585 365.589C133.908 359.978 134.457 354.287 136.192 348.909C136.446 348.148 136.627 347.7 136.627 347.7L135.092 343.409C133.388 337.825 133.34 324.82 133.34 324.82C137.498 315.658 138.078 304.115 138.078 304.115L134.524 304.61L128.166 312.237L126.837 318.111C128.046 324.445 131.95 341.56 133.799 347.12C133.381 348.864 133.102 350.638 132.965 352.426V352.426Z" fill="#313836"/>
<path d="M132.554 342.902C133.19 346.035 133.329 349.25 132.965 352.426C132.3 357.128 135.213 348.281 135.213 348.281L133.666 345.09L132.554 342.902Z" fill="#1C3059"/>
<path d="M114.351 343.095C118.569 339.143 124.431 341.016 121.687 347.169C118.762 353.744 109.709 371.995 104.766 385.001L104.427 385.847C102.683 385.467 100.983 384.912 99.3506 384.191C101.683 375.73 103.376 361.226 108.234 351.036C109.773 348.039 111.846 345.348 114.351 343.095V343.095Z" fill="#485953"/>
<path d="M138.029 304.175C138.851 294.385 126.655 300.888 120.817 304.115C118.4 305.468 117.445 308.188 117.119 310.751C116.792 313.313 113.625 339.675 112.997 344.485C111.559 355.363 121.035 349.392 121.929 346.395C124.238 338.804 137.642 309.566 138.029 304.175Z" fill="#485953"/>
<path d="M113.855 337.765C113.231 341.953 111.605 345.93 109.117 349.356C109.117 349.356 116.248 346.057 116.587 345.573C117.307 343.622 117.797 341.594 118.049 339.53C117.929 338.998 113.855 337.765 113.855 337.765Z" fill="#485953"/>
<path d="M210.152 192.129L201.848 221.259L98.5773 332.507L97.6224 333.534L87.6991 343.953L68.6621 326.27L79.2261 315.162L81.2809 312.938L182.811 203.575L210.152 192.129Z" fill="#1DA492"/>
<path d="M74.0646 320.451L68.6465 326.29L87.6954 343.966L93.1134 338.127L74.0646 320.451Z" fill="#3F8069"/>
<path d="M79.5052 314.585L74.082 320.419L93.1155 338.112L98.5387 332.278L79.5052 314.585Z" fill="#B9DACA"/>
<path d="M182.812 203.575L201.848 221.259L210.152 192.129L182.812 203.575Z" fill="#C6D5C8"/>
<path d="M200.362 196.227L207.276 202.198L210.153 192.129L200.362 196.227Z" fill="#2AC28C"/>
<g style="mix-blend-mode:multiply">
<path d="M210.152 192.129L197.932 217.621L82.417 339.046L87.699 343.953L201.848 221.259L210.152 192.129Z" fill="#94B5AD"/>
</g>
<g style="mix-blend-mode:multiply" opacity="0.67">
<path d="M128.637 296.488V297.177L127.682 298.204C127.112 298.047 126.6 297.728 126.208 297.286C125.844 296.802 125.528 296.284 125.265 295.739L124.733 296.27C124.733 296.27 113.928 287.81 109.286 279.748L111.232 277.632L113.009 278.333C113.009 278.333 118.206 283.567 118.545 284.051C118.883 284.534 122.558 290.094 122.558 290.094L128.637 296.488Z" fill="#BEC4CC"/>
</g>
<path d="M123.755 294.3L127.151 291.436C127.151 291.436 128.155 293.091 128.892 293.321C129.192 293.308 129.491 293.272 129.786 293.212C130.756 293.27 131.697 293.56 132.53 294.058C133.328 294.433 134.391 294.759 134.428 295.086C134.464 295.412 133.92 295.908 133.352 295.871C133.261 295.864 133.171 295.843 133.086 295.811C133.074 295.926 133.05 296.04 133.013 296.149C132.784 296.863 129.448 301.528 126.136 296.452C125.468 295.607 124.663 294.88 123.755 294.3V294.3Z" fill="#B4BDB8"/>
<path d="M122.025 261.134C120.901 264.591 119.705 270.054 117.444 274.683C117.401 274.782 117.352 274.879 117.299 274.973V275.034C117.254 275.207 117.198 275.376 117.13 275.541C116.841 276.374 116.293 277.091 115.567 277.59C114.84 278.088 113.973 278.34 113.093 278.309H112.235C111.675 278.34 111.114 278.34 110.555 278.309C109.854 278.309 109.237 278.128 109.032 277.777C108.994 277.663 108.965 277.546 108.947 277.427C108.94 277.363 108.94 277.298 108.947 277.234C108.94 277.165 108.94 277.096 108.947 277.028C108.947 276.835 108.947 276.641 108.947 276.448C108.941 276.351 108.941 276.254 108.947 276.158C108.903 275.206 108.927 274.253 109.02 273.305C109.382 269.413 113.226 257.23 114.531 252.153C114.72 251.414 115.144 250.756 115.74 250.28C116.254 249.846 116.894 249.592 117.565 249.554H117.879C119.584 249.554 120.756 250.944 121.506 252.552C122.029 253.611 122.368 254.751 122.509 255.924C122.735 257.675 122.57 259.454 122.025 261.134V261.134Z" fill="#B9DACA"/>
<path d="M127.877 293.067L125.749 294.989L125.193 295.473C125.193 295.473 120.878 291.726 117.518 288.559C114.206 285.666 111.417 282.223 109.275 278.382C109.178 278.2 109.082 277.995 108.997 277.814C108.959 277.699 108.931 277.582 108.912 277.463C108.906 277.399 108.906 277.334 108.912 277.27C108.906 277.201 108.906 277.132 108.912 277.064C108.912 276.871 108.912 276.677 108.912 276.484C108.906 276.387 108.906 276.291 108.912 276.194C108.901 275.368 109.179 274.564 109.698 273.922L109.855 273.74C110.105 273.494 110.39 273.286 110.701 273.124C110.902 273.015 111.112 272.926 111.33 272.858C112.137 272.625 112.983 272.562 113.816 272.675C114.648 272.787 115.448 273.072 116.165 273.511C116.297 273.644 116.442 273.789 116.575 273.946C116.708 274.103 117.168 274.611 117.47 274.985C118.409 276.172 119.189 277.477 119.791 278.865C121.676 283.603 127.877 293.067 127.877 293.067Z" fill="#B9DACA"/>
<path d="M178.532 246.363C178.532 246.363 183.718 242.737 183.947 240.006C184.201 236.96 182.062 235.497 180.647 237.177C178.436 239.812 179.028 244.587 179.028 244.587L178.532 246.363V246.363Z" fill="#B4BDB8"/>
<path d="M125.748 294.989L125.192 295.473C125.192 295.473 120.877 291.726 117.517 288.559C114.204 285.666 111.415 282.223 109.273 278.382C109.177 278.201 109.08 277.995 108.995 277.814C108.957 277.7 108.929 277.582 108.911 277.463C108.904 277.399 108.904 277.334 108.911 277.27C108.904 277.201 108.904 277.133 108.911 277.064C108.911 276.871 108.911 276.678 108.911 276.484C108.905 276.388 108.905 276.291 108.911 276.194C108.877 275.23 108.913 274.264 109.02 273.305C109.382 269.413 113.226 257.23 114.531 252.153C114.719 251.414 115.144 250.756 115.74 250.28C116.253 249.846 116.894 249.592 117.565 249.554H117.879C117.069 250.86 115.921 253.495 114.628 258.777C112.912 265.823 111.703 270.078 111.219 272.81C110.995 273.772 110.922 274.762 111.002 275.747C111.268 276.659 111.676 277.524 112.21 278.309C115.16 283.253 122.678 292.886 125.748 294.989Z" fill="#8EAB9D"/>
</svg>
