<svg width="48" height="48" viewBox="0 0 48 48" fill="none" xmlns="http://www.w3.org/2000/svg">
<circle cx="24" cy="24" r="23.5" stroke="#313836"/>
<path d="M24.231 21.998V26.3419H30.5456C29.7199 28.9737 27.4758 30.8574 24.231 30.8574C20.3668 30.8574 17.2345 27.7868 17.2345 24C17.2345 20.2132 20.3668 17.1426 24.231 17.1426C25.9682 17.1426 27.5547 17.7667 28.7782 18.7944L32.0416 15.5953C29.9808 13.7548 27.2392 12.6316 24.231 12.6316C17.8248 12.6316 12.6316 17.7212 12.6316 24C12.6316 30.2788 17.8248 35.3684 24.231 35.3684C33.9679 35.3684 36.1168 26.4442 35.1623 22.0128L24.231 21.998Z" fill="#313836"/>
</svg>
