<svg width="613" height="321" viewBox="0 0 613 321" fill="none" xmlns="http://www.w3.org/2000/svg">
<path d="M557.546 308.508C546.898 308.508 525.075 309.385 524.843 309.787H469.824L453.721 309.748H309.535L267.426 309.706H156.42L110.053 309.667H26.2069C26.2069 309.667 26.068 309.346 25.7901 308.704L25.7444 308.623C25.7444 308.623 25.6988 308.542 25.6988 308.503C25.5142 308.182 -44.0749 180.714 70.8193 117.876C115.773 93.2898 92.0845 44.1961 158.619 14.4559C244.404 -23.8885 267.787 31.8257 369.226 18.3561C457.328 6.65769 497.47 43.9167 491.288 99.3284C488.384 125.355 508.323 145.307 527.992 148.886C582.257 158.758 580.312 216.585 575.876 259.072C573.141 285.263 557.923 308.508 557.546 308.508Z" fill="#DAE6E3"/>
<ellipse cx="306.5" cy="307.465" rx="306.413" ry="13.2854" fill="#C7DADB"/>
<path d="M234.799 208.3C234.799 208.3 233.988 207.314 232.773 207.009C231.559 206.704 228.931 205.42 229.236 206.092C229.54 206.764 231.007 207.559 230.762 208.048C230.762 208.048 226.587 206.887 226.465 207.621C226.342 208.353 227.936 211.154 229.723 211.757C230.314 211.955 234.427 211.166 234.427 211.166L234.799 208.3Z" fill="#8D9F97"/>
<path d="M369.099 220.677C369.099 220.677 367.462 218.892 365.275 219.176C364.157 219.322 362.543 217.564 362.624 218.705C362.705 219.846 364.324 222.485 364.873 222.938C365.954 223.827 368.328 223.534 368.328 223.534L371.24 225.328L369.099 220.677Z" fill="#B4BDB8"/>
<path d="M21.3557 172.138C21.3557 172.138 9.29706 184.642 8.72669 189.348C8.15631 194.054 14.5043 201.402 14.5043 201.402L21.3557 172.138Z" fill="#1B5F56"/>
<path d="M26.8037 301.723C26.8037 301.723 27.2286 308.355 28.5125 308.448C28.6834 308.459 35.0222 308.445 35.0222 308.445L43.1136 308.381C43.1136 308.381 43.0559 306.432 40.6913 306.023C38.3243 305.617 34.364 303.963 32.9231 300.839C31.4083 297.555 26.8037 301.723 26.8037 301.723Z" fill="#313836"/>
<path d="M8.78125 301.762C8.78125 301.762 9.20615 308.395 10.4901 308.487C10.6609 308.498 16.9997 308.485 16.9997 308.485L25.0912 308.42C25.0912 308.42 25.0334 306.471 22.6688 306.062C20.3019 305.656 16.3416 304.002 14.9006 300.878C13.3858 297.594 8.78125 301.762 8.78125 301.762Z" fill="#313836"/>
<path d="M35.6108 230.413C35.6108 230.413 33.5233 243.952 25.6812 267.995C17.8392 292.038 16.7862 302.444 16.7862 302.444L8.31601 302.224C8.31601 302.224 8.18669 275.966 11.7983 263.878C15.4099 251.789 12.4887 220.321 12.4887 220.321L35.6108 230.413Z" fill="#313836"/>
<path d="M39.7091 221.003C39.7091 221.003 40.0532 241.398 36.5778 266.446C33.1025 291.496 34.3217 302.123 34.3217 302.123L25.8701 302.423C25.8701 302.423 20.7644 277.382 22.1846 264.845C23.6047 252.309 15.1738 221.85 15.1738 221.85L39.7091 221.003Z" fill="#485953"/>
<path d="M23.2441 173.311L27.754 176.253L34.259 175.026C34.1667 174.502 33.7326 172.325 33.3377 170.353C33.3146 170.237 33.2892 170.119 33.2684 170.006C32.9289 168.33 32.638 166.889 32.638 166.889L26.5532 164.219L24.2856 163.224C24.2925 163.259 24.4657 165.085 24.4888 165.353C24.9252 170.089 23.2441 173.311 23.2441 173.311Z" fill="#B4BDB8"/>
<path d="M32.5852 171.801C32.4582 171.747 24.7432 169.489 23.9072 169.768C23.0713 170.048 22.5771 171.669 22.5771 171.669L35.1946 174.493C35.1969 174.493 34.1994 172.477 32.5852 171.801Z" fill="#1B5F56"/>
<path d="M11.9375 223.582C13.2584 229.542 35.0111 230.202 40.6063 224.778C41.2436 224.159 41.2667 221.289 41.0196 217.421C40.5324 209.861 38.9968 198.492 38.9252 192.68C38.8906 189.874 38.498 187.004 37.9784 184.399C36.8746 178.848 35.1981 174.493 35.1981 174.493C35.1981 174.493 24.5666 171.082 22.5806 171.669C13.009 174.504 10.6167 217.622 11.9375 223.582Z" fill="#1DA492"/>
<path d="M41.0174 217.419C40.5302 209.858 38.9946 198.49 38.923 192.678C38.8884 189.872 38.4958 187.002 37.9762 184.397L31.582 183.284C31.5843 183.284 25.3911 208.822 41.0174 217.419Z" fill="#1B5F56"/>
<path d="M37.5348 206.889C37.5348 206.889 37.1007 207.93 38.0175 208.628C38.9342 209.325 39.53 210.457 39.3222 211.283C39.1143 212.112 37.1099 213.465 36.4149 213.251C35.7198 213.034 34.2996 211.948 34.4521 211.51C34.6045 211.073 33.4914 207.681 35.1841 206.369C36.8767 205.06 37.5348 206.889 37.5348 206.889Z" fill="#B4BDB8"/>
<path d="M30.3134 172.973C30.3134 172.973 36.5482 174.126 41.5315 181.434C46.5148 188.743 49.7938 194.177 48.884 196.816C47.9742 199.455 39.6564 208.623 38.2178 208.625C36.7792 208.628 34.4584 207.588 34.3222 205.235C34.3222 205.235 39.8158 196.091 38.6565 194.775C38.1601 194.214 31.3802 188.773 30.3665 191.389C28.6923 195.719 30.3134 172.973 30.3134 172.973Z" fill="#1DA492"/>
<path d="M24.9471 165.436C26.2865 167.695 31.2651 169.639 33.3411 170.353C33.318 170.237 33.2926 170.119 33.2718 170.006C32.9323 168.33 32.6414 166.889 32.6414 166.889L26.5566 164.219C25.2104 164.205 24.3929 164.508 24.9471 165.436Z" fill="#8D9F97"/>
<path d="M34.9312 166.515C34.9312 166.515 25.1471 169.591 23.3251 163.467C21.5032 157.345 19.0138 153.618 25.184 151.394C31.3542 149.173 33.2686 151.145 34.3724 153.041C35.4785 154.939 37.4274 165.556 34.9312 166.515Z" fill="#B4BDB8"/>
<path d="M33.9855 152.454C33.9855 152.454 33.3759 159.585 31.9026 159.278C30.4271 158.971 29.09 158.744 29.3094 160.894C29.5311 163.042 31.5794 165.519 27.0372 165.91C22.4949 166.3 15.9368 154.595 17.1792 152.373C20.7677 145.965 39.1743 144.633 33.9855 152.454Z" fill="#3A4744"/>
<path d="M545.565 197.176C545.565 197.176 544.731 195.8 544.221 195.038C543.711 194.276 542.695 193.327 542.434 193.572C542.173 193.816 543.214 194.823 543.168 195.16C543.122 195.497 541.376 194.366 541.189 194.112C540.81 193.602 539.813 193.052 539.69 193.694C539.568 194.336 540.309 196.352 540.646 196.931C540.983 197.511 542.39 198.428 543.168 198.703C543.946 198.977 545.279 199.619 545.279 199.619L545.565 197.176Z" fill="#8D9F97"/>
<path d="M580.95 151.937C577.974 150.392 575.588 151.364 575.588 151.364C566.481 150.295 563.823 160.917 563.945 164.573C564.068 168.228 564.485 172.154 560.417 176.901C548.667 190.618 573.274 191.223 573.274 191.223C573.482 180.264 586.619 184.263 586.044 185.374C602.885 189.413 587.721 155.449 580.95 151.937Z" fill="#3A4744"/>
<path d="M568.978 198.412C568.978 198.412 568.108 200.137 566.528 202.116C564.626 204.499 561.691 207.254 558.005 207.799C556.245 208.057 554.523 207.679 552.941 206.977C552.936 206.974 552.936 206.974 552.936 206.974C548.461 204.988 545.097 200.418 545.097 200.418C544.307 198.266 545.598 196.809 545.598 196.809C545.598 196.809 554.634 198.841 555.495 198.412C556.356 197.982 561.377 183.517 562.57 181.7C563.767 179.883 567.84 178.938 567.84 178.938L568.978 198.412Z" fill="#1DA492"/>
<path d="M566.529 202.116C564.626 204.499 561.691 207.254 558.005 207.799C556.246 208.057 554.523 207.679 552.941 206.977C553.117 207 557.585 207.552 559.368 204.365C561.185 201.114 563.15 195.948 565.85 197.671C567.016 198.412 566.963 200.259 566.529 202.116Z" fill="#1B5F56"/>
<path d="M602.693 295.96C602.693 295.96 605.45 298.477 604.912 300.264C604.374 302.051 601.885 303.245 601.55 305.43C601.213 307.614 599.869 308.808 598.659 308.808C597.449 308.808 592.888 308.808 592.888 308.808C592.888 308.808 591.997 307.27 594.149 306.806C596.301 306.342 597.112 303.774 596.978 301.391C596.844 299.008 597.179 295.828 597.179 295.828L601.751 294.768L602.693 295.96Z" fill="#313836"/>
<path d="M579.354 297.029C579.354 297.029 580.347 307.69 579.135 308.286L563.643 308.254C563.643 308.254 563.643 306.466 566.132 306.069C568.621 305.672 572.993 304.215 573.731 300.97C574.47 297.726 579.354 297.029 579.354 297.029Z" fill="#313836"/>
<path d="M590.394 220.545C587.205 213.396 585.256 211.343 585.628 209.124C585.905 207.473 584.782 178.329 584.782 178.329C584.404 178.211 583.646 178.107 583.231 178.015C581.924 177.724 580.84 176.804 580.39 175.544C579.848 174.024 579.416 171.78 579.427 168.967L579.019 169.048L572.151 170.408C572.151 170.408 572.308 172.569 572.313 174.604C572.313 174.62 572.313 174.638 572.313 174.655C572.322 176.423 571.16 177.984 569.463 178.474C568.595 178.723 567.842 178.938 567.842 178.938C567.842 178.938 565.32 186.136 564.838 193.532C564.357 200.929 569.424 204.141 564.798 218.92C560.081 234.015 592.156 224.496 590.394 220.545Z" fill="#B4BDB8"/>
<path d="M572.154 170.408C572.154 170.408 572.311 172.569 572.316 174.604C576.158 174.495 578.191 170.99 579.022 169.048L572.154 170.408Z" fill="#8D9F97"/>
<path d="M570.868 172.336C570.868 172.336 579.96 172.486 579.967 166.822C579.974 161.16 581.151 157.363 575.346 157.029C569.541 156.694 568.411 158.853 567.95 160.742C567.488 162.631 568.504 172.151 570.868 172.336Z" fill="#B4BDB8"/>
<path d="M571.207 156.892C571.207 156.892 573.696 163.536 577.516 164.52C581.335 165.501 582.993 164.478 582.993 164.478C582.993 164.478 580.063 162.15 579.456 158.086C579.456 158.086 573.084 153.729 571.207 156.892Z" fill="#3A4744"/>
<path d="M571.825 157.43C571.825 157.43 569.98 158.121 569.22 159.467C568.477 160.783 567.844 162.527 567.992 164.667C567.992 164.667 566.117 160.151 568.223 157.597C570.458 154.886 571.825 157.43 571.825 157.43Z" fill="#3A4744"/>
<path d="M572.849 168.824C572.849 168.824 572.221 169.648 570.967 169.59C569.956 169.542 569.565 168.664 569.565 168.664C569.565 168.664 571.422 168.217 572.849 168.824Z" fill="#B4BDB8"/>
<path d="M591.272 191.221C591.272 191.221 591.503 194.477 591.272 198.382C591.117 200.97 588.499 204.439 588.127 205.298C587.194 207.45 586.143 207.799 586.143 207.799L578.008 209.791L575.147 210.491L566.127 207.796C566.127 207.796 562.019 196.329 563.668 189.875C565.316 183.42 567.838 178.938 567.838 178.938C567.838 178.938 575.198 186.145 584.781 178.326L591.272 191.221Z" fill="#1DA492"/>
<path d="M588.891 199.439C588.736 202.028 588.498 204.439 588.129 205.298C587.196 207.45 586.145 207.799 586.145 207.799L578.01 209.792L574.477 208.752C574.477 208.752 586.27 206.965 584.963 196.818L588.891 199.439Z" fill="#1DA492"/>
<path d="M566.704 209.54C566.704 209.54 562.238 223.443 561.949 228.177C561.661 232.911 570.489 295.421 570.842 297.603C571.177 299.659 573.729 300.97 573.729 300.97C573.729 300.97 574.902 301.663 576.578 301.19C578.903 300.534 579.638 299.746 579.638 299.746C579.638 299.746 583.115 255.165 580.963 239.238C578.811 223.312 578.786 209.54 578.786 209.54H566.704Z" fill="#313836"/>
<path d="M585.628 209.124C585.628 209.124 592.442 218.266 593.077 224.446C593.712 230.625 594.075 252.334 595.428 258.359C596.781 264.383 601.753 275.978 601.753 294.768C601.753 294.768 601.236 295.844 599.64 296.419C599.13 296.601 598.446 296.782 597.784 296.932C596.467 297.234 595.116 296.59 594.516 295.382C591.154 288.614 580.446 266.785 579.899 262.254C579.511 259.047 576.13 237.825 568.755 225.372C566.983 222.381 569.842 210.494 569.842 210.494L585.628 209.124Z" fill="#485953"/>
<path d="M572.646 168.974C572.646 168.974 572.489 169.641 570.828 169.537C570.828 169.537 569.434 169.452 569.478 168.718C569.478 168.72 570.829 168.198 572.646 168.974Z" fill="#B4BDB8"/>
<path d="M565.991 207.392C565.991 207.392 567.785 208.81 571.346 208.882C575.602 208.967 586.143 207.796 586.143 207.796C586.143 207.796 586.612 209.106 586.593 210.487C586.593 210.487 573.717 213.736 566.256 210.96C566.256 210.962 565.293 209.152 565.991 207.392Z" fill="#355951"/>
<path d="M570.324 212.549C569.252 212.549 568.382 211.563 568.382 210.35C568.382 209.138 569.252 208.152 570.324 208.152C571.395 208.152 572.266 209.138 572.266 210.35C572.266 211.563 571.395 212.549 570.324 212.549ZM570.324 208.798C569.608 208.798 569.026 209.496 569.026 210.353C569.026 211.209 569.608 211.907 570.324 211.907C571.04 211.907 571.622 211.209 571.622 210.353C571.622 209.496 571.04 208.798 570.324 208.798Z" fill="#F4FFF5"/>
<path d="M584.309 191.855L571.116 203.342L586.842 221.402L600.034 209.915L584.309 191.855Z" fill="#313836"/>
<path d="M583.169 209.949C583.169 209.949 578.04 210.736 578.054 211.884C578.07 213.031 579.114 215.107 580.151 215.271C581.467 215.479 584.085 212.082 584.085 212.082L583.169 209.949Z" fill="#B4BDB8"/>
<path d="M583.06 210.221C583.06 210.221 581.342 209.593 580.081 209.852C578.82 210.11 577.654 209.921 577.943 210.378C578.229 210.838 579.936 210.667 580.206 210.847C580.476 211.027 580.481 210.914 580.481 210.914L583.06 210.221Z" fill="#B4BDB8"/>
<path d="M584.785 178.329C584.785 178.329 591.239 178.781 593.712 184.794C596.185 190.808 600.88 200.906 600.88 202.603C600.88 204.303 598.259 209.537 584.177 212.549C584.177 212.549 582.72 211.018 582.81 209.805C582.81 209.805 591.599 202.254 591.576 201.372C591.532 199.703 590.135 197.5 582.418 189.78C580.319 187.683 584.785 178.329 584.785 178.329Z" fill="#1DA492"/>
<path d="M173.351 308.692C169.956 308.692 166.566 308.394 163.232 307.796C160.181 307.249 157.2 306.455 154.318 305.429C149.82 305.854 145.289 305.864 140.795 305.443C126.947 304.152 114.219 300.003 103.661 293.539C101.151 294.084 98.5624 294.288 95.8999 294.149C89.4272 293.814 83.3009 291.378 77.6895 286.912C72.3552 282.665 67.7484 276.805 63.9959 269.491C57.417 256.671 54.1633 240.559 54.8307 224.125C55.5696 205.921 61.0193 188.42 70.5933 173.516C78.1305 161.783 86.4552 152.673 95.3387 146.438C103.033 141.04 111.367 137.645 120.11 136.35C122.553 135.987 124.966 135.793 127.349 135.74C134.967 131.186 143.733 127.796 152.942 125.912C163.719 123.707 180.105 123.199 196.974 133.288C214.512 143.776 228.543 163.298 238.678 191.309C239.258 192.911 239.796 194.507 240.29 196.103C242.615 197.306 245.125 198.656 247.929 200.167L248.111 200.266C256.872 204.986 270.538 208.764 284.67 210.369C296.454 211.708 313.953 212.175 330.413 206.796C345.795 201.769 356.662 192.786 362.715 180.093L364.038 180.723C357.805 193.793 346.645 203.032 330.868 208.189C314.157 213.65 296.431 213.179 284.504 211.824C270.196 210.198 256.332 206.358 247.414 201.555L247.231 201.455C244.924 200.213 242.825 199.081 240.876 198.058C244.95 212.119 245.74 225.859 243.216 238.991C240.664 252.265 234.752 264.328 226.121 273.881C223.61 276.659 220.913 279.169 218.078 281.379C217.881 281.813 217.678 282.243 217.475 282.665C218.482 284.584 219.084 286.436 218.978 288.037C218.805 290.664 215.821 292.974 210.111 294.902C209.64 295.061 209.155 295.216 208.651 295.368C203.996 300.079 198.371 303.534 191.79 305.711C185.813 307.695 179.572 308.692 173.351 308.692ZM157.8 305.016C159.664 305.561 161.562 306.007 163.49 306.353C172.697 308.007 182.324 307.305 191.33 304.323C196.766 302.525 201.555 299.804 205.649 296.197C197.937 298.125 187.541 299.386 176.339 299.816C175.9 300.005 175.459 300.188 175.016 300.368C169.483 302.617 163.687 304.176 157.8 305.016ZM105.661 293.029C115.78 298.954 127.843 302.765 140.932 303.984C144.324 304.3 147.744 304.367 151.15 304.192C147.421 302.598 143.89 300.606 140.638 298.248C135.362 297.518 130.506 296.571 126.234 295.431C120.638 293.937 116.048 292.126 112.501 290.022C110.3 291.332 108.016 292.336 105.661 293.029ZM143.83 298.654C147.155 300.8 150.739 302.571 154.503 303.938C160.477 303.347 166.386 302.005 172.048 299.943C166.58 300.049 160.98 299.957 155.457 299.65C151.434 299.426 147.543 299.093 143.83 298.654ZM141.218 296.853C145.668 297.456 150.455 297.904 155.54 298.186C162.38 298.564 169.335 298.613 176.002 298.366C180.084 296.594 183.931 294.468 187.49 292.025C185.529 291.895 183.608 291.597 181.745 291.131C177.346 290.027 173.741 287.404 170.79 283.088C166.208 283.22 161.518 282.959 156.759 282.294C145.377 280.703 136.057 277.248 128.894 271.981C127.709 274.061 126.527 275.909 125.375 277.544C128.577 284.393 133.145 290.29 138.99 295.114C139.715 295.715 140.458 296.294 141.218 296.853ZM189.924 292.098C186.797 294.382 183.428 296.424 179.867 298.188C190.882 297.58 200.86 296.153 207.88 294.073C209.261 292.653 210.55 291.119 211.746 289.471C213.134 287.559 214.404 285.48 215.554 283.245C212.06 285.681 208.393 287.665 204.638 289.138C199.678 291.082 194.701 292.075 189.924 292.098ZM113.914 289.129C119.611 292.32 127.933 294.812 138.269 296.424C138.195 296.364 138.124 296.306 138.052 296.246C132.247 291.454 127.665 285.635 124.391 278.897C122.834 280.98 121.347 282.679 119.994 284.053C118.05 286.034 116.02 287.727 113.914 289.129ZM216.648 284.303C214.925 287.577 212.942 290.524 210.702 293.14C214.988 291.551 217.394 289.722 217.512 287.942C217.579 286.94 217.283 285.716 216.648 284.303ZM124.867 137.289C123.264 137.407 121.761 137.587 120.32 137.8C111.803 139.061 103.682 142.372 96.177 147.639C87.4505 153.763 79.2551 162.737 71.8241 174.308C62.391 188.992 57.0221 206.238 56.2924 224.182C55.6343 240.368 58.8325 256.22 65.2983 268.822C68.9538 275.948 73.4313 281.649 78.6016 285.764C83.9705 290.036 89.8151 292.364 95.9738 292.685C97.9712 292.789 99.9271 292.687 101.837 292.387C95.1956 288.046 89.4849 282.758 84.9866 276.666C82.7097 273.583 80.7677 270.339 79.1604 266.954C74.1841 264.275 70.0945 260.393 66.9448 255.347C62.585 248.362 60.2873 239.439 60.2989 229.547C60.3035 225.386 60.7399 221.157 61.5551 217.07C61.1025 205.152 66.0118 191.357 75.4265 178.135C84.4532 165.457 96.2439 155.287 107.769 150.232C109.058 149.667 110.328 149.173 111.582 148.748C113.226 146.861 115.011 145.058 116.932 143.344C119.368 141.171 122.026 139.146 124.867 137.289ZM81.3242 268.018C82.7143 270.711 84.3284 273.306 86.1666 275.793C90.8473 282.13 96.8744 287.582 103.915 291.974C106.393 291.378 108.79 290.431 111.097 289.136C109.416 288.009 108.014 286.803 106.896 285.524C102.924 280.973 99.4214 276.204 96.5187 271.415C94.1056 271.286 91.6902 270.992 89.2794 270.517C86.4368 269.951 83.7835 269.117 81.3242 268.018ZM172.545 283.019C175.184 286.577 178.336 288.764 182.1 289.711C184.462 290.304 186.922 290.611 189.441 290.632C193.669 287.496 197.443 283.901 200.648 279.924C202.343 277.823 203.857 275.643 205.192 273.394C195.507 279.144 184.407 282.411 172.545 283.019ZM207.464 272.376C205.864 275.311 203.971 278.142 201.791 280.846C198.925 284.4 195.618 287.658 191.944 290.563C195.916 290.311 200.01 289.376 204.102 287.773C207.931 286.272 211.67 284.222 215.219 281.689C213.831 279.493 211.838 276.992 209.291 274.269C208.702 273.643 208.095 273.011 207.464 272.376ZM98.2714 271.48C100.992 275.858 104.252 280.264 108.002 284.559C109.157 285.882 110.67 287.129 112.508 288.293C114.743 286.875 116.893 285.118 118.95 283.026C120.398 281.552 122.005 279.698 123.687 277.384C123.243 276.394 122.825 275.384 122.435 274.357C122.029 273.288 121.657 272.202 121.317 271.103C120.788 270.99 120.267 270.861 119.749 270.715C118.44 270.35 117.17 269.882 115.939 269.314C110.224 270.768 104.273 271.613 98.2714 271.48ZM130.84 271.563C137.662 276.255 146.395 279.363 156.962 280.839C161.333 281.451 165.645 281.714 169.864 281.64C167.977 278.502 166.379 274.592 165.026 269.861C164.855 269.26 164.686 268.651 164.525 268.032C162.576 267.764 160.629 267.425 158.685 267.014C156.163 266.482 153.764 265.817 151.496 265.023C146.966 267.226 142.34 269.092 137.77 270.286C135.35 270.921 133.046 271.346 130.84 271.563ZM166.097 268.235C166.208 268.648 166.321 269.055 166.437 269.459C167.862 274.44 169.552 278.46 171.563 281.592C184.236 281.093 196.041 277.511 206.16 271.08C204.172 269.145 201.999 267.175 199.68 265.205C197.551 265.852 195.413 266.411 193.267 266.884C184.296 268.863 175.186 269.316 166.097 268.235ZM208.478 271.316C209.129 271.971 209.755 272.623 210.36 273.267C212.441 275.491 214.711 278.165 216.399 280.823C216.565 280.698 216.729 280.573 216.893 280.446C218.879 275.985 220.438 270.967 221.546 265.436C221.999 263.176 222.38 260.825 222.689 258.379C220.463 261.09 218.011 263.64 215.35 265.993C213.164 267.926 210.871 269.699 208.478 271.316ZM224.419 256.181C224.068 259.522 223.59 262.707 222.985 265.725C222.056 270.348 220.828 274.606 219.299 278.49C221.297 276.779 223.213 274.911 225.031 272.9C233.351 263.691 239.091 252.094 241.655 239.324C239.288 241.776 234.563 246.318 227.894 251.094C226.816 252.84 225.656 254.537 224.419 256.181ZM122.95 271.403C123.215 272.223 123.502 273.034 123.807 273.837C124.081 274.562 124.37 275.278 124.673 275.985C125.552 274.699 126.446 273.285 127.344 271.736C125.834 271.731 124.372 271.62 122.95 271.403ZM122.465 269.838C123.827 270.08 125.238 270.219 126.695 270.253C125.502 269.249 124.377 268.187 123.322 267.069C122.834 267.24 122.345 267.408 121.853 267.572C122.042 268.334 122.246 269.09 122.465 269.838ZM133.348 262.915C132.217 265.58 131.058 267.99 129.891 270.168C132.274 269.99 134.775 269.556 137.399 268.87C141.442 267.815 145.541 266.215 149.587 264.314C146.176 262.963 143.077 261.298 140.304 259.326C138.105 260.55 135.782 261.758 133.348 262.915ZM97.3639 269.985C102.98 270.207 108.561 269.54 113.956 268.293C110.282 266.189 107 263.123 104.155 259.121C102.608 256.945 101.23 254.666 100.024 252.299C96.7219 251.697 93.3851 250.863 90.0206 249.803C89.7851 249.729 89.5519 249.653 89.314 249.577C90.3739 255.869 93.1404 262.871 97.3639 269.985ZM201.329 264.688C203.373 266.448 205.301 268.203 207.083 269.935C208.497 267.092 209.637 264.155 210.501 261.141C207.471 262.501 204.412 263.686 201.329 264.688ZM80.2781 265.882C83.0861 267.339 86.185 268.408 89.5634 269.076C91.577 269.475 93.5953 269.741 95.6135 269.886C94.1495 267.358 92.8563 264.829 91.7525 262.33C89.695 257.671 88.3488 253.191 87.7391 249.036C83.444 247.503 78.9642 245.369 74.9485 242.409C75.1355 250.757 76.9251 258.65 80.2781 265.882ZM124.832 266.522C125.954 267.672 127.157 268.759 128.437 269.782C129.416 267.972 130.39 265.998 131.348 263.841C129.245 264.79 127.067 265.693 124.832 266.522ZM118.237 268.692C119.084 269.006 119.953 269.272 120.842 269.491C120.705 269.004 120.578 268.517 120.456 268.025C119.722 268.258 118.983 268.48 118.237 268.692ZM212.247 260.335C211.466 263.328 210.423 266.249 209.118 269.085C210.935 267.785 212.69 266.388 214.381 264.891C217.572 262.067 220.454 258.959 223.003 255.62C223.047 255.188 223.089 254.752 223.128 254.315C222.121 254.957 221.077 255.595 220.006 256.225C217.449 257.726 214.861 259.098 212.247 260.335ZM101.841 252.609C102.888 254.562 104.058 256.454 105.351 258.271C108.45 262.628 112.011 265.79 116.075 267.769C117.438 267.413 118.786 267.02 120.119 266.598C119.784 265.092 119.505 263.566 119.283 262.016C119.197 261.892 119.114 261.765 119.031 261.638C117.385 259.13 115.997 256.403 114.87 253.461C110.598 253.59 106.252 253.304 101.841 252.609ZM165.7 266.711C174.817 267.859 183.954 267.438 192.951 265.455C194.75 265.058 196.547 264.598 198.334 264.079C192.191 258.98 185.134 253.918 177.877 249.447C176.274 250.443 174.588 251.512 172.833 252.623C170.03 254.401 167.037 256.299 163.915 258.183C164.442 261.169 165.028 264.023 165.7 266.711ZM153.355 264.102C155.154 264.677 157.031 265.169 158.987 265.582C160.701 265.942 162.419 266.249 164.137 266.499C163.555 264.111 163.038 261.601 162.569 258.989C159.59 260.76 156.5 262.504 153.355 264.102ZM121.209 264.637C121.306 265.141 121.41 265.644 121.52 266.143C121.768 266.06 122.012 265.977 122.257 265.894C121.899 265.48 121.548 265.062 121.209 264.637ZM120.689 261.476C121.624 262.839 122.645 264.136 123.747 265.362C126.677 264.296 129.51 263.099 132.214 261.829C133.136 259.624 134.036 257.243 134.902 254.673C134.598 254.357 134.3 254.034 134.006 253.706C133.159 252.757 132.362 251.761 131.619 250.724C130.935 250.932 130.247 251.129 129.557 251.316C126.458 252.147 123.308 252.738 120.11 253.094C120.123 255.957 120.315 258.751 120.689 261.476ZM62.1739 222.578C61.9084 224.896 61.7698 227.231 61.7652 229.547C61.7537 239.165 63.9728 247.817 68.1871 254.569C70.8219 258.793 74.1472 262.16 78.1282 264.654C75.0662 257.4 73.5006 249.54 73.4659 241.259C68.0924 236.874 63.7557 230.849 62.1739 222.578ZM179.276 248.586C186.661 253.177 193.819 258.363 200.013 263.568C203.71 262.409 207.374 260.984 210.991 259.305C212.328 253.89 212.785 248.242 212.344 242.474C210.106 244.307 207.744 245.774 205.298 246.824C198.733 249.648 192.766 249.75 187.561 247.129C186.598 246.644 185.672 246.076 184.781 245.429C183.102 246.302 181.26 247.376 179.276 248.586ZM141.721 258.527C144.601 260.497 147.836 262.137 151.409 263.439C155.131 261.603 158.791 259.541 162.301 257.442C161.659 253.653 161.109 249.664 160.611 245.533C157.937 247.699 155.177 249.787 152.385 251.745C149.427 253.819 145.82 256.179 141.721 258.527ZM136.059 255.828C135.45 257.601 134.824 259.285 134.184 260.883C135.849 260.063 137.463 259.218 139.01 258.368C137.978 257.567 136.994 256.721 136.059 255.828ZM116.417 253.398C117.138 255.218 117.962 256.95 118.89 258.592C118.738 256.835 118.655 255.052 118.643 253.241C117.904 253.306 117.163 253.359 116.417 253.398ZM213.715 241.289C214.277 247.175 213.928 252.946 212.69 258.493C214.9 257.412 217.092 256.234 219.26 254.96C220.657 254.14 221.996 253.306 223.278 252.473C223.821 245.254 223.8 237.333 223.216 228.743C220.558 233.759 217.322 238.012 213.715 241.289ZM136.577 254.288C137.766 255.468 139.043 256.569 140.407 257.59C144.705 255.158 148.476 252.696 151.542 250.544C154.651 248.362 157.616 246.099 160.405 243.815C160.255 242.541 160.112 241.254 159.969 239.954C158.341 239.245 156.752 238.601 155.205 238.024C149.88 242.307 144.262 245.723 138.401 248.244C137.817 250.36 137.207 252.373 136.577 254.288ZM161.955 244.43C162.458 248.665 163.005 252.752 163.65 256.627C166.582 254.849 169.4 253.061 172.048 251.383C173.577 250.413 175.055 249.475 176.475 248.591C176.085 248.355 175.692 248.122 175.302 247.889C171.644 245.723 168.088 243.797 164.67 242.125C163.777 242.901 162.871 243.67 161.955 244.43ZM224.684 253.304C224.684 253.306 224.684 253.311 224.684 253.313C224.687 253.308 224.691 253.301 224.696 253.297C224.691 253.299 224.689 253.301 224.684 253.304ZM133.092 250.26C133.722 251.115 134.394 251.941 135.101 252.731C135.207 252.851 135.316 252.971 135.424 253.089C135.851 251.759 136.269 250.383 136.678 248.956C135.493 249.427 134.297 249.861 133.092 250.26ZM101.008 250.983C105.525 251.764 109.974 252.103 114.341 252.008C111.679 244.319 110.706 235.227 111.427 224.781C110.7 224.118 109.998 223.423 109.323 222.693C108.91 222.245 108.506 221.785 108.113 221.314C104.783 222.855 101.848 224.339 99.4537 225.679C97.9851 226.501 96.6642 227.422 95.4981 228.445C95.5027 228.607 95.5073 228.766 95.5142 228.928C95.7913 236.705 97.6687 244.199 101.008 250.983ZM112.815 225.979C112.235 235.957 113.256 244.633 115.874 251.958C116.803 251.914 117.729 251.851 118.65 251.768C118.692 248.967 118.9 246.106 119.276 243.194C119.299 242.649 119.551 237.779 121.507 231.17C118.331 229.842 115.422 228.106 112.815 225.979ZM122.892 231.715C120.95 238.363 120.742 243.206 120.74 243.28L120.735 243.347C120.373 246.157 120.167 248.914 120.121 251.616C123.188 251.267 126.208 250.694 129.18 249.898C129.707 249.757 130.229 249.609 130.753 249.454C127.499 244.487 125.405 238.654 124.624 232.309C124.035 232.126 123.46 231.927 122.892 231.715ZM224.497 226.171C225.225 235.331 225.333 243.771 224.823 251.447C225.499 250.988 226.16 250.53 226.799 250.073C233.344 239.379 236.808 226.845 236.593 213.849C236.496 207.939 234.752 203.963 231.263 201.686C230.887 201.441 230.49 201.217 230.076 201.014C230.15 209.33 228.164 218.306 224.497 226.171ZM89.0808 247.951C89.5357 248.106 89.9975 248.256 90.464 248.404C93.4082 249.332 96.3294 250.082 99.2228 250.653C96.2001 244.187 94.4497 237.126 94.0825 229.808C91.5031 232.553 89.8613 235.899 89.1824 239.816C88.7483 242.319 88.7229 245.053 89.0808 247.951ZM126.16 232.77C126.991 238.795 129.055 244.316 132.21 249.006C133.884 248.466 135.54 247.854 137.177 247.171C138.373 242.753 139.297 238.428 139.98 234.391C139.438 234.361 138.909 234.345 138.392 234.345C134.043 234.343 129.949 233.812 126.16 232.77ZM230.035 199.386C230.76 199.693 231.436 200.051 232.062 200.46C235.935 202.986 237.953 207.482 238.057 213.826C238.255 225.931 235.332 237.64 229.748 247.896C236.992 242.354 241.352 237.539 242.142 236.643C244.229 223.947 243.195 210.685 239.066 197.116C235.461 195.264 232.342 193.809 229.261 192.701C229.642 194.659 229.891 196.694 230.005 198.788C230.018 198.989 230.028 199.188 230.035 199.386ZM165.86 241.079C169.148 242.702 172.556 244.557 176.048 246.628C176.657 246.988 177.265 247.355 177.872 247.725C179.89 246.485 181.777 245.369 183.511 244.441C180.257 241.714 177.486 237.915 175.066 233.373C174.542 233.516 174.018 233.646 173.496 233.761C171.134 236.218 168.566 238.677 165.86 241.079ZM186.278 244.684C186.915 245.108 187.561 245.487 188.22 245.82C193.087 248.272 198.484 248.161 204.717 245.478C207.317 244.36 209.824 242.744 212.178 240.696C211.75 236.74 210.903 232.729 209.63 228.704C209.12 227.092 208.524 225.559 207.843 224.106C201.126 234.313 193.762 241.702 188.123 243.887C187.538 244.111 186.922 244.379 186.278 244.684ZM74.9346 240.575C78.41 243.305 82.622 245.589 87.5359 247.404C87.2519 244.614 87.3166 241.986 87.7368 239.566C88.552 234.86 90.658 230.921 94.0156 227.801C93.8724 218.991 95.6574 210.175 99.2113 202.136C98.2784 197.751 97.8073 192.999 97.8142 187.921C96.274 187.842 94.7476 187.817 93.2351 187.847C85.0697 199.608 79.2921 212.847 76.5118 226.173C75.4842 231.089 74.9623 235.902 74.9346 240.575ZM141.444 234.509C140.809 238.287 139.966 242.31 138.89 246.425C143.989 244.122 148.901 241.118 153.586 237.435C149.12 235.869 145.033 234.879 141.444 234.509ZM176.523 232.939C179.103 237.717 181.892 241.284 184.938 243.704C185.878 243.238 186.765 242.838 187.594 242.518C192.903 240.462 200.227 233.045 206.709 223.162C206.836 222.97 206.961 222.776 207.086 222.584C205.109 218.862 202.527 215.715 199.359 213.163C197.505 217.213 194.635 221.097 190.905 224.496C186.617 228.404 181.585 231.309 176.523 232.939ZM161.521 240.642C161.597 241.331 161.673 242.014 161.751 242.695C162.25 242.275 162.744 241.855 163.232 241.434C162.659 241.164 162.089 240.899 161.521 240.642ZM161.336 238.957C162.356 239.409 163.389 239.887 164.437 240.388C166.797 238.31 168.998 236.234 171.018 234.202C169.085 234.461 167.187 234.512 165.363 234.343C163.86 234.202 162.479 233.636 161.19 232.722C161.036 232.872 160.881 233.022 160.724 233.172C160.927 235.119 161.13 237.047 161.336 238.957ZM208.778 222.663C209.651 224.413 210.404 226.279 211.03 228.263C212.219 232.022 213.046 235.768 213.515 239.474C216.951 236.158 220.02 231.895 222.52 226.893C222.684 226.566 222.846 226.233 223.005 225.9C222.534 220.086 221.812 213.978 220.842 207.588C220.488 205.27 220.024 202.993 219.447 200.758C216.902 208.113 213.27 215.599 208.778 222.663ZM63.0284 217.181C63.0353 217.324 63.0422 217.467 63.0491 217.61C63.4255 224.584 65.7347 230.676 69.9098 235.712C70.9789 237.003 72.1728 238.225 73.4844 239.372C73.5883 234.978 74.1148 230.468 75.0755 225.873C77.8234 212.694 83.4602 199.606 91.4108 187.909C88.6698 188.046 85.9934 188.367 83.4071 188.872C77.4886 190.029 71.9904 195.001 67.9262 202.871C65.7393 207.11 64.0721 212.024 63.0284 217.181ZM156.507 236.952C157.583 237.366 158.678 237.809 159.789 238.282C159.652 237.008 159.516 235.722 159.382 234.428C158.433 235.299 157.475 236.14 156.507 236.952ZM141.68 233.061C145.587 233.477 150.046 234.595 154.923 236.361C156.292 235.237 157.641 234.054 158.969 232.814C159.045 232.745 159.119 232.673 159.195 232.602C159.133 231.988 159.068 231.369 159.006 230.75C157.052 228.609 155.313 225.651 153.674 222.231C149.91 223.305 146.866 223.753 144.813 223.254C144.206 223.106 143.548 222.929 142.848 222.718C142.652 225.785 142.273 229.286 141.68 233.061ZM162.25 231.676C163.273 232.355 164.354 232.773 165.502 232.881C167.818 233.098 170.265 232.934 172.75 232.426C173.157 232.001 173.556 231.576 173.944 231.156C172.639 228.461 171.441 225.547 170.326 222.474C167.767 225.769 165.067 228.849 162.25 231.676ZM125.97 231.189C129.794 232.306 133.956 232.877 138.392 232.877C138.985 232.877 139.592 232.895 140.218 232.934C140.837 229.013 141.225 225.395 141.41 222.261C137.994 221.12 133.819 219.328 129.587 216.832C128.952 217.823 128.347 218.841 127.772 219.887C127.044 221.21 126.391 222.527 125.804 223.824C125.672 226.312 125.726 228.775 125.97 231.189ZM175.715 231.392C175.754 231.47 175.794 231.549 175.833 231.625C180.772 230.076 185.709 227.244 189.917 223.411C193.593 220.061 196.399 216.227 198.163 212.248C195.981 210.664 193.545 209.337 190.859 208.272C190.54 208.145 190.222 208.025 189.898 207.907C189.125 208.212 188.351 208.519 187.582 208.831C187.303 211.311 186.894 213.523 186.418 215.364C185.437 219.155 181.541 224.988 175.715 231.392ZM160.414 230.131C160.634 230.355 160.858 230.57 161.082 230.771C164.114 227.739 167.014 224.406 169.741 220.827C169.286 219.513 168.843 218.169 168.413 216.807C165.215 218.125 162.183 219.333 159.394 220.347C159.731 223.462 160.05 226.577 160.364 229.667C160.384 229.822 160.398 229.976 160.414 230.131ZM123.322 230.309C123.696 230.45 124.072 230.584 124.453 230.713C124.361 229.66 124.303 228.6 124.28 227.533C123.927 228.48 123.608 229.408 123.322 230.309ZM171.39 221.081C171.965 222.702 172.565 224.286 173.196 225.824C173.794 227.284 174.401 228.667 175.025 229.976C180.544 223.841 184.114 218.423 185.001 214.996C185.412 213.41 185.769 211.542 186.035 209.459C182.869 210.747 179.74 212.061 176.715 213.334C175.027 216.017 173.249 218.606 171.39 221.081ZM112.937 224.162C115.597 226.48 118.616 228.353 121.941 229.757C122.58 227.769 123.372 225.649 124.354 223.46C124.532 220.425 124.977 217.366 125.679 214.329C125.631 214.297 125.585 214.262 125.536 214.23C121.283 215.745 117.207 217.347 113.461 218.943C113.242 220.719 113.069 222.46 112.937 224.162ZM155.089 221.809C156.251 224.217 157.452 226.369 158.736 228.124C158.489 225.709 158.237 223.282 157.976 220.853C156.978 221.201 156.015 221.522 155.089 221.809ZM99.784 204.561C97.0198 211.482 95.5235 219.109 95.4773 226.556C96.4749 225.778 97.5602 225.058 98.7379 224.399C101.079 223.09 103.936 221.64 107.169 220.137C103.814 215.768 101.34 210.535 99.784 204.561ZM220.627 199.49C221.327 202.06 221.883 204.688 222.29 207.367C223.119 212.821 223.767 218.075 224.234 223.116C227.213 215.855 228.765 207.836 228.601 200.407C226.324 199.624 223.627 199.356 220.627 199.49ZM109.496 220.682C109.79 221.026 110.092 221.365 110.399 221.698C110.78 222.111 111.173 222.513 111.572 222.903C111.667 221.82 111.778 220.723 111.907 219.613C111.088 219.97 110.282 220.328 109.496 220.682ZM142.931 221.213C143.73 221.458 144.476 221.663 145.16 221.829C146.913 222.257 149.649 221.843 153.043 220.885C151.494 217.495 150.021 213.722 148.522 209.884C148.252 209.189 147.979 208.494 147.705 207.796C145.559 208.263 143.483 208.764 141.511 209.279C142.303 211.184 142.774 213.142 142.911 215.128C143.028 216.798 143.04 218.855 142.931 221.213ZM199.957 211.759C203.22 214.313 205.901 217.456 207.986 221.167C212.335 214.211 215.838 206.863 218.267 199.668C213.304 200.192 207.656 201.645 201.761 203.577C201.645 206.302 201.029 209.059 199.957 211.759ZM130.388 215.62C134.341 217.943 138.244 219.636 141.486 220.744C141.571 218.62 141.555 216.758 141.451 215.23C141.322 213.343 140.86 211.479 140.082 209.66C137.853 210.263 135.625 210.911 133.42 211.6C132.351 212.879 131.339 214.221 130.388 215.62ZM149.162 207.489C149.406 208.113 149.649 208.734 149.889 209.353C151.409 213.248 152.903 217.072 154.461 220.469C155.526 220.141 156.648 219.767 157.814 219.354C157.334 214.957 156.812 210.56 156.207 206.219C153.803 206.584 151.445 207.016 149.162 207.489ZM126.984 215.213C126.652 216.719 126.384 218.232 126.183 219.742C126.282 219.557 126.384 219.37 126.485 219.185C127.072 218.121 127.686 217.086 128.33 216.077C127.882 215.795 127.432 215.509 126.984 215.213ZM100.745 202.296C102.234 209.002 104.843 214.793 108.536 219.509C109.688 218.984 110.884 218.456 112.117 217.924C112.699 213.477 113.558 208.812 114.692 203.931C113.265 202.03 111.995 199.984 110.94 197.788C109.75 195.313 108.891 192.768 108.365 190.156C105.677 193.258 103.243 197.012 101.213 201.287C101.052 201.621 100.897 201.959 100.745 202.296ZM169.774 216.246C170.108 217.308 170.453 218.363 170.808 219.407C172.018 217.765 173.191 216.075 174.327 214.338C172.783 214.989 171.261 215.627 169.774 216.246ZM157.657 206.004C158.248 210.251 158.761 214.546 159.232 218.841C161.959 217.841 164.91 216.664 167.979 215.398C166.973 212.101 166.033 208.683 165.139 205.212C162.627 205.388 160.123 205.66 157.657 206.004ZM115.856 205.411C114.932 209.519 114.207 213.47 113.683 217.259C116.953 215.883 120.458 214.507 124.102 213.191C121.146 210.971 118.313 208.385 115.856 205.411ZM127.34 213.703C127.935 214.103 128.531 214.488 129.129 214.86C129.697 214.02 130.289 213.2 130.898 212.401C129.711 212.787 128.534 213.184 127.367 213.588C127.36 213.625 127.351 213.666 127.34 213.703ZM166.624 205.125C167.457 208.357 168.356 211.63 169.337 214.839C171.277 214.033 173.256 213.2 175.256 212.357C175.41 212.292 175.563 212.228 175.72 212.163C177.068 209.999 178.355 207.776 179.579 205.499C175.371 204.97 170.998 204.891 166.624 205.125ZM116.276 203.596C119.017 207.12 122.315 210.11 125.756 212.599C125.887 212.553 126.017 212.507 126.148 212.461C127.185 208.591 128.64 204.778 130.494 201.127C130.813 200.499 131.141 199.883 131.478 199.273C131.475 199.271 131.473 199.271 131.471 199.268C128.088 196.673 123.954 194.398 119.375 192.581C118.865 193.978 118.403 195.424 117.992 196.915C117.364 199.185 116.794 201.414 116.276 203.596ZM132.642 200.204C132.355 200.726 132.076 201.257 131.803 201.792C130.148 205.051 128.82 208.441 127.832 211.881C129.395 211.348 130.979 210.828 132.572 210.33C134.108 208.521 135.757 206.833 137.519 205.268C136.205 203.506 134.574 201.811 132.642 200.204ZM181.123 205.711C180.135 207.572 179.103 209.399 178.031 211.189C180.703 210.066 183.449 208.921 186.22 207.799C186.252 207.466 186.282 207.127 186.31 206.785C184.626 206.337 182.892 205.981 181.123 205.711ZM191.919 207.12C194.404 208.145 196.676 209.39 198.738 210.851C199.588 208.609 200.107 206.33 200.264 204.078C197.514 205.011 194.718 206.041 191.919 207.12ZM109.714 151.004C109.266 151.184 108.813 151.376 108.358 151.574C97.2323 156.453 85.3676 166.699 76.6203 178.984C69.1524 189.47 64.5755 200.298 63.3355 210.191C64.2476 207.358 65.3491 204.667 66.6238 202.199C70.8981 193.923 76.7589 188.678 83.1253 187.434C86.1342 186.845 89.2678 186.508 92.4499 186.408C94.3204 183.753 96.2809 181.213 98.3176 178.802C99.1235 171.953 101.082 165.508 104.148 159.612C105.716 156.599 107.578 153.724 109.714 151.004ZM138.366 206.475C137.292 207.436 136.262 208.445 135.274 209.501C136.66 209.087 138.052 208.69 139.445 208.314C139.121 207.695 138.761 207.08 138.366 206.475ZM139.481 205.506C140.01 206.302 140.481 207.108 140.892 207.928C143.017 207.371 145.107 206.866 147.16 206.413C146.495 204.73 145.818 203.051 145.121 201.402C144.414 201.845 143.719 202.303 143.04 202.776C141.809 203.633 140.625 204.543 139.481 205.506ZM187.857 205.693C188.543 205.896 189.215 206.111 189.873 206.342C193.374 204.968 196.886 203.658 200.317 202.506C200.297 198.322 199.124 194.186 197.022 190.487C194.168 190.699 191.06 190.962 187.645 191.274C187.541 191.546 187.439 191.819 187.333 192.091C188.007 196.929 188.111 201.58 187.857 205.693ZM146.391 200.633C147.153 202.43 147.889 204.261 148.614 206.099C151.134 205.57 153.598 205.12 155.997 204.753C155.604 202.037 155.177 199.347 154.704 196.694C151.764 197.797 148.988 199.114 146.391 200.633ZM181.844 204.335C183.426 204.593 184.947 204.912 186.414 205.293C186.596 202.109 186.559 198.601 186.197 194.934C184.871 198.142 183.416 201.282 181.844 204.335ZM156.105 196.188C156.6 198.938 157.043 201.728 157.449 204.54C159.962 204.187 162.403 203.924 164.767 203.753C164.07 200.993 163.398 198.202 162.742 195.414C162.659 195.059 162.58 194.703 162.509 194.343C160.297 194.858 158.161 195.472 156.105 196.188ZM133.376 198.906C135.457 200.612 137.214 202.42 138.632 204.305C139.777 203.344 140.969 202.432 142.204 201.573C142.966 201.042 143.744 200.529 144.541 200.037C143.028 196.55 141.417 193.237 139.629 190.357C137.322 192.881 135.219 195.752 133.376 198.906ZM171.111 203.515C174.35 203.515 177.422 203.711 180.313 204.104C182.356 200.174 184.206 196.096 185.83 191.911C185.806 191.754 185.783 191.602 185.76 191.445C181.629 191.83 177.068 192.278 172.004 192.784C169.219 193.064 166.529 193.475 163.941 194.022C164.012 194.375 164.088 194.726 164.172 195.075C164.823 197.844 165.513 200.728 166.252 203.654C166.467 203.642 166.682 203.63 166.896 203.619C168.328 203.552 169.734 203.515 171.111 203.515ZM109.75 189.6C110.249 192.188 111.085 194.708 112.261 197.155C113.092 198.885 114.062 200.518 115.138 202.058C115.581 200.243 116.062 198.4 116.579 196.527C117.004 194.989 117.479 193.498 118.006 192.057C115.371 191.08 112.6 190.253 109.75 189.6ZM198.629 190.369C200.567 193.985 201.675 197.975 201.777 202.021C203.569 201.439 205.333 200.901 207.058 200.425C211.434 199.215 215.311 198.456 218.717 198.148C217.879 195.368 216.861 192.655 215.667 190.013C211.074 189.736 205.654 189.881 198.629 190.369ZM99.2782 188.013C99.2782 192.209 99.6085 196.172 100.264 199.88C102.296 195.761 104.705 192.128 107.356 189.094C104.652 188.57 101.952 188.21 99.2782 188.013ZM140.666 189.253C142.553 192.235 144.234 195.664 145.806 199.275C148.506 197.707 151.385 196.359 154.438 195.225C153.946 192.583 153.408 189.983 152.81 187.436C152.323 185.362 151.806 183.367 151.258 181.453C147.46 183.31 143.883 185.956 140.666 189.253ZM222.047 197.989C224.504 197.989 226.663 198.275 228.541 198.846C228.414 196.532 228.113 194.294 227.654 192.156C225.887 191.59 224.107 191.138 222.23 190.789C221.731 193.168 221.098 195.588 220.338 198.031C220.922 198.003 221.493 197.989 222.047 197.989ZM119.906 191.191C124.465 192.999 128.656 195.285 132.214 197.989C134.156 194.696 136.373 191.708 138.807 189.085C134.916 183.296 130.683 180.465 125.899 180.455C123.49 183.619 121.49 187.201 119.906 191.191ZM217.325 190.136C218.131 191.974 218.851 193.844 219.491 195.749C219.99 193.997 220.421 192.26 220.784 190.547C219.673 190.376 218.528 190.239 217.325 190.136ZM228.901 191.031C231.967 192.073 235.025 193.442 238.449 195.165C238.085 194.047 237.701 192.93 237.295 191.807C227.277 164.122 213.457 144.859 196.216 134.546C179.752 124.7 163.754 125.196 153.23 127.351C145.047 129.025 137.223 131.907 130.272 135.747C136.163 135.899 141.865 136.881 147.381 138.31C154.507 136.336 161.862 135.604 168.594 136.276C177.9 137.204 185.091 140.631 189.372 145.988C197.509 144.065 205.827 146.589 213.411 153.431C220.209 159.564 223.65 168.293 223.571 179.01C223.791 179.315 224.003 179.622 224.211 179.938C226.34 183.143 227.919 186.898 228.901 191.031ZM152.605 180.829C153.182 182.834 153.727 184.926 154.24 187.101C154.826 189.597 155.355 192.145 155.838 194.729C157.9 194.022 160.036 193.41 162.246 192.897C161.456 187.956 161.657 182.672 162.811 177.393C159.491 178.132 156.075 179.278 152.605 180.829ZM164.389 177.072C163.151 182.354 162.901 187.646 163.68 192.581C166.308 192.029 169.035 191.611 171.857 191.329C176.9 190.826 181.428 190.383 185.52 190.002C185.111 187.697 184.564 185.362 183.855 183.035C183.373 181.453 182.788 179.793 182.077 178.1C176.75 176.232 170.76 175.89 164.389 177.072ZM110.196 188.182C113.055 188.84 115.851 189.671 118.535 190.664C120.001 186.965 121.816 183.605 123.971 180.589C119.227 181.22 114.457 183.908 110.196 188.182ZM222.516 189.355C224.148 189.66 225.714 190.043 227.259 190.507C226.395 187.212 225.13 184.187 223.493 181.531C223.356 183.954 223.047 186.471 222.569 189.076C222.55 189.166 222.534 189.26 222.516 189.355ZM190.473 182.781C189.806 185.081 189.049 187.413 188.203 189.757C191.074 189.498 193.72 189.277 196.17 189.089C194.637 186.741 192.718 184.6 190.473 182.781ZM183.957 178.834C184.458 180.123 184.887 181.388 185.259 182.608C185.927 184.797 186.453 186.993 186.857 189.166C187.748 186.695 188.538 184.238 189.226 181.825C188.811 181.524 188.384 181.236 187.949 180.956C186.67 180.139 185.338 179.432 183.957 178.834ZM216.637 188.614C217.611 188.685 218.549 188.775 219.461 188.886C220.006 188.953 220.541 189.027 221.07 189.108C221.089 189.009 221.107 188.907 221.126 188.808C221.655 185.94 222.04 182.765 222.093 179.467C218.509 174.657 213.584 171.267 207.432 169.385C205.721 168.861 203.855 168.32 201.86 167.785C208.183 174.128 213.117 181.088 216.637 188.614ZM190.905 181.25C193.697 183.418 196.039 186.051 197.824 188.965C204.959 188.454 210.381 188.288 214.96 188.51C211.196 180.709 205.864 173.532 198.992 167.039C197.32 166.621 195.572 166.212 193.766 165.827C193.376 170.528 192.406 175.777 190.905 181.25ZM127.028 179.035C131.79 179.435 136.002 182.386 139.842 188.002C143.181 184.626 146.896 181.919 150.838 180.028C149.303 174.92 147.538 170.401 145.525 166.432C143.153 167.274 140.853 168.29 138.652 169.5C134.133 171.983 130.252 175.167 127.028 179.035ZM99.2921 186.549C102.197 186.755 105.107 187.145 107.968 187.706C107.21 181.474 108.28 174.892 111.175 168.025C107.166 171.366 103.326 175.183 99.7239 179.409C99.6546 180.03 99.5969 180.656 99.5484 181.282C99.4075 183.074 99.3221 184.831 99.2921 186.549ZM113.708 165.995C113.581 166.254 113.454 166.517 113.332 166.783C110.037 173.846 108.714 180.596 109.363 186.958C114.156 182.222 119.583 179.379 124.954 179.021C125.024 179.017 125.091 179.012 125.16 179.01C128.637 174.592 132.907 170.985 137.95 168.217C140.163 167.002 142.47 165.977 144.843 165.122C142.597 160.943 140.059 157.412 137.207 154.486C137.126 154.403 137.045 154.322 136.964 154.239C132.044 155.426 126.989 157.509 121.892 160.476C119.112 162.093 116.378 163.938 113.708 165.995ZM94.4959 186.376C95.6043 186.376 96.715 186.404 97.828 186.459C97.8581 184.806 97.9389 183.12 98.0705 181.402C96.7704 183.007 95.5027 184.667 94.2742 186.376C94.3458 186.376 94.4197 186.376 94.4959 186.376ZM183.176 176.938C185.121 177.668 186.977 178.596 188.739 179.721C189.044 179.917 189.346 180.116 189.642 180.324C191.058 175.056 191.97 170.022 192.332 165.529C186.571 164.351 180.25 163.411 173.787 163.053C178.154 167.341 181.137 172.248 183.176 176.938ZM146.929 165.956C148.915 169.907 150.663 174.382 152.187 179.412C155.928 177.754 159.611 176.553 163.188 175.812C163.784 173.482 164.564 171.158 165.527 168.872C166.405 166.792 167.418 164.792 168.55 162.898C168.476 162.898 168.402 162.898 168.328 162.898C161.04 162.901 153.718 163.755 146.929 165.956ZM199.722 165.713C202.696 166.464 205.432 167.24 207.859 167.983C213.662 169.759 218.429 172.814 222.072 177.089C221.8 169.168 219.417 160.82 212.432 154.516C205.442 148.21 197.807 145.764 190.332 147.288C191.651 149.242 192.614 151.419 193.189 153.798C193.676 155.814 193.93 158.158 193.963 160.751C195.362 161.859 196.745 163.021 198.108 164.233C198.653 164.725 199.193 165.217 199.722 165.713ZM112.429 150.011C109.681 153.209 107.347 156.645 105.451 160.289C102.795 165.39 100.996 170.918 100.077 176.774C104.001 172.368 108.185 168.429 112.547 165.039C115.009 160.139 119.209 154.103 126.305 148.655C125.589 148.528 124.857 148.436 124.111 148.378C120.491 148.103 116.574 148.651 112.429 150.011ZM171.614 174.916C174.992 174.916 178.23 175.375 181.276 176.294C179.126 171.71 176.018 166.99 171.529 162.952C171.104 162.938 170.681 162.926 170.254 162.917C168.979 164.965 167.843 167.152 166.88 169.44C166.037 171.442 165.338 173.472 164.783 175.509C167.111 175.114 169.395 174.916 171.614 174.916ZM193.872 164.353C194.849 164.561 195.808 164.776 196.747 164.993C195.824 164.178 194.889 163.388 193.946 162.621C193.933 163.189 193.907 163.767 193.872 164.353ZM138.646 153.867C141.481 156.86 144.008 160.435 146.245 164.637C153.607 162.217 161.574 161.354 169.45 161.446C169.483 161.395 169.517 161.344 169.55 161.294C166.102 158.592 161.936 156.29 156.904 154.671C151.205 152.837 145.051 152.581 138.646 153.867ZM172.124 161.513C179.202 161.783 186.141 162.778 192.429 164.053C192.478 163.169 192.503 162.31 192.505 161.474C188.13 158.054 183.615 155.137 179.232 152.666C176.399 154.911 173.78 157.747 171.519 160.996C171.725 161.167 171.926 161.34 172.124 161.513ZM128.194 149.082C123.562 152.468 118.916 156.989 115.366 162.945C117.269 161.594 119.2 160.344 121.156 159.208C126.051 156.359 130.917 154.304 135.674 153.052C133.45 151.175 130.949 149.847 128.194 149.082ZM146.471 151.597C150.229 151.597 153.87 152.154 157.355 153.274C162.532 154.939 166.822 157.301 170.379 160.07C172.582 156.92 175.113 154.147 177.851 151.897C171.773 148.574 166.012 146.111 161.297 144.353C156.052 142.397 151.432 140.929 147.319 139.846C143.85 140.834 140.442 142.125 137.195 143.695C134.877 144.817 132.316 146.238 129.711 148.011C132.554 148.969 135.126 150.512 137.406 152.627C140.484 151.944 143.513 151.597 146.471 151.597ZM180.509 151.706C184.462 153.964 188.513 156.58 192.471 159.596C192.388 157.587 192.152 155.758 191.762 154.147C191.185 151.759 190.182 149.588 188.792 147.662C186.714 148.24 184.654 149.126 182.627 150.325C181.913 150.747 181.206 151.209 180.509 151.706ZM150.235 139.091C154.191 140.234 158.05 141.578 161.809 142.979C166.719 144.81 172.755 147.399 179.105 150.914C180.013 150.237 180.939 149.616 181.883 149.059C183.834 147.905 185.816 147.023 187.811 146.408C183.724 141.642 177.041 138.589 168.45 137.73C162.666 137.155 156.403 137.645 150.235 139.091ZM127.836 137.155C124.234 139.331 120.899 141.769 117.907 144.439C116.646 145.563 115.447 146.727 114.307 147.928C117.782 147.018 121.098 146.679 124.22 146.916C125.483 147.013 126.705 147.203 127.882 147.487C130.42 145.681 133.295 143.956 136.553 142.379C139.135 141.13 141.818 140.053 144.555 139.16C137.724 137.56 132.367 137.075 127.836 137.155Z" fill="#355951"/>
<path d="M117.581 79.266C121.682 63.3255 128.614 49.4657 147.381 49.4657C163.839 49.4657 178.768 63.9652 177.683 81.8315C176.685 98.2592 162.419 112.174 144.954 110.219C128.598 108.387 112.884 97.5179 117.581 79.266Z" fill="#B9DACA"/>
<path opacity="0.8" d="M142.881 89.9229C142.881 88.6205 142.959 87.4867 143.114 86.5214C143.269 85.5585 143.527 84.6764 143.885 83.8774C144.243 83.0784 144.707 82.321 145.275 81.6051C145.844 80.8893 146.543 80.1273 147.368 79.319C147.991 78.714 148.575 78.139 149.116 77.5987C149.656 77.0583 150.134 76.5018 150.547 75.9337C150.961 75.3657 151.286 74.7584 151.524 74.1164C151.762 73.4744 151.882 72.7586 151.882 71.9688C151.882 70.2439 151.455 68.9253 150.603 68.0178C149.748 67.108 148.497 66.6554 146.843 66.6554C146.183 66.6554 145.539 66.7477 144.915 66.9302C144.292 67.1149 143.731 67.4082 143.234 67.8123C142.738 68.2164 142.338 68.7313 142.036 69.3548C141.733 69.9783 141.581 70.7311 141.581 71.6132H134.889C134.907 69.8882 135.224 68.3688 135.838 67.0549C136.452 65.7432 137.297 64.6417 138.371 63.7504C139.445 62.859 140.703 62.1894 142.144 61.7391C143.585 61.2888 145.151 61.0648 146.839 61.0648C148.693 61.0648 150.344 61.3026 151.797 61.7806C153.247 62.2586 154.478 62.956 155.487 63.8728C156.496 64.7918 157.263 65.9118 157.787 67.2327C158.311 68.5558 158.572 70.0522 158.572 71.7218C158.572 72.9341 158.38 74.0633 157.995 75.1094C157.609 76.1554 157.094 77.1391 156.452 78.0559C155.808 78.975 155.076 79.8548 154.249 80.6999C153.422 81.5451 152.568 82.381 151.688 83.2054C150.677 84.1245 150.002 85.129 149.663 86.2212C149.324 87.3135 149.143 88.5489 149.125 89.9252H142.881V89.9229ZM142.412 98.4877C142.412 97.9728 142.495 97.4971 142.659 97.056C142.823 96.615 143.068 96.2293 143.389 95.8991C143.71 95.5689 144.105 95.3126 144.573 95.1278C145.042 94.9454 145.578 94.8531 146.185 94.8531C146.79 94.8531 147.328 94.9454 147.797 95.1278C148.266 95.3126 148.661 95.5689 148.982 95.8991C149.303 96.2293 149.55 96.615 149.725 97.056C149.898 97.4971 149.986 97.9751 149.986 98.4877C149.986 99.4969 149.656 100.342 148.996 101.021C148.335 101.7 147.398 102.039 146.185 102.039C144.973 102.039 144.042 101.7 143.391 101.021C142.738 100.342 142.412 99.4969 142.412 98.4877Z" fill="#DFFAE1"/>
<path d="M229.053 42.0278L202.312 49.7151L218.701 34.8577L220.172 38.6841L226.972 38.9635L229.053 42.0278Z" fill="#7DA798"/>
<path d="M202.312 49.7151L223.386 34.8531L245.483 30.6388L202.312 49.7151Z" fill="#DFFAE1"/>
<path d="M218.701 34.8577L202.312 49.7151L213.646 28.4797L218.701 34.8577Z" fill="#DFFAE1"/>
<path d="M463.849 152.142L491.718 156.112L473.222 143.51L472.282 147.551L465.504 148.78L463.849 152.142Z" fill="#7DA798"/>
<path d="M491.717 156.112L468.524 144.159L445.792 143.021L491.717 156.112Z" fill="#DFFAE1"/>
<path d="M473.223 143.51L491.719 156.112L477.398 136.414L473.223 143.51Z" fill="#DFFAE1"/>
<path d="M449.112 290.729C422.942 290.729 397.017 279.19 379.758 259.86C364.979 243.307 358.134 222.781 360.487 202.06L360.838 202.1L360.487 202.06C363.704 173.722 373.283 151.764 388.953 136.795C403.817 122.596 424.053 114.749 449.096 113.472C478.393 111.978 500.938 120.324 516.102 138.278C522.734 146.131 527.953 155.867 531.611 167.214C534.941 177.546 537.003 189.277 537.744 202.081C538.525 215.606 537.329 227.9 534.183 238.62C530.974 249.563 525.704 258.971 518.522 266.582C503.392 282.603 480.039 290.729 449.112 290.729ZM455.652 114.008C453.516 114.008 451.345 114.063 449.131 114.177C424.261 115.444 404.178 123.226 389.44 137.303C373.892 152.156 364.385 173.969 361.189 202.139C358.859 222.656 365.642 242.986 380.284 259.386C397.412 278.569 423.141 290.02 449.112 290.02C479.839 290.02 503.018 281.97 518.003 266.092C525.108 258.564 530.322 249.253 533.5 238.416C536.62 227.776 537.809 215.562 537.033 202.116C536.296 189.371 534.246 177.698 530.934 167.425C527.307 156.167 522.132 146.51 515.56 138.728C501.691 122.31 481.554 114.008 455.652 114.008Z" fill="#2B478B"/>
<path d="M449.113 291.216C422.807 291.216 396.743 279.615 379.394 260.183C364.635 243.654 357.74 223.185 359.948 202.49H359.945L360.056 201.518C363.34 173.297 372.949 151.403 388.614 136.44C403.566 122.157 423.906 114.267 449.069 112.983C478.53 111.482 501.206 119.885 516.473 137.961C523.146 145.863 528.395 155.654 532.071 167.062C535.413 177.43 537.484 189.203 538.228 202.051C539.013 215.634 537.807 227.983 534.648 238.756C531.418 249.775 526.109 259.25 518.872 266.914C503.652 283.042 480.181 291.216 449.113 291.216ZM455.653 114.498C453.537 114.498 451.351 114.555 449.157 114.666C424.409 115.927 404.43 123.663 389.78 137.659C374.318 152.431 364.862 174.144 361.677 202.196C359.363 222.573 366.102 242.769 380.652 259.063C397.687 278.142 423.282 289.533 449.115 289.533C479.703 289.533 502.76 281.534 517.652 265.76C524.705 258.289 529.882 249.043 533.036 238.282C536.142 227.695 537.325 215.537 536.551 202.148C535.817 189.443 533.773 177.814 530.473 167.579C526.864 156.382 521.721 146.783 515.191 139.049C501.428 122.758 481.398 114.498 455.653 114.498Z" fill="#355951"/>
<path d="M452.262 294.659C437.566 294.659 421.393 290.487 403.901 282.155C380.275 270.902 361.829 249.334 354.56 224.46C348.334 203.162 350.983 181.686 362.016 163.991C377.107 139.79 395.195 124.083 415.781 117.308C435.306 110.881 456.95 112.498 480.109 122.116C507.203 133.366 523.968 150.595 529.937 173.325C532.549 183.268 533.073 194.299 531.493 206.118C530.057 216.876 526.875 228.353 522.037 240.234C516.927 252.782 510.558 263.365 503.111 271.692C495.507 280.192 486.704 286.42 476.948 290.2C469.269 293.175 461.028 294.659 452.262 294.659ZM362.316 164.18L362.617 164.367C351.692 181.889 349.071 203.159 355.239 224.263C362.453 248.946 380.758 270.35 404.205 281.518C431.946 294.731 456.333 297.43 476.691 289.54C486.344 285.799 495.056 279.636 502.584 271.219C509.978 262.954 516.303 252.438 521.384 239.966C526.201 228.143 529.367 216.721 530.794 206.023C532.359 194.299 531.84 183.356 529.253 173.502C523.344 150.997 506.718 133.927 479.839 122.767C456.841 113.218 435.363 111.606 416.003 117.978C395.578 124.7 377.617 140.305 362.617 164.363L362.316 164.18Z" fill="#2B478B"/>
<path d="M452.263 295.149C437.521 295.149 421.178 290.925 403.691 282.596C379.941 271.283 361.4 249.602 354.091 224.598C347.827 203.164 350.494 181.547 361.603 163.734C376.756 139.435 394.934 123.658 415.629 116.846C435.269 110.382 457.027 112.004 480.296 121.665C507.538 132.978 524.4 150.316 530.408 173.202C533.036 183.208 533.563 194.304 531.976 206.184C530.535 216.982 527.342 228.501 522.488 240.418C517.354 253.017 510.958 263.649 503.474 272.017C495.819 280.575 486.951 286.847 477.121 290.657C469.429 293.636 461.065 295.149 452.263 295.149ZM363.03 164.626C352.179 182.028 349.579 203.159 355.708 224.127C362.883 248.678 381.091 269.969 404.416 281.076C432.032 294.23 456.288 296.925 476.516 289.085C486.097 285.372 494.745 279.252 502.222 270.893C509.579 262.67 515.874 252.202 520.934 239.781C525.735 227.995 528.889 216.615 530.311 205.958C531.868 194.297 531.355 183.42 528.783 173.627C522.913 151.278 506.383 134.317 479.654 123.219C456.768 113.715 435.405 112.11 416.161 118.444C395.844 125.131 377.971 140.668 363.03 164.626Z" fill="#355951"/>
<path d="M457.235 300.1C435.909 300.1 414.004 289.852 392.041 269.584C372.134 251.209 360.511 224.226 360.953 197.405C361.331 174.435 370.536 154.015 386.873 139.903L387.111 140.181L386.873 139.903C409.217 120.605 431.921 110.623 454.353 110.239C475.621 109.875 496.533 118.111 516.48 134.724C539.819 154.158 551.109 176.336 550.037 200.64C549.568 211.272 546.703 222.342 541.518 233.542C536.798 243.739 530.132 254.112 521.703 264.372C512.801 275.211 503.257 283.721 493.339 289.669C483.213 295.742 472.6 299.199 461.793 299.945C460.281 300.047 458.759 300.1 457.235 300.1ZM455.708 110.958C455.26 110.958 454.815 110.962 454.367 110.969C432.111 111.35 409.564 121.273 387.354 140.455C371.175 154.428 362.061 174.657 361.687 197.414C361.248 224.032 372.783 250.81 392.54 269.043C415.916 290.616 439.198 300.767 461.749 299.211C472.441 298.472 482.945 295.05 492.97 289.039C502.816 283.134 512.295 274.678 521.144 263.905C529.534 253.692 536.168 243.372 540.86 233.232C546.005 222.118 548.848 211.142 549.312 200.605C550.372 176.541 539.17 154.565 516.016 135.283C496.625 119.139 476.341 110.958 455.708 110.958Z" fill="#2B478B"/>
<path d="M457.234 300.587C435.791 300.587 413.745 290.276 391.71 269.942C371.701 251.475 360.021 224.356 360.464 197.396C360.841 174.458 369.971 154.045 386.187 139.855L386.925 139.215C409.239 120.049 431.92 110.135 454.345 109.75C475.735 109.378 496.751 117.657 516.793 134.347C540.254 153.886 551.604 176.195 550.526 200.661C550.055 211.357 547.173 222.487 541.963 233.745C537.227 243.979 530.537 254.387 522.083 264.681C513.144 275.562 503.561 284.111 493.595 290.087C483.402 296.2 472.715 299.68 461.829 300.43C460.31 300.534 458.763 300.587 457.234 300.587ZM455.707 111.447C455.262 111.447 454.821 111.452 454.375 111.459C432.237 111.84 409.794 121.718 387.671 140.827C371.602 154.708 362.545 174.807 362.173 197.426C361.737 223.908 373.211 250.547 392.869 268.688C414.597 288.741 436.227 298.881 457.236 298.881C458.733 298.881 460.224 298.83 461.714 298.726C472.327 297.994 482.76 294.595 492.717 288.621C502.515 282.744 511.95 274.324 520.765 263.596C529.129 253.415 535.74 243.129 540.416 233.027C545.533 221.973 548.362 211.057 548.824 200.585C549.877 176.682 538.733 154.837 515.703 135.659C496.407 119.594 476.222 111.447 455.707 111.447Z" fill="#355951"/>
<path d="M430.915 298.532C422.549 298.532 414.568 297.137 407.098 294.364C385.715 286.425 368.534 267.452 356.035 237.973C345.459 213.031 345.98 183.656 357.429 159.395C367.232 138.62 384.032 123.801 404.729 117.67C433.037 109.286 457.836 109.54 478.436 118.426C497.975 126.854 513.631 142.97 524.969 166.321C538.233 193.641 539.39 218.5 528.405 240.208C523.6 249.704 516.43 258.61 507.094 266.681C498.593 274.029 488.246 280.737 476.34 286.616C463.764 292.828 451.564 296.655 440.076 297.989C436.977 298.352 433.922 298.532 430.915 298.532ZM404.831 118.021L404.934 118.372C384.438 124.443 367.802 139.123 358.088 159.707C346.726 183.783 346.211 212.934 356.707 237.687C369.123 266.972 386.163 285.811 407.352 293.678C417.4 297.407 428.38 298.615 439.993 297.264C451.396 295.939 463.517 292.135 476.016 285.963C487.867 280.111 498.162 273.438 506.616 266.129C515.88 258.121 522.993 249.288 527.754 239.878C538.63 218.386 537.471 193.745 524.311 166.642C513.051 143.45 497.52 127.455 478.145 119.098C457.707 110.281 433.074 110.036 404.934 118.372L404.831 118.021Z" fill="#2B478B"/>
<path d="M430.914 299.021C422.499 299.021 414.428 297.608 406.926 294.823C385.411 286.836 368.136 267.771 355.581 238.165C344.951 213.096 345.476 183.573 356.982 159.188C366.845 138.285 383.751 123.374 404.584 117.204C433.006 108.785 457.918 109.046 478.624 117.98C498.273 126.457 514.013 142.651 525.404 166.111C538.74 193.576 539.894 218.58 528.838 240.432C524.005 249.986 516.796 258.943 507.411 267.055C498.878 274.431 488.496 281.16 476.555 287.058C463.929 293.292 451.674 297.135 440.132 298.479C437.029 298.839 433.927 299.021 430.914 299.021ZM405.072 118.841C384.711 124.873 368.182 139.46 358.53 159.917C347.228 183.868 346.713 212.872 357.156 237.497C369.519 266.653 386.464 285.402 407.522 293.221C417.495 296.925 428.401 298.121 439.936 296.779C451.283 295.461 463.349 291.674 475.8 285.524C487.614 279.691 497.874 273.041 506.296 265.76C515.512 257.793 522.585 249.011 527.316 239.659C538.119 218.31 536.959 193.816 523.871 166.857C512.664 143.774 497.216 127.856 477.952 119.548C457.62 110.775 433.098 110.537 405.072 118.841Z" fill="#355951"/>
<path d="M454.227 290.729C428.059 290.729 405.909 276.992 388.65 257.661C373.872 241.109 363.249 222.781 365.602 202.06C368.819 173.722 378.398 151.764 394.068 136.795C408.932 122.596 429.168 114.749 454.211 113.472C483.51 111.978 506.053 120.324 521.217 138.278C527.849 146.131 533.068 155.867 536.726 167.214C540.056 177.546 542.118 189.277 542.859 202.081C543.64 215.606 542.443 227.9 539.298 238.62C536.089 249.563 530.819 258.971 523.635 266.582C508.51 282.603 485.157 290.729 454.227 290.729ZM365.953 202.1L366.304 202.139C363.974 222.656 375.186 240.968 389.828 257.368C406.956 276.551 428.258 290.02 454.23 290.02C484.956 290.02 508.136 281.97 523.12 266.092C530.225 258.564 535.44 249.253 538.617 238.416C541.737 227.776 542.926 215.562 542.15 202.116C541.414 189.371 539.363 177.698 536.052 167.425C532.422 156.167 527.249 146.51 520.677 138.728C505.665 120.952 483.314 112.689 454.248 114.172C429.378 115.44 409.295 123.222 394.557 137.299C379.01 152.151 369.503 173.964 366.307 202.134L365.953 202.1Z" fill="#2B478B"/>
<path d="M454.228 291.216C441.721 291.216 429.487 288.074 417.867 281.873C407.409 276.294 397.456 268.256 388.286 257.985C380.012 248.72 374.114 240.098 370.256 231.625C365.674 221.569 363.993 211.879 365.115 202.005C368.346 173.551 377.973 151.491 393.729 136.442C408.681 122.16 429.02 114.269 454.184 112.985C483.645 111.486 506.321 119.887 521.587 137.964C528.261 145.866 533.51 155.657 537.186 167.064C540.527 177.435 542.599 189.205 543.342 202.053C544.127 215.636 542.922 227.986 539.763 238.758C536.532 249.778 531.223 259.252 523.986 266.917C508.769 283.042 485.298 291.216 454.228 291.216ZM366.79 202.194C364.822 219.529 372.258 236.957 390.193 257.043C409.443 278.601 430.988 289.531 454.23 289.531C484.818 289.531 507.875 281.532 522.767 265.757C529.819 258.287 534.997 249.041 538.151 238.28C541.257 227.693 542.439 215.535 541.666 202.146C540.931 189.441 538.888 177.811 535.588 167.577C531.979 156.38 526.836 146.78 520.306 139.047C505.397 121.393 483.183 113.188 454.274 114.664C429.526 115.925 409.547 123.661 394.897 137.657C379.43 152.429 369.974 174.142 366.79 202.194ZM371.614 232.223C375.435 240.285 381.137 248.51 389.018 257.336C392.378 261.097 395.842 264.557 399.396 267.704C396.022 264.67 392.71 261.333 389.466 257.698C381.492 248.769 375.574 240.352 371.614 232.223Z" fill="#355951"/>
<path d="M436.893 241.582C436.849 241.659 436.805 241.739 436.759 241.818C435.697 243.663 433.261 248.187 430.578 253.135C429.308 255.484 427.98 257.927 426.719 260.227C424.546 264.196 422.572 267.732 421.419 269.598C420.246 271.496 419.383 272.83 419.034 273.366C419.032 273.369 419.032 273.369 419.032 273.369C418.928 273.532 418.905 273.726 418.918 273.92C419.041 275.595 419.006 277.26 418.842 278.897C417.223 294.997 406.368 303.626 406.368 303.626L403.14 304.104C403.14 304.104 407.707 287.18 409.053 277.613C409.28 275.992 409.379 274.678 409.301 273.819C409.063 271.327 409.504 267.667 410.342 263.464C411.834 255.999 414.566 246.833 416.942 239.497C417.092 239.028 421.632 222.608 421.632 222.608C425.442 225.937 439.339 227.311 439.339 227.311C439.339 227.311 441.696 233.038 436.893 241.582Z" fill="#485953"/>
<path d="M396.365 308.187H409.837C409.837 308.187 410.16 306.134 409.456 304.575C408.782 303.081 407.821 303.032 409.334 300.689C408.477 301.571 405.727 301.936 403.778 301.672C403.54 302.06 402.24 304.656 401.441 305.228C400.561 305.861 396.635 305.635 396.365 308.187Z" fill="#313836"/>
<path d="M436.893 241.582C436.849 241.658 436.805 241.739 436.759 241.818C435.696 243.663 429.953 254.269 427.272 259.218C430.381 246.427 428.219 233.636 428.219 233.636L436.893 241.582Z" fill="#313836"/>
<path d="M384.891 178.402C384.891 178.402 384.358 172.59 390.854 172.59C390.854 172.59 388.886 173.124 387.868 174.193C387.868 174.193 392.011 171.761 396.518 175.498C401.026 179.234 398.225 188.607 399.596 190.387C400.968 192.168 406.307 192.523 405.654 198.278C405 204.032 388.709 211.239 389.757 215.999C389.757 215.999 383.372 206.614 387.937 202.33C387.937 202.33 385.711 204.427 385.485 206.919C385.485 206.919 384.882 202.056 387.977 200.499C390.715 199.123 392.96 194.087 392.722 193.186C392.484 192.283 384.891 178.402 384.891 178.402Z" fill="#3A4744"/>
<path d="M394.059 202.813C394.059 202.813 384.817 226.131 382.827 225.268C380.836 224.404 369.099 220.677 369.099 220.677C369.099 220.677 369.517 224.002 369.706 224.152C371.424 225.515 380.065 232.177 385.24 232.516C390.988 232.893 398.77 215.962 398.77 215.962L394.059 202.813Z" fill="#B4BDB8"/>
<path d="M386.73 177.585C386.642 177.232 394.424 181.102 394.819 181.541C398.47 185.589 397.428 190.874 395.341 190.923C394.001 190.955 394.26 193.184 394.26 193.184L379.338 186.87C379.338 186.87 381.134 176.393 386.73 177.585Z" fill="#3A4744"/>
<path d="M391.745 203.298C391.745 203.298 389.757 205.355 389.757 211.516C389.757 211.516 392.496 215.839 399.596 216.934C399.596 216.934 393.491 203.296 391.745 203.298Z" fill="#1DA492"/>
<path d="M426.39 228.311L426.344 225.792C431.364 226.425 443.654 219.793 443.654 219.793C443.654 219.793 448.907 223.286 449.625 233.262C449.976 238.132 452.195 258.726 452.442 264.873C452.532 267.101 452.562 268.692 452.572 269.327C452.572 269.33 452.572 269.332 452.572 269.334C452.574 269.528 452.666 269.699 452.784 269.854C453.823 271.175 454.724 272.574 455.504 274.024C463.164 288.277 459.16 307.644 459.16 307.644L457.382 307.191C457.382 307.191 450.904 287.115 446.672 278.43C445.954 276.957 445.3 275.811 444.755 275.149C443.164 273.216 441.485 269.932 439.829 265.981C436.698 258.511 426.39 228.311 426.39 228.311Z" fill="#485953"/>
<path d="M448.446 308.187H461.918C461.918 308.187 462.241 306.134 461.537 304.575C460.863 303.081 459.808 302.4 460.059 300.592C459.203 301.474 457.808 302.46 455.861 302.199C455.623 302.587 454.321 304.656 453.524 305.229C452.642 305.861 448.716 305.635 448.446 308.187Z" fill="#313836"/>
<path d="M400.507 219.827C402.318 220.137 400.212 221.575 402.701 221.846C406.243 222.231 409.901 222.497 411.818 223.261C412.517 223.541 412.984 223.885 413.129 224.323C413.961 226.822 417.621 230.674 417.621 230.674C441.08 229.607 443.657 219.793 443.657 219.793C428.43 205.005 414.432 196.285 403.742 195.13C401.914 194.932 399.6 196.093 397.951 196.828C394.208 198.495 391.746 203.298 391.746 203.298C391.746 203.298 393.63 218.654 400.507 219.827Z" fill="#1DA492"/>
<path d="M402.7 221.843C406.243 222.229 409.9 222.494 411.817 223.259C412.6 211.558 407.078 202.758 407.078 202.758C407.078 202.758 403.476 217.416 402.7 221.843Z" fill="#1B5F56"/>
<path d="M399.643 200.779C399.643 200.779 408.552 200.291 410.134 205.884C411.716 211.477 407.165 233.803 406.183 236.107C404.396 240.303 395.702 252.276 395.702 252.276L393.305 251.045C393.305 251.045 398.304 233.013 399.597 231.202C401.629 228.36 396.979 203.213 399.643 200.779Z" fill="#B4BDB8"/>
<path d="M393.938 249.371C393.938 249.371 393.194 251.999 391.742 253.452C391.072 254.121 390.476 256.133 390.446 257.172C390.446 257.172 390.338 258.031 390.712 257.945C391.086 257.862 391.504 256.001 392.171 256.093C392.171 256.093 391.816 258.172 391.462 258.758C391.109 259.342 390.901 261.155 391.402 261.375C392.617 261.91 394.413 259.62 395.483 258.181C396.552 256.745 395.499 250.914 395.499 250.914L393.938 249.371Z" fill="#B4BDB8"/>
<path d="M411.894 213.364C411.871 213.495 403.463 214.911 398.205 212.242C398.205 212.242 393.813 198.479 400.089 199.137C406.368 199.795 410.084 201.772 410.243 204.778C410.4 207.785 411.894 213.364 411.894 213.364Z" fill="#178E7E"/>
<path d="M397.95 196.828C397.95 196.828 395.472 206.069 391.745 203.298C391.849 202.852 391.2 201.555 390.433 200.238C389.454 198.555 388.288 196.835 388.288 196.835L393.331 192.417L393.632 192.154C395.174 194.849 396.689 195.909 397.95 196.828Z" fill="#B4BDB8"/>
<path d="M388.286 196.835C388.286 196.835 389.452 198.55 390.431 200.236C393.565 198.303 393.57 194.424 393.327 192.415L388.286 196.835Z" fill="#8D9F97"/>
<path d="M388.149 199.049C388.149 199.049 395.757 194.814 393.049 190.117C390.338 185.418 389.497 181.707 384.523 184.212C379.549 186.718 379.648 189.05 380.17 190.837C380.695 192.627 386.098 200.03 388.149 199.049Z" fill="#B4BDB8"/>
<path d="M378.883 188.099C379.232 186.014 380.292 185.813 381.031 185.954C383.841 181.305 388.432 183.12 388.432 183.12C390.884 186.198 394.429 186.723 394.429 186.723C394.429 186.723 393.544 188.367 389.907 189.383C388.797 189.694 387.533 189.505 386.319 189.096C388.843 190.503 391.482 191.043 391.482 191.043C386.688 191.482 382.125 187.099 381.652 186.63C381.43 187.309 381.042 188.732 381.276 189.771C381.592 191.184 382.846 193.743 382.079 194.073C382.081 194.07 378.361 191.225 378.883 188.099Z" fill="#3A4744"/>
<path d="M370.741 221.737C370.741 221.737 369.381 222.34 367.997 220.931C367.291 220.211 366.025 219.82 366.679 219.435C367.332 219.049 369.076 219.841 369.487 219.982C369.898 220.123 370.741 221.737 370.741 221.737Z" fill="#B4BDB8"/>
<path d="M421.696 67.2028C425.783 51.3177 432.693 37.5018 451.397 37.5018C467.799 37.5018 482.678 51.9505 481.597 69.759C480.602 86.1313 466.384 100 448.979 98.0514C432.676 96.2248 417.015 85.3924 421.696 67.2028Z" fill="#B9DACA"/>
<path opacity="0.8" d="M446.983 87.4129C446.983 86.8356 447.08 86.2999 447.277 85.8034C447.473 85.3092 447.75 84.8751 448.113 84.5033C448.473 84.1315 448.916 83.8429 449.443 83.6374C449.969 83.4318 450.572 83.3279 451.251 83.3279C451.932 83.3279 452.535 83.4318 453.061 83.6374C453.588 83.8429 454.031 84.1315 454.391 84.5033C454.752 84.8751 455.031 85.3069 455.227 85.8034C455.424 86.2976 455.521 86.8356 455.521 87.4129C455.521 88.5467 455.149 89.4958 454.408 90.2578C453.666 91.0199 452.613 91.4032 451.253 91.4032C449.893 91.4032 448.84 91.0222 448.099 90.2578C447.355 89.4958 446.983 88.5467 446.983 87.4129ZM454.375 77.7004H447.909L447.198 45.9327H455.116L454.375 77.7004Z" fill="#DFFAE1"/>
<path d="M227.053 99.998C236.23 64.33 251.746 33.3105 293.741 33.3105C330.573 33.3105 363.978 65.7548 361.548 105.739C359.315 142.501 327.391 173.641 288.312 169.265C251.709 165.164 216.544 140.839 227.053 99.998Z" fill="#B9DACA"/>
<path d="M322.05 95.8945C322.092 102.748 319.683 109.041 315.656 113.948C312.185 118.174 310.229 123.441 310.229 128.909V136.793C310.229 139.021 309.414 141.074 308.07 142.658C306.398 144.63 303.907 145.889 301.133 145.889H286.576C281.572 145.889 277.48 141.795 277.48 136.793V128.925C277.48 123.466 275.554 118.197 272.081 113.983C268.07 109.112 265.659 102.871 265.659 96.0654C265.659 82.6051 275.092 71.3454 287.71 68.542C288.068 68.4612 288.43 68.3896 288.793 68.325C288.987 68.2903 289.181 68.2557 289.375 68.2257C290.834 67.9901 292.331 67.87 293.855 67.87C309.405 67.8677 321.958 80.3444 322.05 95.8945Z" fill="#DFFAE1"/>
<path d="M301.08 145.891L301.048 146.134L300.649 149.2L300.542 150.008V150.015L300.436 150.828L300.037 153.893L299.93 154.701L299.928 154.708L299.822 155.523L299.764 155.971C299.561 157.525 297.783 158.714 295.658 158.714H290.867C290.361 158.714 289.876 158.647 289.426 158.525H289.424C289.019 158.414 288.643 158.257 288.308 158.061L288.283 158.044C288.01 157.885 287.768 157.698 287.558 157.493C287.128 157.07 286.844 156.56 286.763 156.001L286.595 154.812L286.486 154.063V154.061L286.484 154.045V154.043L286.378 153.311L285.971 150.468L285.865 149.722L285.863 149.706L285.756 148.969L285.315 145.891H301.08V145.891Z" fill="#1DA492"/>
<path d="M299.176 145.891H299.144H296.47C292.101 147.154 287.766 148.404 285.76 148.969L285.866 149.706L285.868 149.722L285.975 150.468C287.6 150.018 291.505 148.9 301.047 146.134L301.079 145.891H299.176V145.891Z" fill="#178E7E"/>
<path d="M286.486 154.04L286.488 154.059V154.061L286.597 154.809C288.476 154.28 292.356 153.167 300.436 150.826L300.542 150.013V150.006L300.648 149.198C295.542 150.676 289.363 152.461 286.382 153.308L286.486 154.04Z" fill="#178E7E"/>
<path d="M288.284 158.042L288.31 158.058C288.645 158.255 289.021 158.412 289.425 158.522H289.427C291.644 157.887 294.933 156.938 299.826 155.521L299.932 154.705L299.934 154.698L300.04 153.89C295.671 155.156 290.658 156.604 287.562 157.488C287.769 157.696 288.012 157.883 288.284 158.042Z" fill="#178E7E"/>
<path d="M283.327 109.728L282.07 109.941L288.18 146.015L289.437 145.802L283.327 109.728Z" fill="#1DA492"/>
<path d="M304.199 110.253L297.705 145.76L298.959 145.989L305.453 110.483L304.199 110.253Z" fill="#1DA492"/>
<path d="M297.215 116.361C297.051 116.361 296.869 116.34 296.666 116.294C296.324 116.216 296.109 115.98 296.04 115.611C295.894 114.814 296.52 113.352 297.398 112.112C296.938 111.311 296.329 110.65 295.687 110.456C294.74 110.17 293.287 111.043 292.276 112.161C292.461 112.424 292.627 112.696 292.772 112.971C293.29 113.95 293.664 115.202 293.153 115.779C292.964 115.994 292.578 116.188 291.814 115.899C290.858 115.539 290.516 114.728 290.872 113.678C291.047 113.163 291.368 112.627 291.777 112.131C290.994 111.108 289.946 110.332 288.914 110.461C288.362 110.53 287.891 110.724 287.496 110.997C288.156 112.225 288.309 113.784 287.849 114.62C287.537 115.19 286.992 115.37 286.316 115.128C285.829 114.955 285.575 114.285 285.669 113.421C285.764 112.537 286.207 111.569 286.992 110.897C286.787 110.579 286.542 110.295 286.258 110.075C284.48 108.694 283.011 110.177 282.949 110.239L282.672 109.971C282.69 109.953 284.448 108.182 286.496 109.771C286.805 110.011 287.076 110.318 287.3 110.664C287.736 110.369 288.258 110.156 288.865 110.08C290.022 109.935 291.177 110.75 292.033 111.837C293.135 110.641 294.703 109.757 295.797 110.087C296.488 110.297 297.141 110.962 297.64 111.784C298.104 111.181 298.622 110.657 299.125 110.325C299.931 109.791 300.455 109.914 300.753 110.11C301.06 110.311 301.319 110.581 301.536 110.893C301.778 110.701 302.032 110.537 302.284 110.41C303.217 109.946 304.074 109.981 304.697 110.507L304.448 110.803C303.776 110.235 302.912 110.53 302.457 110.757C302.208 110.881 301.965 111.041 301.739 111.221C302.36 112.341 302.48 113.8 302.125 114.509C301.901 114.955 301.501 115.109 301.032 114.936C300.19 114.627 299.984 114.047 299.959 113.613C299.912 112.786 300.487 111.842 301.236 111.149C301.042 110.861 300.811 110.611 300.54 110.433C300.176 110.193 299.684 110.417 299.337 110.648C298.836 110.981 298.31 111.528 297.846 112.147C298.425 113.248 298.725 114.532 298.506 115.359C298.4 115.761 298.093 116.359 297.215 116.361ZM297.599 112.488C296.834 113.602 296.296 114.862 296.421 115.539C296.46 115.754 296.566 115.874 296.751 115.915C297.506 116.086 297.973 115.867 298.132 115.26C298.317 114.56 298.074 113.463 297.599 112.488ZM292.017 112.461C291.664 112.902 291.387 113.366 291.239 113.802C290.946 114.666 291.186 115.248 291.953 115.539C292.262 115.654 292.671 115.747 292.867 115.525C293.17 115.181 292.992 114.204 292.435 113.151C292.308 112.918 292.17 112.685 292.017 112.461ZM287.191 111.239C286.517 111.84 286.138 112.689 286.055 113.463C285.983 114.121 286.145 114.657 286.447 114.763C286.937 114.936 287.297 114.825 287.514 114.433C287.907 113.717 287.764 112.338 287.191 111.239ZM301.436 111.484C300.767 112.128 300.31 112.953 300.347 113.59C300.372 114.052 300.649 114.382 301.166 114.571C301.45 114.675 301.647 114.599 301.781 114.331C302.078 113.74 301.951 112.472 301.436 111.484Z" fill="#1DA492"/>
<path d="M308.407 78.7117C310.725 80.8962 310.434 84.9143 307.453 85.8079C305.206 86.4822 301.853 85.5816 300.195 82.7136C298.539 79.8456 299.301 77.4855 301.336 76.3125C303.368 75.1371 305.996 76.4395 308.407 78.7117Z" fill="#F4FFF5"/>
<path d="M293.233 62.5659H292.962C292.468 62.5659 292.066 62.1617 292.066 61.6699V50.5603C292.066 50.0661 292.47 49.6643 292.962 49.6643H293.233C293.727 49.6643 294.129 50.0684 294.129 50.5603V61.6699C294.131 62.1617 293.727 62.5659 293.233 62.5659Z" fill="#F4FFF5"/>
<path d="M326.842 75.4858L326.695 75.2295C326.452 74.8092 326.598 74.2642 327.018 74.0217L332.465 70.8766C332.885 70.6341 333.43 70.7796 333.673 71.1999L333.821 71.4562C334.063 71.8765 333.918 72.4215 333.497 72.6639L328.05 75.8091C327.627 76.0515 327.085 75.9061 326.842 75.4858Z" fill="#F4FFF5"/>
<path d="M330.562 91.0221C330.562 90.454 331.026 89.9899 331.594 89.9899H345.37C345.939 89.9899 346.403 90.454 346.403 91.0221C346.403 91.5901 345.939 92.0543 345.37 92.0543H331.594C331.026 92.0543 330.562 91.5901 330.562 91.0221Z" fill="#F4FFF5"/>
<path d="M311.308 67.2235C310.786 67.0018 310.542 66.3922 310.763 65.8703L318.077 48.7267C318.298 48.2049 318.908 47.9601 319.432 48.1818C319.954 48.4034 320.199 49.0131 319.977 49.535L312.664 66.6785C312.44 67.2004 311.83 67.4451 311.308 67.2235Z" fill="#F4FFF5"/>
<path d="M260.734 75.4858L260.882 75.2295C261.125 74.8092 260.979 74.2642 260.559 74.0217L255.112 70.8766C254.691 70.6341 254.146 70.7796 253.904 71.1999L253.756 71.4562C253.514 71.8765 253.659 72.4215 254.079 72.6639L259.527 75.8091C259.947 76.0515 260.492 75.9061 260.734 75.4858Z" fill="#F4FFF5"/>
<path d="M257.013 91.0221C257.013 90.454 256.549 89.9899 255.981 89.9899H242.204C241.636 89.9899 241.172 90.454 241.172 91.0221C241.172 91.5901 241.636 92.0543 242.204 92.0543H255.981C256.549 92.0543 257.013 91.5901 257.013 91.0221Z" fill="#F4FFF5"/>
<path d="M276.268 67.2235C276.79 67.0018 277.034 66.3922 276.813 65.8703L269.499 48.7267C269.278 48.2049 268.668 47.9601 268.146 48.1818C267.624 48.4034 267.38 49.0131 267.601 49.535L274.915 66.6785C275.136 67.2004 275.746 67.4451 276.268 67.2235Z" fill="#F4FFF5"/>
<path d="M266.594 148.877C266.608 148.487 266.91 144.284 273.314 144.065C273.314 144.065 270.166 144.441 269.621 145.824C269.621 145.824 271.764 144.113 273.51 144.665C275.256 145.215 276.281 148.274 276.293 149.279C276.302 150.286 275.332 153.528 274.226 153.805C273.806 153.909 273.323 153.881 272.884 153.807C273.18 154.267 273.468 154.775 273.743 155.343C276.297 160.587 273.662 165.713 271.501 165.145C270.113 164.783 269.721 167.15 269.721 167.15L256.244 156.239C256.242 156.236 261.193 145.993 266.594 148.877Z" fill="#3A4744"/>
<path d="M261.9 303.381L264.764 304.448C264.764 304.448 277.197 287.203 278.728 272.031C279 269.323 278.91 266.697 278.319 264.275C278.319 264.275 278.441 263.58 278.654 262.354C278.753 261.781 278.873 261.093 279.012 260.301C279.416 257.985 279.972 254.816 280.607 251.207C282.071 242.903 283.965 232.288 285.438 224.485L284.667 224.238L276.321 221.545L274.596 216.068L268.382 214.433C268.382 214.433 266.994 217.149 265.752 229.976C265.524 231.66 265.316 233.514 265.159 235.528C264.676 241.67 264.639 249.288 265.75 257.998C266.034 260.229 266.394 262.529 266.842 264.896C267.17 266.63 267.218 268.993 267.08 271.706C266.452 284.104 261.9 303.381 261.9 303.381Z" fill="#485953"/>
<path d="M265.161 235.525L278.656 262.351C278.755 261.779 278.875 261.09 279.014 260.298C279.418 257.982 279.975 254.814 280.61 251.205C282.074 242.901 283.967 232.285 285.441 224.483L284.669 224.236L276.324 221.543L274.599 216.066L266.528 211.59C266.528 211.59 266.526 212.84 265.826 226.487C265.595 228.17 265.316 233.512 265.161 235.525Z" fill="#313836"/>
<path d="M271.094 217.874L271.405 215.195C276.638 216.585 291.23 210.085 291.23 210.085C291.23 210.085 295.694 215.768 295.029 226.45C294.703 231.664 294.11 253.821 293.491 260.379C293.267 262.755 293.07 264.446 292.99 265.122C292.987 265.125 292.987 265.127 292.987 265.129C292.962 265.335 293.036 265.531 293.14 265.709C294.052 267.258 294.807 268.87 295.428 270.521C301.513 286.734 294.491 306.699 294.491 306.699L292.669 305.965C292.669 305.965 288.674 283.746 285.427 273.93C284.875 272.265 284.349 270.955 283.864 270.175C282.453 267.896 281.141 264.173 279.954 259.746C277.707 251.376 275.899 240.488 274.694 232.082C273.669 224.961 271.094 217.874 271.094 217.874Z" fill="#485953"/>
<path d="M233.959 208.21L233.553 211.29C233.553 211.29 235.407 211.043 235.712 211.022C236.666 210.958 239.485 210.775 242.106 210.493C246.048 210.103 248.907 210.013 250.77 208.865C253.608 207.134 258.266 201.825 261.298 196.518C261.386 196.389 261.45 196.259 261.515 196.128C263.097 193.311 264.2 190.517 264.288 188.286C264.353 186.921 264.2 185.75 263.921 184.734C263.554 183.39 262.947 182.33 262.318 181.529C262.231 181.4 262.145 181.27 262.016 181.162C260.977 179.926 259.958 179.407 259.958 179.407C259.439 179.19 257.712 181.284 257.127 181.912L256.638 183.365C256.162 183.864 250.927 200.686 248.567 203.307C247.549 204.434 242.806 206.203 238.485 207.401C235.675 208.173 233.959 208.21 233.959 208.21Z" fill="#8D9F97"/>
<path d="M261.098 185.381C262.74 186.143 264.725 186.663 267.125 186.792C276.121 187.286 278.165 179.398 278.537 174.163C277.239 173.694 276.103 173.738 275.449 173.773C274.927 173.8 274.387 173.851 273.907 173.904C273.681 173.93 273.452 173.867 273.272 173.726C272.138 172.837 270.413 170.145 269.376 165.9L268.988 166.081L262.495 169.133C262.495 169.133 263.185 171.246 263.693 173.267C263.913 174.142 264.1 175.003 264.18 175.668C264.257 176.297 263.901 176.895 263.319 177.144C263.319 177.144 263.319 177.146 263.317 177.151C263.252 177.317 261.841 180.915 261.098 185.381Z" fill="#B4BDB8"/>
<path d="M293.11 213.011C293.036 216.34 269.6 219.289 265.568 217.056C265.568 217.056 264.522 212.011 263.189 206.342C262.787 204.635 262.36 202.875 261.931 201.178C260.917 197.188 259.873 193.549 259.072 191.819C258.989 191.639 258.915 191.466 258.848 191.283C257.051 186.522 260.414 181.432 258.093 179.927C258.093 179.927 259.469 178.659 263.321 177.146C263.321 177.146 263.321 177.149 263.319 177.153C263.258 177.377 262.914 180.539 263.575 181.774C264.877 184.217 269.969 182.94 272.29 179.924C273.652 178.16 274.705 176.375 275.183 174.705C275.292 174.329 275.449 173.773 275.449 173.773C275.449 173.773 279.744 173.191 282.155 174.167C282.155 174.167 281.201 176.236 280.852 178.52C280.818 178.737 280.792 178.954 280.769 179.174C280.723 179.633 280.709 180.095 280.735 180.543C280.769 181.137 281.076 181.663 281.564 182.178C282.009 182.649 282.612 183.113 283.293 183.612C283.741 183.935 284.219 184.272 284.713 184.642C284.757 187.33 284.568 191.752 285.064 196.47C285.189 197.668 285.588 198.811 286.212 199.825C286.461 200.231 286.745 200.612 287.062 200.97C289.602 203.811 293.195 212.623 293.11 213.011Z" fill="#1DA492"/>
<path d="M262.495 169.133C262.495 169.133 263.186 171.244 263.694 173.267C267.488 172.209 268.64 168.219 268.989 166.08L262.495 169.133Z" fill="#8D9F97"/>
<path d="M261.695 171.369C261.695 171.369 270.775 169.267 269.378 163.633C267.983 157.998 268.214 153.934 262.358 155.036C256.502 156.139 255.913 158.566 255.92 160.562C255.932 162.557 259.296 171.77 261.695 171.369Z" fill="#B4BDB8"/>
<path d="M255.413 157.363C256.39 155.322 257.538 155.431 258.256 155.793C262.521 151.847 266.707 155.07 266.707 155.07C268.317 158.961 271.808 160.55 271.808 160.55C271.808 160.55 270.414 161.977 266.37 161.947C265.135 161.938 263.895 161.37 262.763 160.589C264.943 162.783 267.497 164.12 267.497 164.12C262.438 163.152 259.043 157.294 258.694 156.671C258.265 157.303 257.445 158.652 257.376 159.79C257.281 161.337 257.815 164.339 256.928 164.453C256.933 164.455 253.949 160.428 255.413 157.363Z" fill="#3A4744"/>
<path d="M258.092 179.924C258.092 179.924 257.286 180.388 255.812 184.889C255.812 184.889 257.501 186.986 259.558 186.789C259.558 186.792 259.833 180.439 258.092 179.924Z" fill="#1DA492"/>
<path d="M283.898 308.187H298.317C298.317 308.187 298.664 305.988 297.911 304.323C297.19 302.723 296.059 301.996 296.329 300.06C295.412 301.003 293.92 302.06 291.835 301.781C291.579 302.194 290.186 304.411 289.334 305.023C288.39 305.697 284.189 305.457 283.898 308.187Z" fill="#313836"/>
<path d="M252.942 308.187H267.361C267.361 308.187 267.899 305.887 266.952 304.323C266.114 302.938 266.435 302.15 267.056 301.005C266.403 301.273 265.558 301.515 264.627 301.462C263.909 301.421 263.149 301.095 262.482 300.707C261.861 301.414 259.205 304.425 258.374 305.023C257.434 305.697 253.233 305.457 252.942 308.187Z" fill="#313836"/>
<path d="M239.921 198.081C239.921 198.081 238.656 196.377 237.866 196.019C237.076 195.661 236.328 193.463 235.892 194.135C235.626 194.544 236.298 196.068 236.127 196.412C235.954 196.756 234.211 196.029 233.906 195.541C233.7 195.213 231.904 193.045 231.862 194.045C231.821 195.045 233.391 198.883 234.164 199.37C234.938 199.86 237.866 200.518 237.866 200.518L239.921 198.081Z" fill="#B4BDB8"/>
<path d="M279.216 188.732C275.955 196.708 263.407 206.586 263.407 206.586L263.19 206.342C262.788 204.635 262.361 202.875 261.932 201.178L275.297 188.734H279.216V188.732Z" fill="#1B5F56"/>
<path d="M238.274 198.243L237.865 200.518C237.865 200.518 245.038 202.157 246.617 202.504L246.636 202.513C249.367 203.055 252.448 203.614 255.133 203.896C257.029 204.078 258.727 204.12 259.971 203.954C260.096 203.94 260.202 203.917 260.338 203.884C263.41 203.273 268.411 199.612 272.963 195.317C273.593 194.726 274.203 194.123 274.806 193.542C277.004 191.357 278.988 189.122 280.491 187.097C281.403 185.893 282.16 184.764 282.661 183.781C282.844 183.436 283.017 183.111 283.144 182.785C285.733 177.061 283.26 174.969 283.26 174.969C283.209 174.922 283.16 174.874 283.091 174.819C282.636 174.514 281.969 174.613 281.14 175.017C280.098 175.516 278.784 176.509 277.323 177.767C275.032 179.79 261.294 196.513 258.089 197.151C255.309 197.703 238.274 198.243 238.274 198.243Z" fill="#B4BDB8"/>
<path d="M281.81 174.043C281.81 174.043 284.609 174.828 284.854 177.76C285.098 180.693 284.717 189.768 284.717 189.768C284.717 189.768 275.566 187.145 271.839 181.547C271.841 181.547 278.561 174.114 281.81 174.043Z" fill="#1DA492"/>
</svg>
