<svg width="410" height="401" viewBox="0 0 410 401" fill="none" xmlns="http://www.w3.org/2000/svg">
<path opacity="0.95" d="M177.907 179.515H76.7708C68.7809 179.515 62.3027 173.022 62.3027 165.015V63.6527C62.3027 55.645 68.7809 49.1523 76.7708 49.1523H177.907C185.896 49.1523 192.375 55.645 192.375 63.6527V165.015C192.375 173.022 185.896 179.515 177.907 179.515Z" fill="#C6D5C8"/>
<path d="M157.449 149.837H97.2295V152.818H157.449V149.837Z" fill="#869892"/>
<path d="M148.922 159.231H105.76V162.212H148.922V159.231Z" fill="#869892"/>
<path opacity="0.95" d="M374.749 303.785H230.818C221.405 303.785 213.775 296.138 213.775 286.705V111.449C213.775 102.016 221.405 94.3687 230.818 94.3687H374.749C384.161 94.3687 391.791 102.016 391.791 111.449V286.705C391.791 296.138 384.161 303.785 374.749 303.785Z" fill="#C4D3C6"/>
<path d="M308.605 217.91H294.487V220.53H308.605V217.91Z" fill="#6D9472"/>
<path d="M323.044 241.926H240.887V247H323.044V241.926Z" fill="#869892"/>
<path d="M307.323 266.285H240.887V271.359H307.323V266.285Z" fill="#869892"/>
<path d="M279.835 254.105H240.887V259.179H279.835V254.105Z" fill="#869892"/>
<path d="M344.535 115.251V117.814H359.59V131.975H362.148V115.251H344.535ZM242.3 131.973H244.857V117.811H259.912V115.248H242.3V131.973ZM359.59 205.046V219.213H344.535V221.775H362.148V205.046H359.59ZM244.857 205.046H242.3V221.775H259.912V219.213H244.857V205.046Z" fill="#6D9472"/>
<path d="M354.177 271.732C345.874 271.732 339.12 264.963 339.12 256.641C339.12 248.319 345.874 241.55 354.177 241.55C362.481 241.55 369.235 248.319 369.235 256.641C369.235 264.963 362.481 271.732 354.177 271.732ZM354.177 244.474C347.482 244.474 342.035 249.933 342.035 256.643C342.035 263.354 347.482 268.813 354.177 268.813C360.873 268.813 366.32 263.354 366.32 256.643C366.32 249.931 360.873 244.474 354.177 244.474Z" fill="#2AC28C"/>
<path d="M353.218 262.583L346.377 255.727L348.436 253.66L353.218 258.45L359.918 251.735L361.977 253.801L353.218 262.583Z" fill="#2AC28C"/>
<path opacity="0.95" d="M205.189 400.879C318.288 400.879 409.973 395.748 409.973 389.418C409.973 383.089 318.288 377.958 205.189 377.958C92.0894 377.958 0.404297 383.089 0.404297 389.418C0.404297 395.748 92.0894 400.879 205.189 400.879Z" fill="#C5D9DA"/>
<path opacity="0.95" d="M288.82 87.1371H217.045C210.475 87.1371 205.151 81.8011 205.151 75.2169V12.7988C205.151 6.21467 210.475 0.878662 217.045 0.878662H288.82C295.39 0.878662 300.714 6.21467 300.714 12.7988V75.2169C300.716 81.8011 295.39 87.1371 288.82 87.1371Z" fill="#C6D5C8"/>
<path d="M256.361 70.8226H248.783V72.2289H256.361V70.8226Z" fill="#6D9472"/>
<path d="M257.627 17.3464C257.627 17.3464 262.135 19.8278 260.705 25.93C259.272 32.0322 258.73 32.8379 259.891 35.3045C261.055 37.7711 262.076 48.102 260.836 49.9927C259.595 51.8834 247.019 40.7715 245.62 31.8839C244.222 22.9963 247.369 19.2198 248.483 17.8111C249.603 16.4023 253.65 15.08 257.627 17.3464Z" fill="#3A4744"/>
<path d="M266.094 67.7802H261.266C261.031 65.3927 260.817 63.7318 260.861 63.4872C260.933 63.0818 256.057 50.2645 255.601 49.2067C255.142 48.1489 253.355 45.3067 253.123 42.63C252.886 39.9533 256.371 38.8733 256.371 38.8733C261.071 39.7186 262.664 46.2335 262.664 46.2335C262.664 46.2335 264.637 59.4487 265.635 63.1683C265.894 64.1199 266.032 65.803 266.094 67.7802Z" fill="#B4BDB8"/>
<path d="M263.665 49.4143L256.476 52.4518C256.476 52.4518 249.867 36.0162 255.406 37.8525C260.928 39.6814 263.413 43.1193 263.665 49.4143Z" fill="#355951"/>
<path d="M262.065 57.1527C261.855 58.7839 260.994 64.5648 261.187 66.1243C261.219 66.3813 261.325 66.9745 261.485 67.7802H244.152C244.613 66.1317 245.032 64.671 245.286 63.8208C246.129 61.0231 245.32 60.2742 244.896 58.035C244.731 57.1576 244.149 55.4943 243.513 53.6135C243.301 52.9857 243.081 52.3307 242.872 51.6733C242.11 49.3056 241.755 46.8835 241.535 45.4723C240.49 38.7893 245.619 38.1467 245.619 38.1467C247.525 37.7933 250.854 36.7626 250.854 36.7626L256.07 37.8501C256.07 37.8501 256.565 38.0355 257.29 38.5718C257.29 38.5718 257.293 38.5718 257.293 38.5743C257.641 38.8313 258.043 39.1699 258.467 39.6049C259.036 40.1906 260.171 41.8713 261.303 43.715C261.648 44.281 261.998 44.8618 262.326 45.4327C263.386 47.2715 264.141 48.7545 264.116 50.4277C264.094 52.0762 262.274 55.519 262.065 57.1527Z" fill="#355951"/>
<path d="M256.07 37.8527C256.07 37.8527 259.337 43.4482 258.121 43.8659C256.906 44.2836 250.504 42.8699 248.001 37.5833C248.003 37.5858 252.205 35.6704 256.07 37.8527Z" fill="#B4BDB8"/>
<path d="M255.603 40.4081C255.603 40.4081 252.701 41.6389 250.074 37.5881C250.074 37.5881 250.78 32.9862 249.288 30.3268C247.796 27.6675 255.813 33.5175 255.813 33.5175C255.813 33.5175 255.682 34.0662 255.549 34.8769C255.48 35.2921 255.408 35.774 255.354 36.2856C255.31 36.7107 255.275 37.1606 255.26 37.6054C255.223 38.6385 255.297 39.6642 255.603 40.4081Z" fill="#B4BDB8"/>
<path d="M248.398 46.6759C247.801 49.7554 243.515 53.6134 243.515 53.6134C243.303 52.9832 243.086 52.3307 242.874 51.6758C245.831 49.7851 248.398 46.6759 248.398 46.6759Z" fill="#393D63"/>
<path d="M247.323 49.1276C247.052 50.2496 245.801 61.6186 245.937 62.0066C246.016 62.2291 246.623 64.8588 247.229 67.7801H241.634C241.062 65.8968 240.721 64.3323 240.803 63.4475C241.16 59.6142 239.863 47.3901 239.863 47.3901C239.863 47.3901 238.702 39.9953 244.825 39.0734C244.825 39.0734 248.44 39.5504 248.66 42.2271C248.877 44.9037 247.594 48.008 247.323 49.1276Z" fill="#B4BDB8"/>
<path d="M239.409 50.6969L247.007 52.4764C247.007 52.4764 253.034 40.7491 247.606 38.6088C241.885 36.3498 238.038 44.3007 239.409 50.6969Z" fill="#355951"/>
<path d="M256.928 17.9965C256.928 17.9965 263.53 20.426 259.345 31.8444C255.16 43.2628 246.618 29.8944 247.908 22.8777C249.197 15.8611 256.928 17.9965 256.928 17.9965Z" fill="#B4BDB8"/>
<path d="M260.355 24.9389C260.355 24.9389 256.871 28.0555 251.278 28.2013C251.278 28.2013 249.971 31.3945 249.759 32.3732C249.759 32.3732 244.232 22.8653 250.585 18.0631C256.94 13.261 262.703 22.9469 260.355 24.9389Z" fill="#3A4744"/>
<path d="M252.036 28.8859C252.033 28.0406 251.604 26.0955 250.327 26.5725C249.049 27.0495 250.193 31.0237 251.034 30.8211C251.034 30.8236 252.043 30.8878 252.036 28.8859Z" fill="#B4BDB8"/>
<path d="M255.266 37.4077C252.164 36.5476 250.963 33.5843 250.926 33.4854C253.448 36.7528 255.352 36.2832 255.352 36.2832C255.308 36.7083 255.305 36.9752 255.266 37.4077Z" fill="#5F776A"/>
<path d="M275.647 16.488V17.8646H283.728V25.467H285.102V16.488H275.647ZM220.766 25.4646H222.14V17.8622H230.221V16.4855H220.766V25.4646ZM283.731 64.69V72.2949H275.65V73.6715H285.104V64.69H283.731ZM222.137 64.69H220.764V73.6715H230.218V72.2949H222.137V64.69Z" fill="#6D9472"/>
<path d="M132.402 135.27H122.279V137.148H132.402V135.27Z" fill="#6D9472"/>
<path d="M157.679 62.6936V64.53H168.475V74.683H170.307V62.6912H157.679V62.6936ZM84.3721 74.6854H86.2043V64.5324H97.0005V62.6961H84.3721V74.6854ZM168.475 127.082V137.24H157.679V139.078H170.307V127.084H168.475V127.082ZM86.2068 127.082H84.3745V139.076H97.0029V137.237H86.2068V127.082Z" fill="#6D9472"/>
<path d="M127.658 30.3094C127.658 30.3094 134.035 26.2091 139.785 33.4976C145.536 40.7861 143.467 47.7929 142.266 54.3375C141.075 60.8277 135.278 75.6765 137.741 82.2186C140.205 88.7608 137.056 92.1665 137.056 92.1665C137.056 92.1665 117.281 97.2405 119.586 67.4316C121.89 37.625 127.658 30.3094 127.658 30.3094Z" fill="#3A4744"/>
<path d="M115.616 96.383C115.616 96.383 109.826 111.761 104.356 126.093H89.5186C91.7848 119.076 94.0856 111.598 94.3396 110.223C94.8229 107.554 95.0449 99.6429 98.083 94.0943C101.126 88.5458 108.369 86.3511 108.369 86.3511C120.321 86.8899 115.616 96.383 115.616 96.383Z" fill="#3D6053"/>
<path d="M152.816 111.397C152.816 111.397 150.505 118.938 148.271 126.093H99.8535C99.6489 125.463 99.3973 124.803 99.094 124.101C95.5504 115.876 93.8266 108.871 95.5504 104.2C97.2741 99.5292 107.096 86.7366 109.634 86.2299C112.166 85.7233 119.458 82.2706 119.458 82.2706C124.225 81.5588 130.999 81.9122 133.332 82.7278C135.66 83.5385 148.638 84.8583 153.398 88.5631C158.88 92.8289 152.816 111.397 152.816 111.397Z" fill="#98BEB0"/>
<path d="M117.131 98.5654L112.699 93.3628L116.549 79.6656C116.546 79.6656 117.838 87.2928 117.131 98.5654Z" fill="#7DA798"/>
<path d="M115.979 73.8304C115.979 73.8304 117.433 87.2433 117.13 91.608C117.13 91.608 124.711 99.2203 133.332 82.7205C133.332 82.7205 129.704 75.9189 132.434 66.6531C135.164 57.3874 115.979 73.8304 115.979 73.8304Z" fill="#B4BDB8"/>
<path d="M117.131 91.6079V98.5652L125.853 92.0305L117.131 91.6079Z" fill="#B4BDB8"/>
<path d="M117.131 98.5654L120.751 94.0721L132.953 81.8851L136.898 85.6937L117.131 98.5654Z" fill="#7DA798"/>
<path d="M157.901 99.0917C157.901 99.0917 155.81 106.865 150.153 126.093H124.955C124.173 115.977 123.739 107.917 123.915 105.481C124.405 98.6246 134.647 83.0516 134.647 83.0516C134.647 83.0516 141.026 83.8227 147.877 85.313C155.694 87.0109 157.901 99.0917 157.901 99.0917Z" fill="#3D6053"/>
<path d="M114.048 84.673C107.806 92.1592 105.59 108.607 105.237 126.093H99.6341C93.1337 112.463 94.8723 106.279 94.8723 106.279C98.268 94.6282 108.366 86.3487 108.366 86.3487L114.048 84.673Z" fill="#3D6053"/>
<path d="M112.696 93.3628L107.11 94.91L116.545 79.6656L112.696 93.3628Z" fill="#C8E6DB"/>
<path d="M120.75 94.0721L125.852 100.772L136.276 83.2667L132.952 81.8851L120.75 94.0721Z" fill="#C8E6DB"/>
<path d="M116.277 76.7813L116.546 79.4233C116.546 79.4233 122.553 80.6022 130.437 70.9633C130.437 70.9633 124.849 77.7946 116.277 76.7813Z" fill="#5F776A"/>
<path d="M117.806 76.9765C115.434 76.89 108.808 76.1115 105.54 60.8153C101.548 42.1281 110.371 32.4348 117.925 30.6381C125.48 28.8413 132.447 31.4734 136.316 41.2409C136.316 41.2409 139.145 48.8556 134.555 62.4242C129.966 75.9904 120.349 77.0704 117.806 76.9765Z" fill="#B4BDB8"/>
<path d="M123.87 42.7609C123.87 42.7609 113.725 43.3936 104.292 57.5925C104.292 57.5925 99.8781 40.5068 111.417 32.7092C122.955 24.9116 131.036 31.6168 133.85 35.0151C133.85 35.0151 137.889 35.9444 138.015 43.6234C138.143 51.3 143.292 62.8865 131.99 68.3831C131.99 68.3831 133.068 59.6191 132.072 57.6147C131.076 55.6103 127.621 56.9622 123.87 42.7609Z" fill="#3A4744"/>
<path d="M131.515 54.2089C132.027 52.8793 133.421 52.3454 134.188 53.769C134.955 55.1951 134.042 60.7189 131.993 61.3244C129.949 61.9299 130.479 56.9029 131.515 54.2089Z" fill="#B4BDB8"/>
<path d="M167.676 126.091H151.181C149.448 121.832 147.835 118.058 146.757 115.344C143.186 106.336 128.97 89.3959 138.028 83.7485C138.028 83.7485 149.899 83.0194 155.849 89.9594C161.805 96.9044 161.479 105.144 162.993 108.726C164.115 111.38 166.305 120.52 167.676 126.091Z" fill="#3D6053"/>
<path d="M358.937 195.251H340.56C339.921 190.815 339.443 187.579 339.443 187.579C339.443 187.579 339.174 190.565 338.765 195.251H261.492C261.135 191.887 260.834 189.824 260.679 189.742C260.457 189.628 259.635 191.865 258.592 195.251H237.779C243.207 173.588 250.876 147.652 255.626 145.821C263.67 142.719 296.465 132.586 296.465 132.586H315.187C315.187 132.586 348.451 142.099 351.546 152.434C353.748 159.807 356.636 176.05 358.937 195.251Z" fill="#4A9F81"/>
<path d="M339.221 181.156L338.617 181.042C338.649 180.874 341.682 164.211 337.374 154.765L337.934 154.508C342.323 164.135 339.251 180.988 339.221 181.156Z" fill="#44674E"/>
<path d="M339.102 177.812C339.085 177.681 337.312 164.767 333.423 159.931L333.901 159.545C337.899 164.518 339.64 177.194 339.711 177.73L339.102 177.812Z" fill="#44674E"/>
<path d="M306.687 71.7246C306.687 71.7246 324.166 74.4853 321.505 101.892C318.844 129.299 303.417 127.052 302.386 127.025C301.355 126.998 286.899 127.524 285.772 94.0622C285.772 94.0622 285.282 69.3173 306.687 71.7246Z" fill="#B4BDB8"/>
<path d="M314.846 118.953C314.846 118.953 314.368 130.225 315.455 132.667C316.543 135.107 301.032 142.946 291.572 134.212C291.572 134.212 293.858 121.961 293.222 117.618C292.586 113.276 314.846 118.953 314.846 118.953Z" fill="#B4BDB8"/>
<path d="M321.773 94.1486C321.773 94.1486 323.687 92.0997 324.39 94.1734C325.093 96.247 321.421 105.515 321.66 105.933C321.66 105.933 321.31 106.736 320.851 106.294C320.392 105.851 321.773 94.1486 321.773 94.1486Z" fill="#B4BDB8"/>
<path d="M285.969 93.8026C285.969 93.8026 284.095 91.7167 283.353 93.7779C282.611 95.8392 286.102 105.177 285.856 105.587C285.856 105.587 286.189 106.398 286.657 105.965C287.126 105.53 285.969 93.8026 285.969 93.8026Z" fill="#B4BDB8"/>
<path d="M321.766 98.3527L319.263 101.707C319.263 101.707 319.335 94.3562 318.933 93.2045C318.531 92.0528 319.406 88.039 319.071 87.2086C318.736 86.3782 307.116 89.4676 288.061 87.567C288.061 87.567 290.182 94.1882 288.939 94.6602C287.696 95.1298 288.305 103.269 288.305 103.269L286.248 100.943C286.248 100.943 283.925 87.0406 284.152 84.7198C284.453 81.6304 283.383 67.2067 310.196 69.6831C313.266 69.9673 316.213 71.0672 318.664 72.9406C321.419 75.0463 324.252 78.331 323.993 82.8415C323.65 88.8027 321.766 98.3527 321.766 98.3527Z" fill="#3A4744"/>
<path d="M315.456 132.665C315.456 132.665 319.399 133.507 302.897 149.357C302.897 149.357 291.193 136.382 291.57 134.207C291.95 132.037 315.456 132.665 315.456 132.665Z" fill="#B4BDB8"/>
<path d="M258.935 195.251H237.207C240.583 182.313 244.654 168.682 247.177 159.931C251.522 144.884 257.448 144.464 257.448 144.464L260.676 189.742C260.676 189.742 259.951 191.939 258.935 195.251Z" fill="#355951"/>
<path d="M302.896 149.357L307.318 158.082L321.258 136.095L315.456 132.665L302.896 149.357Z" fill="#3F8069"/>
<path d="M359.466 195.251H340.417C339.926 191.299 339.603 188.699 339.603 188.699C339.603 188.699 339.563 191.213 339.482 195.251H312.307C312.341 194.038 312.408 192.906 312.516 191.853C314.79 170.165 315.456 132.665 315.456 132.665C315.456 132.665 344.495 136.575 351.546 152.432C355.612 161.594 358.021 179.905 359.466 195.251Z" fill="#355951"/>
<path d="M302.897 149.358L296.655 158.082L287.635 141.916L291.571 134.21L302.897 149.358Z" fill="#3F8069"/>
<path d="M291.573 134.21C291.573 134.21 288.217 148.596 286.574 169.448C286.111 175.375 283.985 184.732 281.147 195.249H261.241L260.676 189.74L257.448 144.461L291.573 134.21Z" fill="#355951"/>
<path d="M314.78 127.079L324.482 132.665L314.339 165.83L314.78 127.079Z" fill="#355951"/>
<path d="M292.51 128.436L291.57 134.209L285.173 164.52L281.894 132.586L292.51 128.436Z" fill="#355951"/>
<path d="M294.51 123.478C294.51 123.478 298.221 127.551 303.777 127.106C309.333 126.661 313.21 123.276 313.21 123.276C313.21 123.276 310.835 129.076 303.54 129.435C296.246 129.795 294.51 123.478 294.51 123.478Z" fill="#5F776A"/>
<path d="M99.1726 143.918C95.1802 145.522 97.4588 153.769 97.0617 168.798C96.6672 183.83 85.6195 186.554 85.6195 186.554C85.6195 186.554 90.4874 180.798 91.4763 175.528C92.4651 170.259 81.5457 156.945 86.3149 146.493C90.0016 138.419 99.6683 143.614 99.6683 143.614L99.1726 143.918Z" fill="#394B45"/>
<path d="M162.721 224.363C162.721 224.363 160.756 223.681 159.6 223.896C158.443 224.111 161.789 218.13 161.789 218.13L162.721 224.363Z" fill="#B4BDB8"/>
<path d="M161.789 218.13C161.789 218.13 164.884 215.404 165.37 215.001C165.856 214.601 167.604 214.428 169.629 214.406C171.653 214.383 174.4 215.261 174.595 215.55C174.793 215.839 175.125 216.042 175.113 216.939C175.103 217.836 174.6 218.59 174.6 218.59C174.6 218.59 175.106 219.702 174.418 220.584C174.418 220.584 174.847 221.654 173.902 222.527C173.902 222.527 174.292 223.582 173.552 224.158C173.552 224.158 171.799 224.334 171.17 224.586C170.541 224.838 166.869 224.954 163.333 224.521C163.335 224.521 159.412 224.2 161.789 218.13Z" fill="#B4BDB8"/>
<path d="M167.767 218.96C167.767 218.96 166.978 220.878 166.485 221.303C165.991 221.728 169.619 224.128 169.619 224.128C169.619 224.128 170.068 219.983 167.767 218.96Z" fill="#5F776A"/>
<path d="M174.065 215.535C174.065 215.535 168.934 215.718 168.862 216.551C168.791 217.383 169.267 217.732 169.267 217.732L167.188 218.768C167.188 218.768 166.199 220.231 168.078 220.883C168.078 220.883 167.013 222.154 168.902 222.569C168.902 222.569 168.571 223.723 169.415 224.069C170.255 224.415 173.553 224.16 173.553 224.16C173.553 224.16 174.458 223.854 174.135 222.591C174.135 222.591 174.963 221.773 174.524 220.614C174.524 220.614 175.197 219.853 174.712 218.604C174.712 218.604 175.957 216.813 174.593 215.552C174.596 215.55 174.282 215.525 174.065 215.535Z" fill="#8D9F97"/>
<path d="M168.842 216.501C168.842 216.501 169.688 211.719 169.424 209.628C169.365 209.156 169.38 208.978 168.921 208.854C168.46 208.731 167.696 210.372 167.188 211.818C166.68 213.261 165.318 215.045 165.318 215.045C165.318 215.045 165.274 216.533 168.842 216.501Z" fill="#B4BDB8"/>
<path d="M89.5105 371.488C89.5105 371.488 95.0442 379.597 96.9751 381.317C96.9751 381.317 100.837 383.326 100.955 384.93C101.182 387.963 101.453 390.79 96.3734 390.934C91.2934 391.077 88.0062 389.876 87.0765 386.794C86.1469 383.712 83.9299 381.058 83.9299 381.058V387.511H82.7857C82.7857 387.511 82.4997 381.273 82.4281 380.126C82.3566 378.979 81.607 374.567 84.0212 372.615C86.4354 370.662 89.5105 371.488 89.5105 371.488Z" fill="#313836"/>
<path d="M97.7131 381.732C97.7131 381.732 94.966 382.508 91.701 381.685C88.436 380.86 85.2992 373.025 84.3449 372.372L83.499 369.211H89.8663C89.8663 369.211 89.918 371.549 90.9464 373.554C91.9772 375.556 97.7131 381.732 97.7131 381.732Z" fill="#B4BDB8"/>
<path d="M125.436 368.457C125.436 368.457 126.267 370.422 127.833 372.471C128.982 373.974 132.555 380.143 134.129 380.573C135.702 381.003 140.567 381.863 140.997 384.587C141.426 387.31 141.64 389.248 136.849 389.463C132.055 389.678 128.908 389.964 126.62 386.596C124.331 383.227 120.682 380.788 120.682 380.788V389.579H118.822C118.822 389.579 117.964 380.429 117.463 379.784C116.963 379.139 115.676 372.113 120.109 368.457C124.541 364.802 125.436 368.457 125.436 368.457Z" fill="#313836"/>
<path d="M134.126 380.573C134.126 380.573 129.835 381.648 128.188 380.573C126.543 379.498 120.95 370.022 119.096 369.456C119.096 369.456 120.891 365.806 125.433 368.457C125.436 368.457 132.91 378.996 134.126 380.573Z" fill="#B4BDB8"/>
<path d="M87.0772 236.795C87.0772 236.795 81.0257 244.681 79.3833 254.036C77.741 263.391 80.3525 294.794 80.2809 299.418C80.2094 304.042 76.0074 318.792 76.8655 327.502C77.7237 336.212 82.4214 372.209 82.4214 372.209L92.9069 372.021C92.9069 372.021 90.8058 332.789 91.3434 329.133C91.881 325.478 93.5875 309.92 93.802 308.414C94.0166 306.909 105.747 267.096 105.747 260.351C105.747 253.606 101.669 225.789 87.0772 236.795Z" fill="#485953"/>
<path d="M117.478 239.877C117.478 239.877 127.421 277.909 128.603 283.18C129.784 288.45 132.144 295.333 132.035 296.299C131.927 297.268 130.783 313.506 130.783 313.506L127.957 368.781H117.476C117.476 368.781 114.115 333.617 113.577 326.518C113.04 319.42 117.439 308.452 116.366 305.441C115.294 302.431 99.0919 267.696 99.0919 267.696C99.0919 267.696 86.826 228.837 117.478 239.877Z" fill="#485953"/>
<path d="M114.679 182.859C114.679 182.859 120.824 183.588 123.421 187.152C126.018 190.716 126.871 196.163 127.446 197.967C128.02 199.769 135.983 216.768 136.508 217.193C137.033 217.618 144.301 217.332 148.671 217.455C154.808 217.628 162.12 217.48 162.12 217.48L161.227 226.283C161.227 226.283 132.035 226.971 130.02 224.674C125.567 219.605 115.51 201.934 115.51 201.934C115.51 201.934 105.027 187.609 114.679 182.859Z" fill="#1DA492"/>
<path d="M107.464 180.157C107.464 180.157 112.613 182.594 114.404 182.953C116.192 183.311 123.131 192.345 124.347 195.642C125.562 198.939 124.347 203.887 121.844 209.695C119.341 215.503 121.701 217.438 120.556 223.243C119.412 229.051 118.411 241.345 118.626 244.573C118.84 247.798 89.6919 248.408 83.0411 242.529C83.0411 242.529 89.7264 232.492 90.5846 231.058C91.4428 229.625 90.7276 221.81 89.941 219.803C89.1543 217.796 80.9203 201.645 80.9203 201.645C80.9203 201.645 79.6331 187.614 83.5022 184.601C86.8634 181.984 96.0271 181.052 97.6719 180.479C99.3167 179.905 104.101 179.656 107.464 180.157Z" fill="#B9DACA"/>
<path d="M109.108 191.663L112.237 187.99L109.52 178.319C109.52 178.321 108.607 183.707 109.108 191.663Z" fill="#8EAB9D"/>
<path d="M109.922 174.201C109.922 174.201 108.894 183.669 109.108 186.754C109.108 186.754 103.757 192.129 97.6709 180.479C97.6709 180.479 100.233 175.677 98.3047 169.135C96.3762 162.593 109.922 174.201 109.922 174.201Z" fill="#B4BDB8"/>
<path d="M109.108 186.751V191.662L102.948 187.051L109.108 186.751Z" fill="#B4BDB8"/>
<path d="M109.108 191.662L106.551 188.492L97.937 179.888L95.1504 182.577L109.108 191.662Z" fill="#8EAB9D"/>
<path d="M99.2021 249.219C96.7755 260.855 79.2324 247.907 79.2324 247.907C79.2324 247.907 90.6154 228.75 86.0903 213.436C86.0533 213.315 86.0188 213.194 85.9818 213.073C85.6933 212.104 85.4048 211.182 85.1162 210.31C80.9635 197.646 77.2324 194.688 77.2324 194.688C77.2324 194.688 82.5072 183.064 87.3998 182.31C92.2923 181.554 96.7435 180.714 96.7435 180.714C96.7435 180.714 103.971 191.707 104.317 196.546C104.662 201.383 101.629 237.583 99.2021 249.219Z" fill="#1DA492"/>
<path d="M125.438 196.996C125.438 196.996 124.274 207.975 122.054 213.424C122.054 213.424 121.125 225.038 121.268 229.126C121.411 233.211 122.377 248.661 122.377 248.661L117.354 251.609C116.343 252.202 115.09 251.379 115.231 250.213C116.654 238.453 121.282 193.845 111.285 181.856L115.297 183.042C115.295 183.039 123.554 190.758 125.438 196.996Z" fill="#1DA492"/>
<path d="M112.238 187.99L116.181 189.082L109.521 178.321L112.238 187.99Z" fill="#D1E6DC"/>
<path d="M106.551 188.492L102.948 193.222L95.5869 180.924L97.937 179.888L106.551 188.492Z" fill="#D1E6DC"/>
<path d="M123.858 214.764C123.858 214.764 126.191 207.371 124.822 202.149C124.822 202.149 125.009 206.761 122.255 212.843L123.858 214.764Z" fill="#1B5F56"/>
<path d="M106.199 143.636C109.967 143.273 118.435 144.78 120.201 154.753C120.201 154.753 120.025 157.472 119.471 159.629C118.916 161.784 121.11 167.961 120.63 168.294C120.149 168.628 118.119 169.12 118.119 169.12C118.119 169.12 116.238 176.07 113.838 176.124C111.436 176.179 102.27 174.73 97.5946 166.416C92.9166 158.102 90.9808 145.099 106.199 143.636Z" fill="#B4BDB8"/>
<path d="M120.2 154.753C120.2 154.753 114.265 159.234 108.221 160.368C102.174 161.503 98.9016 172.044 98.9016 172.044C98.9016 172.044 88.7441 156.755 95.7895 146.99C102.815 137.255 120.972 143.003 120.2 154.753Z" fill="#394B45"/>
<path d="M105.678 160.208C105.589 159.029 104.193 157.318 102.339 159.024C100.484 160.729 103.345 166.221 104.901 165.596C106.457 164.97 105.769 161.426 105.678 160.208Z" fill="#B4BDB8"/>
<path d="M109.935 175.568C109.796 176.304 109.658 177.167 109.542 178.076C104.47 175.177 101.812 171.483 101.812 171.483C104.746 173.9 109.935 175.568 109.935 175.568Z" fill="#5F776A"/>
<path d="M114.601 225.693L93.2524 262.753L69.5195 249.019L89.9405 211.425L114.601 225.693Z" fill="#313836"/>
<path d="M104.013 250.304C104.013 250.304 103.042 250.309 102.617 250.104C102.617 250.104 101.873 249.671 101.323 249.394C101.148 249.308 100.995 249.236 100.891 249.199C100.457 249.048 99.456 248.848 98.5115 248.191C97.5695 247.536 94.2256 243.656 94.2256 243.656L95.8038 241.248L96.9629 238.784C96.9629 238.784 103.981 239.239 104.931 239.748C105.024 239.798 105.113 239.852 105.192 239.909C105.954 240.418 106.307 241.117 106.676 241.431C106.812 241.547 108.077 242.788 108.033 243.317C107.971 244.051 107.633 244.535 107.192 244.775C107.192 244.775 107.009 246.206 106.307 246.874C106.307 246.874 106.181 248.198 105.071 248.779C105.071 248.782 104.795 250.111 104.013 250.304Z" fill="#B4BDB8"/>
<path d="M90.1448 182.118C90.1448 182.118 83.0649 181.215 79.3486 188.375C75.6348 195.535 75.6521 198.59 75.1564 202.087C74.6878 205.389 72.572 214.403 72.3575 215.332C72.1429 216.264 67.349 227.361 69.5487 231.242C71.7582 235.142 94.1964 246.619 94.0534 247.477C93.9104 248.337 97.9398 238.799 97.9398 238.799C97.9398 238.799 88.86 233.728 87.373 232.166C84.9563 229.63 79.8615 226.897 80.9096 223.75C82.1401 220.053 85.8342 207.582 86.6899 205.758C87.5481 203.929 95.6094 184.443 90.1448 182.118Z" fill="#1DA492"/>
<path d="M89.5377 198.274C89.2739 205.152 85.9818 213.073 85.9818 213.073C85.6933 212.104 85.4047 211.183 85.1162 210.31C86.9706 205.115 89.5377 198.274 89.5377 198.274Z" fill="#1B5F56"/>
<path d="M232.625 203.938L255.413 216.491L278.298 180.4L250.619 170.763L232.625 203.938Z" fill="#313836"/>
<path d="M234.07 202.853L255.382 214.593L276.784 180.84L250.898 171.828L234.07 202.853Z" fill="#F4FFF5"/>
<path d="M226.268 196.541C226.268 196.541 230.233 194.641 231.974 193.647C233.715 192.654 238.193 191.289 238.556 190.965C238.918 190.642 251.83 189.843 252.614 189.166C253.399 188.489 254.158 190.753 250.812 191.489C247.465 192.223 242.807 194.02 242.553 195.333C242.299 196.643 245.991 196.954 246.366 198.034C246.74 199.114 246.259 198.872 245.732 199.104C245.204 199.336 241.34 197.191 239.641 197.799C237.942 198.407 235.345 197.564 234.043 198.012C232.741 198.459 226.411 200.592 226.411 200.592L226.268 196.541Z" fill="#B4BDB8"/>
<path d="M256.525 211.964C256.525 211.964 259.857 208.958 261.47 207.7C263.082 206.442 266.108 202.745 266.554 202.53C267.001 202.315 272.779 190.429 273.721 189.952C274.663 189.475 272.83 187.876 270.835 190.751C268.84 193.625 265.339 197.325 264.007 197.055C262.675 196.786 263.822 193.178 262.952 192.404C262.081 191.63 262.123 192.177 261.699 192.587C261.275 192.997 261.788 197.48 260.552 198.847C259.319 200.214 259.1 202.994 258.172 204.05C257.245 205.105 252.774 210.253 252.774 210.253L256.525 211.964Z" fill="#B4BDB8"/>
<path d="M184.765 372.617C184.765 372.617 184.045 377.632 183.954 378.383C183.863 379.137 175.937 377.941 175.937 377.941L175.296 371.972C175.293 371.97 183.774 371.91 184.765 372.617Z" fill="#4C5E5A"/>
<path d="M184.037 377.746C184.037 377.746 186.55 380.766 188.979 382.083C191.408 383.4 195.226 383.922 196.663 385.286C197.702 386.27 200.441 390.506 190.35 390.422C180.26 390.335 175.394 391.02 174.314 389.396C173.234 387.773 175.877 377.407 175.877 377.407C175.877 377.407 178.267 378.27 184.037 377.746Z" fill="#313836"/>
<path d="M241.57 372.617C241.57 372.617 240.85 377.632 240.758 378.383C240.667 379.137 232.739 377.941 232.739 377.941L232.098 371.972C232.1 371.97 240.581 371.91 241.57 372.617Z" fill="#4C5E5A"/>
<path d="M240.844 377.746C240.844 377.746 243.357 380.766 245.786 382.083C248.215 383.4 257.157 384.483 258.592 385.845C259.63 386.828 261.354 390.79 247.157 390.42C237.071 390.155 232.201 391.018 231.121 389.394C230.041 387.77 232.684 377.404 232.684 377.404C232.684 377.404 234.936 378.326 240.844 377.746Z" fill="#313836"/>
<path d="M191.329 243.774C191.329 243.774 183.879 255.638 184.434 266.359C184.989 277.081 181.734 288.788 180.614 299.989C179.367 312.475 174.262 342.039 174.077 348.717C173.892 355.398 174.869 376.727 174.869 376.727L185.088 376.962C185.088 376.962 193.672 325.28 195.894 320.006C198.116 314.732 209.141 277.137 209.511 272.918C209.883 268.7 191.329 243.774 191.329 243.774Z" fill="#485953"/>
<path d="M230.543 245.381C230.543 245.381 236.155 274.77 236.898 281.332C237.64 287.894 238.133 313.091 238.503 317.193C238.873 321.296 240.974 370.867 242.949 376.962H229.884C229.884 376.962 219.855 340.925 219.855 323.874C219.855 306.823 212.107 286.806 207.106 275.556C202.105 264.305 190.655 264.038 187.58 243.166C187.58 243.166 226.38 238.76 230.543 245.381Z" fill="#485953"/>
<path d="M203.761 144.044C203.761 144.044 213.76 140.302 218.369 147.929C222.981 155.556 222.534 170.83 217.496 172.706C212.456 174.584 204.885 173.601 202.306 168.828C199.726 164.056 197.396 157.155 197.507 152.543C197.618 147.931 201.134 145.376 203.761 144.044Z" fill="#B4BDB8"/>
<path d="M216.412 173.057C216.412 173.057 215.995 175.763 216.683 177.095C217.371 178.427 203.729 178.462 203.729 178.462C203.729 178.462 202.622 171.213 200.521 165.086C198.422 158.962 216.412 173.057 216.412 173.057Z" fill="#B4BDB8"/>
<path d="M200.521 165.086C200.521 165.086 201.463 166.643 205.305 166.04C209.149 165.437 213.837 160.311 215.442 159.748C217.048 159.184 217.063 158.24 217.063 158.24L218.066 159.711L219.77 159.819C219.77 159.819 218.217 155.235 220.562 153.366C222.907 151.498 218.128 138.527 205.803 142.845C205.803 142.845 196.336 145.46 196.681 150.855C197.024 156.253 198.402 162.4 200.521 165.086Z" fill="#3A4744"/>
<path d="M217.49 176.935C217.49 176.935 217.448 174.389 216.297 174.144C215.145 173.9 203.584 172.785 202.169 173.344V176.309C202.169 176.309 204.894 177.99 217.49 176.935Z" fill="#F4FFF5"/>
<path d="M216.807 156.277C216.593 155.373 214.295 152.785 213.417 155.556C212.536 158.326 214.746 162.051 215.976 161.732C217.207 161.413 217.352 158.574 216.807 156.277Z" fill="#B4BDB8"/>
<path d="M263.373 207.023C263.368 207.02 263.361 207.02 263.354 207.02C263.436 207.058 263.446 207.06 263.373 207.023Z" fill="#323657"/>
<path d="M182.926 272.031C182.926 272.031 189.058 273.84 199.514 274.997C209.97 276.151 236.097 274.579 236.263 273.341C236.428 272.103 230.643 227.237 230.971 224.927C231.301 222.616 231.476 214.383 231.476 214.383C231.604 216.64 233.898 225.853 236.667 230.876C237.666 232.69 241.022 238.379 242.64 237.084C250.467 230.821 262.587 207.218 263.357 207.02C262.711 206.739 257.613 204.386 256.898 204.149C256.272 203.938 250.625 209.932 247.204 213.647C245.678 215.303 244.595 216.506 244.595 216.506C243.606 214.279 240.008 200.244 238.891 195.387C236.369 184.433 236.756 183.976 236.756 183.976C229.106 181.658 217.494 176.937 217.494 176.937L202.173 176.312C202.173 176.312 188.112 179.414 182.573 181.922C182.048 182.159 182.045 194.495 180.603 197.73L185.194 207.438C185.194 207.438 187.848 226.669 188.398 235.22C188.649 239.143 182.926 272.031 182.926 272.031Z" fill="#1DA492"/>
<path d="M179.966 213.741C180.365 215.036 182.183 216.128 183.361 216.608C184.116 216.914 184.964 217.013 185.815 216.855L186.414 216.744L196.915 214.791C196.915 214.791 199.213 188.274 182.57 181.92C182.131 182.063 176.289 201.867 179.966 213.741Z" fill="#1DA492"/>
<path d="M183.361 216.605C184.116 216.912 184.964 217.01 185.815 216.852L186.414 216.741L185.379 203.19L183.361 216.605Z" fill="#1B5F56"/>
<path d="M244.593 216.504L245.875 221.951C245.875 221.951 247.268 216.486 247.199 213.647C245.675 215.3 244.593 216.504 244.593 216.504Z" fill="#1B5F56"/>
<path d="M200.912 144.943C200.912 144.943 187.808 143.297 200.69 165.237L200.912 144.943Z" fill="#3A4744"/>
<path d="M267.764 178.462L269.095 176.168L258.605 172.54L257.273 174.821L267.764 178.462Z" fill="#313836"/>
</svg>
