<svg width="19" height="19" viewBox="0 0 19 19" fill="none" xmlns="http://www.w3.org/2000/svg">
<path d="M7.96672 0.299988C3.74161 0.299988 0.300049 3.74155 0.300049 7.96665C0.300049 12.1918 3.74161 15.6333 7.96672 15.6333C9.80404 15.6333 11.4914 14.9809 12.8138 13.8978L17.3913 18.4754C17.462 18.549 17.5466 18.6077 17.6402 18.6482C17.7338 18.6886 17.8346 18.71 17.9366 18.7111C18.0386 18.7121 18.1398 18.6928 18.2342 18.6542C18.3287 18.6157 18.4145 18.5587 18.4866 18.4865C18.5587 18.4144 18.6157 18.3286 18.6543 18.2342C18.6928 18.1397 18.7122 18.0386 18.7111 17.9366C18.7101 17.8346 18.6887 17.7338 18.6482 17.6402C18.6078 17.5465 18.549 17.4619 18.4754 17.3913L13.8979 12.8137C14.9809 11.4913 15.6334 9.80398 15.6334 7.96665C15.6334 3.74155 12.1918 0.299988 7.96672 0.299988ZM7.96672 1.83332C11.3631 1.83332 14.1 4.57023 14.1 7.96665C14.1 11.3631 11.3631 14.1 7.96672 14.1C4.57029 14.1 1.83338 11.3631 1.83338 7.96665C1.83338 4.57023 4.57029 1.83332 7.96672 1.83332Z" fill="white"/>
</svg>
