<svg width="125" height="41" viewBox="0 0" fill="none" xmlns="http://www.w3.org/2000/svg">
<path d="M12.0882 16.5596C12.2268 16.4218 12.3368 16.2579 12.4118 16.0774C12.4868 15.8969 12.5253 15.7033 12.5251 15.5078C12.525 15.3124 12.4861 15.1189 12.4108 14.9385C12.3356 14.7581 12.2253 14.5944 12.0865 14.4568C11.9477 14.3192 11.783 14.2104 11.6019 14.1368C11.4208 14.0631 11.227 14.026 11.0315 14.0276C10.8361 14.0292 10.6429 14.0695 10.463 14.1461C10.2832 14.2227 10.1203 14.3341 9.98375 14.474C8.74947 15.7208 7.91256 17.3056 7.57879 19.028C7.24502 20.7503 7.42938 22.533 8.10858 24.1506C8.78777 25.7682 9.93129 27.1482 11.3946 28.116C12.8579 29.084 14.5753 29.5962 16.3297 29.5881C18.0841 29.5802 19.7968 29.0522 21.2512 28.071C22.7056 27.0898 23.8365 25.6994 24.5007 24.0756C25.1652 22.4518 25.3332 20.6675 24.9836 18.9483C24.6341 17.229 23.7827 15.652 22.5371 14.4165C22.3989 14.2796 22.2351 14.1712 22.0549 14.0976C21.8748 14.0239 21.682 13.9865 21.4873 13.9874C21.2928 13.9883 21.1003 14.0275 20.9209 14.1028C20.7414 14.1781 20.5787 14.288 20.4416 14.4262C20.3047 14.5645 20.1963 14.7283 20.1228 14.9084C20.0491 15.0885 20.0118 15.2814 20.0125 15.4759C20.0135 15.6705 20.0527 15.863 20.128 16.0424C20.2033 16.2218 20.3133 16.3847 20.4514 16.5216C21.2821 17.3449 21.8501 18.396 22.0834 19.542C22.3167 20.688 22.2049 21.8774 21.7622 22.9599C21.3196 24.0424 20.5659 24.9694 19.5964 25.6235C18.627 26.2777 17.4854 26.6297 16.3159 26.6351C15.1463 26.6404 14.0015 26.2989 13.0261 25.6536C12.0507 25.0083 11.2885 24.0883 10.836 23.0099C10.3834 21.9316 10.2608 20.7432 10.4836 19.5951C10.7064 18.447 11.2647 17.3908 12.0878 16.5599L12.0882 16.5596Z" fill="url(#paint0_linear)"/>
<path d="M22.5119 7.0002C21.5387 7.00196 20.5756 7.19672 19.6782 7.57322C18.7807 7.94972 17.967 8.50047 17.2838 9.1936C17.0071 9.47231 16.6311 9.62985 16.2383 9.63162C15.8455 9.63341 15.468 9.4793 15.1887 9.2031C13.7921 7.82247 11.9049 7.05217 9.94106 7.06116C7.97724 7.07015 6.09715 7.85771 4.71324 9.25107C2.4471 11.5401 0.910467 14.4496 0.297591 17.6118C-0.315286 20.7739 0.0231048 24.0469 1.26999 27.0167C2.51687 29.9866 4.61628 32.5202 7.3028 34.2971C9.98934 36.0741 13.1424 37.0146 16.3634 36.9998C19.5844 36.9852 22.7287 36.0158 25.3988 34.2144C28.0691 32.413 30.1452 29.8603 31.3649 26.8793C32.5846 23.8981 32.8931 20.6222 32.2513 17.4658C31.6096 14.3093 30.0465 11.414 27.7595 9.14578C27.0701 8.45895 26.2514 7.91567 25.3505 7.54737C24.4498 7.17908 23.485 6.9931 22.5119 7.0002ZM25.6735 11.2504C27.5469 13.1066 28.8276 15.4766 29.3539 18.0607C29.8802 20.6448 29.6285 23.3268 28.6304 25.7679C27.6324 28.2089 25.933 30.2991 23.7469 31.7743C21.561 33.2494 18.9866 34.0433 16.3495 34.0553C13.7124 34.0674 11.131 33.2972 8.93157 31.8421C6.73219 30.3871 5.01366 28.3123 3.99334 25.8806C2.97301 23.4489 2.69671 20.7692 3.19936 18.1804C3.70201 15.5916 4.96105 13.2099 6.81724 11.3367C7.64768 10.5007 8.77578 10.0282 9.95412 10.0228C11.1325 10.0173 12.2649 10.4795 13.1029 11.3079C13.9408 12.1363 15.0731 12.5985 16.2514 12.5932C17.4296 12.5878 18.5576 12.1152 19.3879 11.2792C20.2175 10.442 21.3459 9.96858 22.5246 9.96318C23.7033 9.95777 24.8359 10.4208 25.6732 11.2504" fill="url(#paint1_linear)"/>
<path d="M16.2889 23.3441C17.6184 23.3441 18.696 22.2664 18.696 20.937C18.696 19.6076 17.6184 18.5299 16.2889 18.5299C14.9595 18.5299 13.8818 19.6076 13.8818 20.937C13.8818 22.2664 14.9595 23.3441 16.2889 23.3441Z" fill="url(#paint2_linear)"/>
<path d="M63.7812 22.8438H50.9531V18.75H63.7812V22.8438ZM65.6094 32H50.9531C50.3906 32 49.776 31.901 49.1094 31.7031C48.4427 31.5052 47.8229 31.1823 47.25 30.7344C46.6875 30.276 46.2135 29.6875 45.8281 28.9688C45.4531 28.2396 45.2656 27.349 45.2656 26.2969V11.6406C45.2656 11.3594 45.3177 11.0938 45.4219 10.8438C45.526 10.5938 45.6667 10.375 45.8438 10.1875C46.0312 10 46.25 9.85417 46.5 9.75C46.75 9.64583 47.0208 9.59375 47.3125 9.59375H65.6094V13.6562H49.3281V26.2969C49.3281 26.8281 49.4688 27.2344 49.75 27.5156C50.0312 27.7969 50.4427 27.9375 50.9844 27.9375H65.6094V32ZM95.625 32H91.5312V18.6562L84.3281 31.3281C84.151 31.651 83.901 31.8958 83.5781 32.0625C83.2656 32.2292 82.9271 32.3125 82.5625 32.3125C82.2083 32.3125 81.875 32.2292 81.5625 32.0625C81.2604 31.8958 81.0208 31.651 80.8438 31.3281L73.6094 18.6562V32H69.5469V11.3281C69.5469 10.8594 69.6823 10.4427 69.9531 10.0781C70.2344 9.71354 70.599 9.46875 71.0469 9.34375C71.2656 9.29167 71.4844 9.27604 71.7031 9.29688C71.9219 9.30729 72.1302 9.35417 72.3281 9.4375C72.5365 9.51042 72.724 9.61979 72.8906 9.76562C73.0573 9.90104 73.1979 10.0677 73.3125 10.2656L82.5625 26.3438L91.8125 10.2656C92.0521 9.86979 92.3802 9.58854 92.7969 9.42188C93.224 9.25521 93.6667 9.22917 94.125 9.34375C94.5625 9.46875 94.9219 9.71354 95.2031 10.0781C95.4844 10.4427 95.625 10.8594 95.625 11.3281V32ZM122.344 32H118.281V26.5H104V32H99.9375V20.7969C99.9375 19.1615 100.219 17.6562 100.781 16.2812C101.344 14.9062 102.125 13.724 103.125 12.7344C104.125 11.7448 105.307 10.974 106.672 10.4219C108.036 9.86979 109.526 9.59375 111.141 9.59375H120.297C120.578 9.59375 120.844 9.64583 121.094 9.75C121.344 9.85417 121.562 10 121.75 10.1875C121.938 10.375 122.083 10.5938 122.188 10.8438C122.292 11.0938 122.344 11.3594 122.344 11.6406V32ZM104 22.4375H118.281V13.6562H111.141C111.016 13.6562 110.75 13.6771 110.344 13.7188C109.948 13.75 109.484 13.8385 108.953 13.9844C108.432 14.1302 107.88 14.3542 107.297 14.6562C106.714 14.9583 106.177 15.375 105.688 15.9062C105.198 16.4375 104.792 17.1042 104.469 17.9062C104.156 18.6979 104 19.6615 104 20.7969V22.4375Z" fill="url(#paint3_linear)"/>
<defs>
<linearGradient id="paint0_linear" x1="16.2891" y1="38.5743" x2="16.2891" y2="7.09183" gradientUnits="userSpaceOnUse">
<stop stop-color="#00CD9E"/>
<stop offset="1" stop-color="#38A3DC"/>
</linearGradient>
<linearGradient id="paint1_linear" x1="16.2889" y1="38.5601" x2="16.2889" y2="7.09" gradientUnits="userSpaceOnUse">
<stop stop-color="#00CD9E"/>
<stop offset="1" stop-color="#38A3DC"/>
</linearGradient>
<linearGradient id="paint2_linear" x1="16.2889" y1="38.5858" x2="16.2889" y2="7.09143" gradientUnits="userSpaceOnUse">
<stop stop-color="#00AB9E"/>
<stop offset="1" stop-color="#38A3DC"/>
</linearGradient>
<linearGradient id="paint3_linear" x1="84" y1="0" x2="84" y2="41" gradientUnits="userSpaceOnUse">
<stop stop-color="#33A7D6"/>
<stop offset="1" stop-color="#06C9A4"/>
</linearGradient>
</defs>
</svg>
