<svg width="120" height="35" viewBox="0 0 141 40" fill="none" xmlns="http://www.w3.org/2000/svg">
<path d="M16.1177 12.7461C16.3025 12.5623 16.4491 12.3438 16.5491 12.1031C16.6491 11.8624 16.7004 11.6043 16.7002 11.3437C16.7 11.0831 16.6482 10.8251 16.5478 10.5846C16.4475 10.3441 16.3005 10.1258 16.1154 9.94232C15.9302 9.75887 15.7106 9.61386 15.4692 9.51566C15.2278 9.41745 14.9694 9.36799 14.7088 9.3701C14.4481 9.37224 14.1905 9.42593 13.9507 9.52805C13.711 9.6302 13.4938 9.77879 13.3117 9.96525C11.666 11.6277 10.5501 13.7407 10.1051 16.0372C9.66006 18.3337 9.90588 20.7106 10.8115 22.8674C11.7171 25.0243 13.2418 26.8642 15.1929 28.1546C17.1439 29.4452 19.4338 30.1282 21.773 30.1174C24.1121 30.1068 26.3958 29.4029 28.335 28.0946C30.2742 26.7863 31.782 24.9325 32.6677 22.7674C33.5536 20.6024 33.7777 18.2233 33.3115 15.931C32.8455 13.6386 31.7104 11.5359 30.0495 9.88862C29.8653 9.70602 29.6468 9.56151 29.4065 9.46335C29.1665 9.36518 28.9094 9.31528 28.6498 9.31649C28.3904 9.31769 28.1338 9.36998 27.8945 9.47039C27.6553 9.57077 27.4383 9.7173 27.2555 9.9016C27.073 10.0859 26.9285 10.3043 26.8305 10.5445C26.7322 10.7846 26.6824 11.0418 26.6834 11.3012C26.6847 11.5606 26.737 11.8173 26.8373 12.0565C26.9378 12.2957 27.0844 12.5128 27.2686 12.6954C28.3761 13.7931 29.1335 15.1946 29.4445 16.7226C29.7556 18.2506 29.6065 19.8365 29.0163 21.2799C28.4262 22.7231 27.4213 23.9591 26.1286 24.8313C24.836 25.7035 23.3139 26.1728 21.7545 26.1801C20.1952 26.1872 18.6687 25.7318 17.3682 24.8714C16.0676 24.0111 15.0514 22.7844 14.448 21.3465C13.8446 19.9087 13.6811 18.3242 13.9782 16.7934C14.2753 15.2626 15.0202 13.8539 16.1177 12.7461Z" fill="white"/>
<path d="M30.0158 0.000260482C28.7183 0.00260802 27.4341 0.262295 26.2376 0.764293C25.041 1.26629 23.9559 2.00063 23.0451 2.92479C22.6761 3.29641 22.1748 3.50646 21.6511 3.50883C21.1273 3.51122 20.624 3.30573 20.2516 2.93746C18.3895 1.09663 15.8732 0.0695568 13.2547 0.0815473C10.6363 0.0935381 8.12954 1.14361 6.28432 3.00142C3.2628 6.05345 1.21396 9.93277 0.396788 14.149C-0.420381 18.3652 0.0308063 22.7291 1.69332 26.6889C3.35583 30.6488 6.15504 34.0269 9.73707 36.3962C13.3191 38.7654 17.5232 40.0195 21.8178 39.9998C26.1125 39.9803 30.3049 38.6877 33.8651 36.2859C37.4255 33.884 40.1937 30.4804 41.8199 26.5057C43.4461 22.5308 43.8575 18.1629 43.0017 13.9544C42.1461 9.74576 40.062 5.88532 37.0126 2.86104C36.0935 1.94527 35.0018 1.22089 33.8007 0.729833C32.5998 0.238779 31.3133 -0.00919341 30.0158 0.000260482ZM34.2314 5.66721C36.7292 8.14214 38.4368 11.3021 39.1385 14.7476C39.8402 18.193 39.5046 21.7691 38.1739 25.0238C36.8432 28.2786 34.5774 31.0654 31.6626 33.0324C28.748 34.9992 25.3155 36.0577 21.7994 36.0737C18.2832 36.0899 14.8413 35.063 11.9088 33.1228C8.97625 31.1828 6.68488 28.4165 5.32445 25.1742C3.96402 21.9319 3.59562 18.3589 4.26582 14.9071C4.93601 11.4554 6.61473 8.27992 9.08966 5.78226C10.1969 4.66758 11.701 4.03754 13.2722 4.03034C14.8433 4.02313 16.3532 4.63936 17.4706 5.74384C18.5877 6.84841 20.0974 7.46469 21.6685 7.45755C23.2395 7.45039 24.7434 6.82033 25.8505 5.70563C26.9567 4.58931 28.4612 3.95811 30.0328 3.95091C31.6044 3.9437 33.115 4.56107 34.2314 5.66721Z" fill="white"/>
<path d="M21.7186 21.7922C23.4912 21.7922 24.928 20.3553 24.928 18.5828C24.928 16.8102 23.4912 15.3733 21.7186 15.3733C19.946 15.3733 18.5091 16.8102 18.5091 18.5828C18.5091 20.3553 19.946 21.7922 21.7186 21.7922Z" fill="white"/>
<path d="M75.7812 21.8438H62.9531V17.75H75.7812V21.8438ZM77.6094 31H62.9531C62.3906 31 61.776 30.901 61.1094 30.7031C60.4427 30.5052 59.8229 30.1823 59.25 29.7344C58.6875 29.276 58.2135 28.6875 57.8281 27.9688C57.4531 27.2396 57.2656 26.349 57.2656 25.2969V10.6406C57.2656 10.3594 57.3177 10.0938 57.4219 9.84375C57.526 9.59375 57.6667 9.375 57.8438 9.1875C58.0312 9 58.25 8.85417 58.5 8.75C58.75 8.64583 59.0208 8.59375 59.3125 8.59375H77.6094V12.6562H61.3281V25.2969C61.3281 25.8281 61.4688 26.2344 61.75 26.5156C62.0312 26.7969 62.4427 26.9375 62.9844 26.9375H77.6094V31ZM107.625 31H103.531V17.6562L96.3281 30.3281C96.151 30.651 95.901 30.8958 95.5781 31.0625C95.2656 31.2292 94.9271 31.3125 94.5625 31.3125C94.2083 31.3125 93.875 31.2292 93.5625 31.0625C93.2604 30.8958 93.0208 30.651 92.8438 30.3281L85.6094 17.6562V31H81.5469V10.3281C81.5469 9.85938 81.6823 9.44271 81.9531 9.07812C82.2344 8.71354 82.599 8.46875 83.0469 8.34375C83.2656 8.29167 83.4844 8.27604 83.7031 8.29688C83.9219 8.30729 84.1302 8.35417 84.3281 8.4375C84.5365 8.51042 84.724 8.61979 84.8906 8.76562C85.0573 8.90104 85.1979 9.06771 85.3125 9.26562L94.5625 25.3438L103.812 9.26562C104.052 8.86979 104.38 8.58854 104.797 8.42188C105.224 8.25521 105.667 8.22917 106.125 8.34375C106.562 8.46875 106.922 8.71354 107.203 9.07812C107.484 9.44271 107.625 9.85938 107.625 10.3281V31ZM134.344 31H130.281V25.5H116V31H111.938V19.7969C111.938 18.1615 112.219 16.6562 112.781 15.2812C113.344 13.9062 114.125 12.724 115.125 11.7344C116.125 10.7448 117.307 9.97396 118.672 9.42188C120.036 8.86979 121.526 8.59375 123.141 8.59375H132.297C132.578 8.59375 132.844 8.64583 133.094 8.75C133.344 8.85417 133.562 9 133.75 9.1875C133.938 9.375 134.083 9.59375 134.188 9.84375C134.292 10.0938 134.344 10.3594 134.344 10.6406V31ZM116 21.4375H130.281V12.6562H123.141C123.016 12.6562 122.75 12.6771 122.344 12.7188C121.948 12.75 121.484 12.8385 120.953 12.9844C120.432 13.1302 119.88 13.3542 119.297 13.6562C118.714 13.9583 118.177 14.375 117.688 14.9062C117.198 15.4375 116.792 16.1042 116.469 16.9062C116.156 17.6979 116 18.6615 116 19.7969V21.4375Z" fill="white"/>
</svg>
